M48
INCH,LZ
;FILE_FORMAT=2:4
;TYPE=PLATED
;Layer: PTH_Through
;EasyEDA v6.4.31, 2022-04-07 10:18:28
;166d8731ec0749d1b06731797b2d177b,10
;Gerber Generator version 0.2
;Holesize 1 = 0.0120 inch
T01C0.0120
;Holesize 2 = 0.0350 inch
T02C0.0350
;Holesize 3 = 0.0350 inch
T03C0.0350
;Holesize 4 = 0.0360 inch
T04C0.0360
;Holesize 5 = 0.1020 inch
T05C0.1020
;Holesize 6 = 0.1260 inch
T06C0.1260
%
G05
G90
T01
X007647Y-011797
X007647Y-011403
X007253Y-011403
X007253Y-011797
X012947Y-010797
X012947Y-010403
X012553Y-010403
X012553Y-010797
X005500Y-010700
X009650Y-011400
X002100Y-006650
X002450Y-006650
X002850Y-006650
X001550Y-006500
X001550Y-006800
X003450Y-006500
X003450Y-006800
X010550Y-010950
X010250Y-005150
X004750Y-013050
X004450Y-006250
X008850Y-019250
X009400Y-018900
X009700Y-018050
X009969Y-017100
X010800Y-016800
X009000Y-019850
X009400Y-019800
X009700Y-020100
X010000Y-019850
X010350Y-020000
X011000Y-016250
X010250Y-016200
X009850Y-016250
X009400Y-016300
X008850Y-016300
X008300Y-019800
X017750Y-019400
X017350Y-019250
X017600Y-018750
X018800Y-019750
X018750Y-018450
X017600Y-020150
X011300Y-016550
X012700Y-018500
X013750Y-017150
X012000Y-015550
X014600Y-019700
X011300Y-019800
X016300Y-020650
X004200Y-020350
X008976Y-023700
X012750Y-003850
X011250Y-003750
X010550Y-003850
X017600Y-013700
X017600Y-015050
X018850Y-015300
X013100Y-015550
X012100Y-014200
X014250Y-021300
X015250Y-021300
X016347Y-014990
X018197Y-020660
X018197Y-013101
X017550Y-021300
X014500Y-020900
X018100Y-025550
X018100Y-025900
X017100Y-006900
X017300Y-010200
X017350Y-010850
X016347Y-016251
X017550Y-017800
X017550Y-015950
X017550Y-007100
X010350Y-011300
X011053Y-011950
X006350Y-012900
X007600Y-010000
X007700Y-012400
X012750Y-009750
X013100Y-011450
X014500Y-017150
X014150Y-018450
X012150Y-019900
X013050Y-019550
X015250Y-016300
X009950Y-021500
X007150Y-020100
X006850Y-021300
X005500Y-021150
X003700Y-024400
X003650Y-025350
X004100Y-011450
X004050Y-008550
X003950Y-005400
X002550Y-008300
X002450Y-012150
X002450Y-015000
X002700Y-016400
X002500Y-019300
X014750Y-013350
X012100Y-011800
X014150Y-014700
X015800Y-013800
X011600Y-005800
X011000Y-004350
X010050Y-002400
X007350Y-002500
X007100Y-004600
X008450Y-004650
X006350Y-007300
X005100Y-007600
X005200Y-008850
X005400Y-009950
X008900Y-009500
X010600Y-007000
X012300Y-007000
X014400Y-007350
X019250Y-005750
X018000Y-005750
X018100Y-026700
X017800Y-027800
X015800Y-025700
X015300Y-024000
X013250Y-021650
X012000Y-021950
X011950Y-023250
X013500Y-022650
X006850Y-022850
X006950Y-024100
X005750Y-019550
X005600Y-016950
X000422Y-000422
X000422Y-002422
X000422Y-004422
X004422Y-000422
X004422Y-002422
X004422Y-004422
X006422Y-000422
X006422Y-014422
X008422Y-000422
X008422Y-006422
X008422Y-008422
X008422Y-014422
X010422Y-000422
X012422Y-000422
X012422Y-002422
X012422Y-008422
X014422Y-000422
X014422Y-008422
X016422Y-004422
X018422Y-000422
X018422Y-002422
X005572Y-015922
X005572Y-017922
X007572Y-015922
X014018Y-015990
X000422Y-022056
X000422Y-024056
X000422Y-026056
X002422Y-018056
X004422Y-022056
X008422Y-022056
X014422Y-024056
T02
X019100Y-027750
X019100Y-026750
X019100Y-025750
X019100Y-024750
X019100Y-023750
X014200Y-003550
X015200Y-003550
X016200Y-003550
X011250Y-024900
X010250Y-024900
X009250Y-024900
X012950Y-006300
X013950Y-006300
X014950Y-006300
T03
X004750Y-001000
X004750Y-001787
X005538Y-001000
X005538Y-001787
X006325Y-001787
X006325Y-001000
X007900Y-001000
X007900Y-001787
X007113Y-001787
X007113Y-001000
X009475Y-001000
X009475Y-001787
X008687Y-001787
X008687Y-001000
X011050Y-001000
X011050Y-001787
X010262Y-001787
X010262Y-001000
X012624Y-001000
X012624Y-001787
X011837Y-001787
X011837Y-001000
X014199Y-001000
X014199Y-001787
X013412Y-001787
X013412Y-001000
X014987Y-001787
X014987Y-001000
T04
X000550Y-009400
X011050Y-021150
X011050Y-021950
X000550Y-010550
X011350Y-013400
X012500Y-013400
X011050Y-022750
X010150Y-014000
X010150Y-014850
X011050Y-023700
T05
X002115Y-003993G85X002115Y-003991
X017631Y-003993G85X017631Y-003991
X017631Y-024415G85X017631Y-024413
X002115Y-024415G85X002115Y-024413
T06
X003100Y-001500
X016600Y-001500
X003100Y-027000
X016600Y-027000
M30
