G04 Layer: BottomSolderMaskLayer*
G04 EasyEDA v6.4.31, 2022-04-07 10:18:28*
G04 166d8731ec0749d1b06731797b2d177b,10*
G04 Gerber Generator version 0.2*
G04 Scale: 100 percent, Rotated: No, Reflected: No *
G04 Dimensions in inches *
G04 leading zeros omitted , absolute positions ,3 integer and 6 decimal *
%FSLAX36Y36*%
%MOIN*%

%ADD79C,0.0474*%
%ADD80C,0.1576*%
%ADD81C,0.0592*%
%ADD82C,0.0434*%
%ADD83C,0.0680*%
%ADD84C,0.0660*%
%ADD118C,0.2049*%

%LPD*%
D79*
G01*
X60000Y-875000D03*
G01*
X90000Y-1115000D03*
G01*
X60000Y-1155000D03*
G01*
X95000Y-1190000D03*
G01*
X40000Y-1200000D03*
G01*
X55000Y-1260000D03*
G01*
X90000Y-1310000D03*
G01*
X35000Y-1310000D03*
G01*
X35000Y-1360000D03*
G01*
X100000Y-1404540D03*
G01*
X35000Y-1410000D03*
G01*
X100000Y-1467530D03*
G01*
X35000Y-1475000D03*
G01*
X35000Y-1530000D03*
G01*
X35000Y-1590000D03*
G01*
X100000Y-1625010D03*
G01*
X35000Y-1640000D03*
G01*
X85019Y-1687750D03*
G01*
X35000Y-1695000D03*
G01*
X85000Y-1760000D03*
G01*
X35000Y-1770000D03*
G01*
X85000Y-1830000D03*
G01*
X35000Y-1860000D03*
G01*
X100000Y-1908519D03*
G01*
X35000Y-1925000D03*
G01*
X100000Y-1971500D03*
G01*
X35000Y-1990000D03*
G01*
X100000Y-2034499D03*
G01*
X35000Y-2045000D03*
G01*
X1895000Y-1795000D03*
G01*
X1930000Y-1760000D03*
G01*
X1875000Y-1719540D03*
G01*
X1930000Y-1710000D03*
G01*
X1875000Y-1656550D03*
G01*
X1930000Y-1650000D03*
G01*
X1930000Y-1590000D03*
G01*
X1925000Y-1467530D03*
G01*
X1880000Y-1435000D03*
G01*
X1925000Y-1410000D03*
G01*
X1895000Y-1360000D03*
G01*
X1895000Y-1300000D03*
G01*
X1925000Y-1260000D03*
G01*
X1875000Y-1215560D03*
G01*
X1925000Y-1200000D03*
G01*
X1875000Y-1152570D03*
G01*
X1925000Y-1145000D03*
G01*
X1875000Y-1089580D03*
G01*
X1925000Y-1085000D03*
G01*
X1875000Y-1026590D03*
G01*
X1925000Y-1025000D03*
G01*
X1875000Y-963600D03*
G01*
X1925000Y-965000D03*
G01*
X1875000Y-900599D03*
G01*
X1925000Y-905000D03*
G01*
X1875000Y-837609D03*
G01*
X1925000Y-795000D03*
G01*
X1875000Y-743119D03*
G01*
X1925000Y-735000D03*
G01*
X1875000Y-680129D03*
G01*
X1925000Y-675000D03*
G01*
X1885000Y-2035000D03*
G01*
X1885000Y-2097530D03*
G01*
X1570000Y-900599D03*
G01*
X1530000Y-932100D03*
G01*
X1570000Y-963600D03*
G01*
X1525000Y-995090D03*
G01*
X1570000Y-1058080D03*
G01*
X1525000Y-1089580D03*
G01*
X1570000Y-1121080D03*
G01*
X1525000Y-1152570D03*
G01*
X1570000Y-1184070D03*
G01*
X1525000Y-1210000D03*
G01*
X1570000Y-1247060D03*
G01*
X1525000Y-1278560D03*
G01*
X1525000Y-1404540D03*
G01*
X1570000Y-1436039D03*
G01*
X1525000Y-1467530D03*
G01*
X1570000Y-1530529D03*
G01*
X1525000Y-1562020D03*
G01*
X1570000Y-1593560D03*
G01*
X1570000Y-1656550D03*
G01*
X1525000Y-1688040D03*
G01*
X1570000Y-1719540D03*
G01*
X1525000Y-1751039D03*
G01*
X1570000Y-1782530D03*
G01*
X1525000Y-1814029D03*
G01*
X400000Y-1310050D03*
G01*
X440000Y-1341550D03*
G01*
X440000Y-1971509D03*
G01*
X400000Y-1940000D03*
G01*
X440000Y-1908519D03*
G01*
X400000Y-1876979D03*
G01*
X440000Y-1845489D03*
G01*
X400000Y-1813989D03*
G01*
X440000Y-1782489D03*
G01*
X400000Y-1750999D03*
G01*
X440000Y-1688000D03*
G01*
X400000Y-1656509D03*
G01*
X440000Y-1625010D03*
G01*
X400000Y-1593519D03*
G01*
X440000Y-1562020D03*
G01*
X400000Y-1530520D03*
G01*
X440000Y-1499029D03*
G01*
X400000Y-1467530D03*
G01*
X440000Y-1404540D03*
G01*
X400000Y-1373040D03*
G01*
X1925000Y-1530000D03*
G36*
X1782200Y-2171399D02*
G01*
X1782200Y-2149600D01*
X1857200Y-2149600D01*
X1857200Y-2171399D01*
G37*
G36*
X1782200Y-2202899D02*
G01*
X1782200Y-2181100D01*
X1857200Y-2181100D01*
X1857200Y-2202899D01*
G37*
G36*
X1782200Y-2108400D02*
G01*
X1782200Y-2086599D01*
X1857200Y-2086599D01*
X1857200Y-2108400D01*
G37*
G36*
X1782200Y-2139899D02*
G01*
X1782200Y-2118099D01*
X1857200Y-2118099D01*
X1857200Y-2139899D01*
G37*
G36*
X1782200Y-2045399D02*
G01*
X1782200Y-2023699D01*
X1857200Y-2023699D01*
X1857200Y-2045399D01*
G37*
G36*
X1782200Y-2013899D02*
G01*
X1782200Y-1992199D01*
X1857200Y-1992199D01*
X1857200Y-2013899D01*
G37*
G36*
X1782200Y-1982399D02*
G01*
X1782200Y-1960700D01*
X1857200Y-1960700D01*
X1857200Y-1982399D01*
G37*
G36*
X1782200Y-1950900D02*
G01*
X1782200Y-1929200D01*
X1857200Y-1929200D01*
X1857200Y-1950900D01*
G37*
G36*
X1597200Y-2171399D02*
G01*
X1597200Y-2149600D01*
X1672100Y-2149600D01*
X1672100Y-2171399D01*
G37*
G36*
X1597200Y-2202899D02*
G01*
X1597200Y-2181100D01*
X1672100Y-2181100D01*
X1672100Y-2202899D01*
G37*
G36*
X1597200Y-2108400D02*
G01*
X1597200Y-2086599D01*
X1672100Y-2086599D01*
X1672100Y-2108400D01*
G37*
G36*
X1597200Y-2139899D02*
G01*
X1597200Y-2118099D01*
X1672100Y-2118099D01*
X1672100Y-2139899D01*
G37*
G36*
X1597200Y-2045399D02*
G01*
X1597200Y-2023699D01*
X1672100Y-2023699D01*
X1672100Y-2045399D01*
G37*
G36*
X1597200Y-2013899D02*
G01*
X1597200Y-1992199D01*
X1672100Y-1992199D01*
X1672100Y-2013899D01*
G37*
G36*
X1597200Y-1982399D02*
G01*
X1597200Y-1960700D01*
X1672100Y-1960700D01*
X1672100Y-1982399D01*
G37*
G36*
X1597200Y-1950900D02*
G01*
X1597200Y-1929200D01*
X1672100Y-1929200D01*
X1672100Y-1950900D01*
G37*
G36*
X1782200Y-2076900D02*
G01*
X1782200Y-2055199D01*
X1857200Y-2055199D01*
X1857200Y-2076900D01*
G37*
G36*
X1782200Y-1919499D02*
G01*
X1782200Y-1897699D01*
X1857200Y-1897699D01*
X1857200Y-1919499D01*
G37*
G36*
X1597200Y-2076900D02*
G01*
X1597200Y-2055199D01*
X1672100Y-2055199D01*
X1672100Y-2076900D01*
G37*
G36*
X1597200Y-1919499D02*
G01*
X1597200Y-1897699D01*
X1672100Y-1897699D01*
X1672100Y-1919499D01*
G37*
G36*
X1782200Y-1856399D02*
G01*
X1782200Y-1834600D01*
X1857200Y-1834600D01*
X1857200Y-1856399D01*
G37*
G36*
X1782200Y-1887899D02*
G01*
X1782200Y-1866100D01*
X1857200Y-1866100D01*
X1857200Y-1887899D01*
G37*
G36*
X1782200Y-1793400D02*
G01*
X1782200Y-1771599D01*
X1857200Y-1771599D01*
X1857200Y-1793400D01*
G37*
G36*
X1782200Y-1824899D02*
G01*
X1782200Y-1803099D01*
X1857200Y-1803099D01*
X1857200Y-1824899D01*
G37*
G36*
X1782200Y-1730399D02*
G01*
X1782200Y-1708699D01*
X1857200Y-1708699D01*
X1857200Y-1730399D01*
G37*
G36*
X1782200Y-1698899D02*
G01*
X1782200Y-1677199D01*
X1857200Y-1677199D01*
X1857200Y-1698899D01*
G37*
G36*
X1782200Y-1667399D02*
G01*
X1782200Y-1645700D01*
X1857200Y-1645700D01*
X1857200Y-1667399D01*
G37*
G36*
X1782200Y-1635900D02*
G01*
X1782200Y-1614200D01*
X1857200Y-1614200D01*
X1857200Y-1635900D01*
G37*
G36*
X1782200Y-1572899D02*
G01*
X1782200Y-1551100D01*
X1857200Y-1551100D01*
X1857200Y-1572899D01*
G37*
G36*
X1782200Y-1541399D02*
G01*
X1782200Y-1519600D01*
X1857200Y-1519600D01*
X1857200Y-1541399D01*
G37*
G36*
X1782200Y-1509899D02*
G01*
X1782200Y-1488099D01*
X1857200Y-1488099D01*
X1857200Y-1509899D01*
G37*
G36*
X1782200Y-1478400D02*
G01*
X1782200Y-1456599D01*
X1857200Y-1456599D01*
X1857200Y-1478400D01*
G37*
G36*
X1782200Y-1383899D02*
G01*
X1782200Y-1362199D01*
X1857200Y-1362199D01*
X1857200Y-1383899D01*
G37*
G36*
X1782200Y-1415399D02*
G01*
X1782200Y-1393699D01*
X1857200Y-1393699D01*
X1857200Y-1415399D01*
G37*
G36*
X1782200Y-1320900D02*
G01*
X1782200Y-1299200D01*
X1857200Y-1299200D01*
X1857200Y-1320900D01*
G37*
G36*
X1782200Y-1258000D02*
G01*
X1782200Y-1236199D01*
X1857200Y-1236199D01*
X1857200Y-1258000D01*
G37*
G36*
X1782200Y-1226500D02*
G01*
X1782200Y-1204699D01*
X1857200Y-1204699D01*
X1857200Y-1226500D01*
G37*
G36*
X1782200Y-1131999D02*
G01*
X1782200Y-1110199D01*
X1857200Y-1110199D01*
X1857200Y-1131999D01*
G37*
G36*
X1782200Y-1163499D02*
G01*
X1782200Y-1141700D01*
X1857200Y-1141700D01*
X1857200Y-1163499D01*
G37*
G36*
X1782200Y-1069000D02*
G01*
X1782200Y-1047199D01*
X1857200Y-1047199D01*
X1857200Y-1069000D01*
G37*
G36*
X1782200Y-1100500D02*
G01*
X1782200Y-1078699D01*
X1857200Y-1078699D01*
X1857200Y-1100500D01*
G37*
G36*
X1782200Y-1005999D02*
G01*
X1782200Y-984200D01*
X1857200Y-984200D01*
X1857200Y-1005999D01*
G37*
G36*
X1782200Y-974499D02*
G01*
X1782200Y-952699D01*
X1857200Y-952699D01*
X1857200Y-974499D01*
G37*
G36*
X1782200Y-943000D02*
G01*
X1782200Y-921199D01*
X1857200Y-921199D01*
X1857200Y-943000D01*
G37*
G36*
X1782200Y-911500D02*
G01*
X1782200Y-889699D01*
X1857200Y-889699D01*
X1857200Y-911500D01*
G37*
G36*
X1782200Y-816999D02*
G01*
X1782200Y-795199D01*
X1857200Y-795199D01*
X1857200Y-816999D01*
G37*
G36*
X1782200Y-848499D02*
G01*
X1782200Y-826700D01*
X1857200Y-826700D01*
X1857200Y-848499D01*
G37*
G36*
X1782200Y-754000D02*
G01*
X1782200Y-732199D01*
X1857200Y-732199D01*
X1857200Y-754000D01*
G37*
G36*
X1782200Y-785500D02*
G01*
X1782200Y-763699D01*
X1857200Y-763699D01*
X1857200Y-785500D01*
G37*
G36*
X1782200Y-690999D02*
G01*
X1782200Y-669200D01*
X1857200Y-669200D01*
X1857200Y-690999D01*
G37*
G36*
X1782200Y-659499D02*
G01*
X1782200Y-637800D01*
X1857200Y-637800D01*
X1857200Y-659499D01*
G37*
G36*
X1597200Y-1856399D02*
G01*
X1597200Y-1834600D01*
X1672100Y-1834600D01*
X1672100Y-1856399D01*
G37*
G36*
X1597200Y-1887899D02*
G01*
X1597200Y-1866100D01*
X1672100Y-1866100D01*
X1672100Y-1887899D01*
G37*
G36*
X1597200Y-1793400D02*
G01*
X1597200Y-1771599D01*
X1672100Y-1771599D01*
X1672100Y-1793400D01*
G37*
G36*
X1597200Y-1824899D02*
G01*
X1597200Y-1803099D01*
X1672100Y-1803099D01*
X1672100Y-1824899D01*
G37*
G36*
X1597200Y-1730399D02*
G01*
X1597200Y-1708699D01*
X1672100Y-1708699D01*
X1672100Y-1730399D01*
G37*
G36*
X1597200Y-1698899D02*
G01*
X1597200Y-1677199D01*
X1672100Y-1677199D01*
X1672100Y-1698899D01*
G37*
G36*
X1597200Y-1667399D02*
G01*
X1597200Y-1645700D01*
X1672100Y-1645700D01*
X1672100Y-1667399D01*
G37*
G36*
X1597200Y-1635900D02*
G01*
X1597200Y-1614200D01*
X1672100Y-1614200D01*
X1672100Y-1635900D01*
G37*
G36*
X1597200Y-1572899D02*
G01*
X1597200Y-1551100D01*
X1672100Y-1551100D01*
X1672100Y-1572899D01*
G37*
G36*
X1597200Y-1541399D02*
G01*
X1597200Y-1519600D01*
X1672100Y-1519600D01*
X1672100Y-1541399D01*
G37*
G36*
X1597200Y-1478400D02*
G01*
X1597200Y-1456599D01*
X1672100Y-1456599D01*
X1672100Y-1478400D01*
G37*
G36*
X1597200Y-1509899D02*
G01*
X1597200Y-1488099D01*
X1672100Y-1488099D01*
X1672100Y-1509899D01*
G37*
G36*
X1597200Y-1383899D02*
G01*
X1597200Y-1362199D01*
X1672100Y-1362199D01*
X1672100Y-1383899D01*
G37*
G36*
X1597200Y-1415399D02*
G01*
X1597200Y-1393699D01*
X1672100Y-1393699D01*
X1672100Y-1415399D01*
G37*
G36*
X1597200Y-1320900D02*
G01*
X1597200Y-1299200D01*
X1672100Y-1299200D01*
X1672100Y-1320900D01*
G37*
G36*
X1597200Y-1226500D02*
G01*
X1597200Y-1204699D01*
X1672100Y-1204699D01*
X1672100Y-1226500D01*
G37*
G36*
X1597200Y-1258000D02*
G01*
X1597200Y-1236199D01*
X1672100Y-1236199D01*
X1672100Y-1258000D01*
G37*
G36*
X1597200Y-1131999D02*
G01*
X1597200Y-1110199D01*
X1672100Y-1110199D01*
X1672100Y-1131999D01*
G37*
G36*
X1597200Y-1163499D02*
G01*
X1597200Y-1141700D01*
X1672100Y-1141700D01*
X1672100Y-1163499D01*
G37*
G36*
X1597200Y-1100500D02*
G01*
X1597200Y-1078699D01*
X1672100Y-1078699D01*
X1672100Y-1100500D01*
G37*
G36*
X1597200Y-1069000D02*
G01*
X1597200Y-1047199D01*
X1672100Y-1047199D01*
X1672100Y-1069000D01*
G37*
G36*
X1597200Y-1005999D02*
G01*
X1597200Y-984200D01*
X1672100Y-984200D01*
X1672100Y-1005999D01*
G37*
G36*
X1597200Y-974499D02*
G01*
X1597200Y-952699D01*
X1672100Y-952699D01*
X1672100Y-974499D01*
G37*
G36*
X1597200Y-943000D02*
G01*
X1597200Y-921199D01*
X1672100Y-921199D01*
X1672100Y-943000D01*
G37*
G36*
X1597200Y-911500D02*
G01*
X1597200Y-889699D01*
X1672100Y-889699D01*
X1672100Y-911500D01*
G37*
G36*
X1597200Y-816999D02*
G01*
X1597200Y-795199D01*
X1672100Y-795199D01*
X1672100Y-816999D01*
G37*
G36*
X1597200Y-848499D02*
G01*
X1597200Y-826700D01*
X1672100Y-826700D01*
X1672100Y-848499D01*
G37*
G36*
X1597200Y-754000D02*
G01*
X1597200Y-732199D01*
X1672100Y-732199D01*
X1672100Y-754000D01*
G37*
G36*
X1597200Y-785500D02*
G01*
X1597200Y-763699D01*
X1672100Y-763699D01*
X1672100Y-785500D01*
G37*
G36*
X1597200Y-659499D02*
G01*
X1597200Y-637800D01*
X1672100Y-637800D01*
X1672100Y-659499D01*
G37*
G36*
X1597200Y-690999D02*
G01*
X1597200Y-669200D01*
X1672100Y-669200D01*
X1672100Y-690999D01*
G37*
G36*
X1782200Y-1761900D02*
G01*
X1782200Y-1740199D01*
X1857200Y-1740199D01*
X1857200Y-1761900D01*
G37*
G36*
X1782200Y-1446900D02*
G01*
X1782200Y-1425199D01*
X1857200Y-1425199D01*
X1857200Y-1446900D01*
G37*
G36*
X1782200Y-1604499D02*
G01*
X1782200Y-1582699D01*
X1857200Y-1582699D01*
X1857200Y-1604499D01*
G37*
G36*
X1782200Y-1352399D02*
G01*
X1782200Y-1330700D01*
X1857200Y-1330700D01*
X1857200Y-1352399D01*
G37*
G36*
X1782200Y-1289499D02*
G01*
X1782200Y-1267699D01*
X1857200Y-1267699D01*
X1857200Y-1289499D01*
G37*
G36*
X1782200Y-1195000D02*
G01*
X1782200Y-1173200D01*
X1857200Y-1173200D01*
X1857200Y-1195000D01*
G37*
G36*
X1782200Y-1037500D02*
G01*
X1782200Y-1015700D01*
X1857200Y-1015700D01*
X1857200Y-1037500D01*
G37*
G36*
X1782200Y-880000D02*
G01*
X1782200Y-858200D01*
X1857200Y-858200D01*
X1857200Y-880000D01*
G37*
G36*
X1782200Y-722500D02*
G01*
X1782200Y-700700D01*
X1857200Y-700700D01*
X1857200Y-722500D01*
G37*
G36*
X1597200Y-1761900D02*
G01*
X1597200Y-1740199D01*
X1672100Y-1740199D01*
X1672100Y-1761900D01*
G37*
G36*
X1597200Y-1446900D02*
G01*
X1597200Y-1425199D01*
X1672100Y-1425199D01*
X1672100Y-1446900D01*
G37*
G36*
X1597200Y-1604499D02*
G01*
X1597200Y-1582699D01*
X1672100Y-1582699D01*
X1672100Y-1604499D01*
G37*
G36*
X1597200Y-1352399D02*
G01*
X1597200Y-1330700D01*
X1672100Y-1330700D01*
X1672100Y-1352399D01*
G37*
G36*
X1597200Y-1289499D02*
G01*
X1597200Y-1267699D01*
X1672100Y-1267699D01*
X1672100Y-1289499D01*
G37*
G36*
X1597200Y-1195000D02*
G01*
X1597200Y-1173200D01*
X1672100Y-1173200D01*
X1672100Y-1195000D01*
G37*
G36*
X1597200Y-1037500D02*
G01*
X1597200Y-1015700D01*
X1672100Y-1015700D01*
X1672100Y-1037500D01*
G37*
G36*
X1597200Y-880000D02*
G01*
X1597200Y-858200D01*
X1672100Y-858200D01*
X1672100Y-880000D01*
G37*
G36*
X1597200Y-722500D02*
G01*
X1597200Y-700700D01*
X1672100Y-700700D01*
X1672100Y-722500D01*
G37*
G36*
X117500Y-2108400D02*
G01*
X117500Y-2086599D01*
X192399Y-2086599D01*
X192399Y-2108400D01*
G37*
G36*
X117500Y-2076900D02*
G01*
X117500Y-2055100D01*
X192399Y-2055100D01*
X192399Y-2076900D01*
G37*
G36*
X302500Y-2076900D02*
G01*
X302500Y-2055100D01*
X377500Y-2055100D01*
X377500Y-2076900D01*
G37*
G36*
X117500Y-2045399D02*
G01*
X117500Y-2023600D01*
X192399Y-2023600D01*
X192399Y-2045399D01*
G37*
G36*
X302500Y-2045399D02*
G01*
X302500Y-2023600D01*
X377500Y-2023600D01*
X377500Y-2045399D01*
G37*
G36*
X117500Y-2013899D02*
G01*
X117500Y-1992100D01*
X192399Y-1992100D01*
X192399Y-2013899D01*
G37*
G36*
X302500Y-2108400D02*
G01*
X302500Y-2086599D01*
X377500Y-2086599D01*
X377500Y-2108400D01*
G37*
G36*
X302500Y-2013899D02*
G01*
X302500Y-1992100D01*
X377500Y-1992100D01*
X377500Y-2013899D01*
G37*
G36*
X302500Y-1982399D02*
G01*
X302500Y-1960599D01*
X377500Y-1960599D01*
X377500Y-1982399D01*
G37*
G36*
X117500Y-1982399D02*
G01*
X117500Y-1960599D01*
X192399Y-1960599D01*
X192399Y-1982399D01*
G37*
G36*
X302500Y-1258000D02*
G01*
X302500Y-1236199D01*
X377500Y-1236199D01*
X377500Y-1258000D01*
G37*
G36*
X302500Y-1887899D02*
G01*
X302500Y-1866100D01*
X377500Y-1866100D01*
X377500Y-1887899D01*
G37*
G36*
X302500Y-1320900D02*
G01*
X302500Y-1299200D01*
X377500Y-1299200D01*
X377500Y-1320900D01*
G37*
G36*
X302500Y-1383899D02*
G01*
X302500Y-1362199D01*
X377500Y-1362199D01*
X377500Y-1383899D01*
G37*
G36*
X302500Y-2139899D02*
G01*
X302500Y-2118099D01*
X377500Y-2118099D01*
X377500Y-2139899D01*
G37*
G36*
X117500Y-2139899D02*
G01*
X117500Y-2118099D01*
X192399Y-2118099D01*
X192399Y-2139899D01*
G37*
G36*
X302500Y-2171399D02*
G01*
X302500Y-2149600D01*
X377500Y-2149600D01*
X377500Y-2171399D01*
G37*
G36*
X117500Y-2171399D02*
G01*
X117500Y-2149600D01*
X192399Y-2149600D01*
X192399Y-2171399D01*
G37*
G36*
X302500Y-2202899D02*
G01*
X302500Y-2181100D01*
X377500Y-2181100D01*
X377500Y-2202899D01*
G37*
G36*
X117500Y-2202899D02*
G01*
X117500Y-2181100D01*
X192399Y-2181100D01*
X192399Y-2202899D01*
G37*
G36*
X302500Y-1761900D02*
G01*
X302500Y-1740100D01*
X377500Y-1740100D01*
X377500Y-1761900D01*
G37*
G36*
X302500Y-1131999D02*
G01*
X302500Y-1110199D01*
X377500Y-1110199D01*
X377500Y-1131999D01*
G37*
G36*
X117500Y-1131999D02*
G01*
X117500Y-1110199D01*
X192399Y-1110199D01*
X192399Y-1131999D01*
G37*
G36*
X302500Y-1415399D02*
G01*
X302500Y-1393699D01*
X377500Y-1393699D01*
X377500Y-1415399D01*
G37*
G36*
X302500Y-1698899D02*
G01*
X302500Y-1677100D01*
X377500Y-1677100D01*
X377500Y-1698899D01*
G37*
G36*
X117500Y-1698899D02*
G01*
X117500Y-1677100D01*
X192399Y-1677100D01*
X192399Y-1698899D01*
G37*
G36*
X117500Y-1415399D02*
G01*
X117500Y-1393699D01*
X192399Y-1393699D01*
X192399Y-1415399D01*
G37*
G36*
X302500Y-1352399D02*
G01*
X302500Y-1330700D01*
X377500Y-1330700D01*
X377500Y-1352399D01*
G37*
G36*
X117500Y-1352399D02*
G01*
X117500Y-1330700D01*
X192399Y-1330700D01*
X192399Y-1352399D01*
G37*
G36*
X117500Y-1037500D02*
G01*
X117500Y-1015700D01*
X192399Y-1015700D01*
X192399Y-1037500D01*
G37*
G36*
X302500Y-1069000D02*
G01*
X302500Y-1047199D01*
X377500Y-1047199D01*
X377500Y-1069000D01*
G37*
G36*
X117500Y-1383899D02*
G01*
X117500Y-1362199D01*
X192399Y-1362199D01*
X192399Y-1383899D01*
G37*
G36*
X117500Y-1069000D02*
G01*
X117500Y-1047199D01*
X192399Y-1047199D01*
X192399Y-1069000D01*
G37*
G36*
X117500Y-1446900D02*
G01*
X117500Y-1425199D01*
X192399Y-1425199D01*
X192399Y-1446900D01*
G37*
G36*
X302500Y-1037500D02*
G01*
X302500Y-1015700D01*
X377500Y-1015700D01*
X377500Y-1037500D01*
G37*
G36*
X302500Y-1289499D02*
G01*
X302500Y-1267699D01*
X377500Y-1267699D01*
X377500Y-1289499D01*
G37*
G36*
X117500Y-1635900D02*
G01*
X117500Y-1614099D01*
X192399Y-1614099D01*
X192399Y-1635900D01*
G37*
G36*
X117500Y-1667399D02*
G01*
X117500Y-1645599D01*
X192399Y-1645599D01*
X192399Y-1667399D01*
G37*
G36*
X117500Y-1887899D02*
G01*
X117500Y-1866100D01*
X192399Y-1866100D01*
X192399Y-1887899D01*
G37*
G36*
X117500Y-1541399D02*
G01*
X117500Y-1519600D01*
X192399Y-1519600D01*
X192399Y-1541399D01*
G37*
G36*
X117500Y-1320900D02*
G01*
X117500Y-1299200D01*
X192399Y-1299200D01*
X192399Y-1320900D01*
G37*
G36*
X117500Y-1730399D02*
G01*
X117500Y-1708600D01*
X192399Y-1708600D01*
X192399Y-1730399D01*
G37*
G36*
X117500Y-1856399D02*
G01*
X117500Y-1834600D01*
X192399Y-1834600D01*
X192399Y-1856399D01*
G37*
G36*
X117500Y-1604400D02*
G01*
X117500Y-1582600D01*
X192399Y-1582600D01*
X192399Y-1604400D01*
G37*
G36*
X117500Y-1509899D02*
G01*
X117500Y-1488099D01*
X192399Y-1488099D01*
X192399Y-1509899D01*
G37*
G36*
X117500Y-1258000D02*
G01*
X117500Y-1236199D01*
X192399Y-1236199D01*
X192399Y-1258000D01*
G37*
G36*
X117500Y-1572899D02*
G01*
X117500Y-1551100D01*
X192399Y-1551100D01*
X192399Y-1572899D01*
G37*
G36*
X117500Y-1761900D02*
G01*
X117500Y-1740100D01*
X192399Y-1740100D01*
X192399Y-1761900D01*
G37*
G36*
X117500Y-1289499D02*
G01*
X117500Y-1267699D01*
X192399Y-1267699D01*
X192399Y-1289499D01*
G37*
G36*
X117500Y-974499D02*
G01*
X117500Y-952699D01*
X192399Y-952699D01*
X192399Y-974499D01*
G37*
G36*
X117500Y-1005999D02*
G01*
X117500Y-984200D01*
X192399Y-984200D01*
X192399Y-1005999D01*
G37*
G36*
X117500Y-1100500D02*
G01*
X117500Y-1078699D01*
X192399Y-1078699D01*
X192399Y-1100500D01*
G37*
G36*
X117500Y-1919400D02*
G01*
X117500Y-1897600D01*
X192399Y-1897600D01*
X192399Y-1919400D01*
G37*
G36*
X117500Y-1950900D02*
G01*
X117500Y-1929099D01*
X192399Y-1929099D01*
X192399Y-1950900D01*
G37*
G36*
X302500Y-1919400D02*
G01*
X302500Y-1897600D01*
X377500Y-1897600D01*
X377500Y-1919400D01*
G37*
G36*
X302500Y-1950900D02*
G01*
X302500Y-1929099D01*
X377500Y-1929099D01*
X377500Y-1950900D01*
G37*
G36*
X302500Y-1005999D02*
G01*
X302500Y-984200D01*
X377500Y-984200D01*
X377500Y-1005999D01*
G37*
G36*
X117500Y-1793400D02*
G01*
X117500Y-1771599D01*
X192399Y-1771599D01*
X192399Y-1793400D01*
G37*
G36*
X117500Y-1824899D02*
G01*
X117500Y-1803099D01*
X192399Y-1803099D01*
X192399Y-1824899D01*
G37*
G36*
X302500Y-1446900D02*
G01*
X302500Y-1425199D01*
X377500Y-1425199D01*
X377500Y-1446900D01*
G37*
G36*
X302500Y-1478400D02*
G01*
X302500Y-1456599D01*
X377500Y-1456599D01*
X377500Y-1478400D01*
G37*
G36*
X117500Y-1478400D02*
G01*
X117500Y-1456599D01*
X192399Y-1456599D01*
X192399Y-1478400D01*
G37*
G36*
X302500Y-974499D02*
G01*
X302500Y-952699D01*
X377500Y-952699D01*
X377500Y-974499D01*
G37*
G36*
X117500Y-1226500D02*
G01*
X117500Y-1204699D01*
X192399Y-1204699D01*
X192399Y-1226500D01*
G37*
G36*
X302500Y-1163499D02*
G01*
X302500Y-1141700D01*
X377500Y-1141700D01*
X377500Y-1163499D01*
G37*
G36*
X302500Y-1195000D02*
G01*
X302500Y-1173200D01*
X377500Y-1173200D01*
X377500Y-1195000D01*
G37*
G36*
X302500Y-1100500D02*
G01*
X302500Y-1078699D01*
X377500Y-1078699D01*
X377500Y-1100500D01*
G37*
G36*
X117500Y-1163499D02*
G01*
X117500Y-1141700D01*
X192399Y-1141700D01*
X192399Y-1163499D01*
G37*
G36*
X117500Y-1195000D02*
G01*
X117500Y-1173200D01*
X192399Y-1173200D01*
X192399Y-1195000D01*
G37*
G36*
X302500Y-1226500D02*
G01*
X302500Y-1204699D01*
X377500Y-1204699D01*
X377500Y-1226500D01*
G37*
G36*
X302500Y-1572899D02*
G01*
X302500Y-1551100D01*
X377500Y-1551100D01*
X377500Y-1572899D01*
G37*
G36*
X302500Y-1667399D02*
G01*
X302500Y-1645599D01*
X377500Y-1645599D01*
X377500Y-1667399D01*
G37*
G36*
X302500Y-1604400D02*
G01*
X302500Y-1582600D01*
X377500Y-1582600D01*
X377500Y-1604400D01*
G37*
G36*
X302500Y-1824899D02*
G01*
X302500Y-1803099D01*
X377500Y-1803099D01*
X377500Y-1824899D01*
G37*
G36*
X302500Y-1541399D02*
G01*
X302500Y-1519600D01*
X377500Y-1519600D01*
X377500Y-1541399D01*
G37*
G36*
X302500Y-1635900D02*
G01*
X302500Y-1614099D01*
X377500Y-1614099D01*
X377500Y-1635900D01*
G37*
G36*
X302500Y-1856399D02*
G01*
X302500Y-1834600D01*
X377500Y-1834600D01*
X377500Y-1856399D01*
G37*
G36*
X302500Y-1509899D02*
G01*
X302500Y-1488099D01*
X377500Y-1488099D01*
X377500Y-1509899D01*
G37*
G36*
X302500Y-1793400D02*
G01*
X302500Y-1771599D01*
X377500Y-1771599D01*
X377500Y-1793400D01*
G37*
G36*
X302500Y-1730399D02*
G01*
X302500Y-1708600D01*
X377500Y-1708600D01*
X377500Y-1730399D01*
G37*
G36*
X302500Y-943000D02*
G01*
X302500Y-921199D01*
X377500Y-921199D01*
X377500Y-943000D01*
G37*
G36*
X302500Y-816999D02*
G01*
X302500Y-795199D01*
X377500Y-795199D01*
X377500Y-816999D01*
G37*
G36*
X117500Y-816999D02*
G01*
X117500Y-795199D01*
X192399Y-795199D01*
X192399Y-816999D01*
G37*
G36*
X117500Y-722500D02*
G01*
X117500Y-700700D01*
X192399Y-700700D01*
X192399Y-722500D01*
G37*
G36*
X302500Y-754000D02*
G01*
X302500Y-732199D01*
X377500Y-732199D01*
X377500Y-754000D01*
G37*
G36*
X117500Y-754000D02*
G01*
X117500Y-732199D01*
X192399Y-732199D01*
X192399Y-754000D01*
G37*
G36*
X302500Y-722500D02*
G01*
X302500Y-700700D01*
X377500Y-700700D01*
X377500Y-722500D01*
G37*
G36*
X117500Y-943000D02*
G01*
X117500Y-921199D01*
X192399Y-921199D01*
X192399Y-943000D01*
G37*
G36*
X117500Y-659499D02*
G01*
X117500Y-637800D01*
X192399Y-637800D01*
X192399Y-659499D01*
G37*
G36*
X117500Y-690999D02*
G01*
X117500Y-669200D01*
X192399Y-669200D01*
X192399Y-690999D01*
G37*
G36*
X117500Y-785500D02*
G01*
X117500Y-763699D01*
X192399Y-763699D01*
X192399Y-785500D01*
G37*
G36*
X302500Y-690999D02*
G01*
X302500Y-669200D01*
X377500Y-669200D01*
X377500Y-690999D01*
G37*
G36*
X302500Y-659499D02*
G01*
X302500Y-637800D01*
X377500Y-637800D01*
X377500Y-659499D01*
G37*
G36*
X117500Y-911500D02*
G01*
X117500Y-889699D01*
X192399Y-889699D01*
X192399Y-911500D01*
G37*
G36*
X302500Y-848499D02*
G01*
X302500Y-826700D01*
X377500Y-826700D01*
X377500Y-848499D01*
G37*
G36*
X302500Y-880000D02*
G01*
X302500Y-858200D01*
X377500Y-858200D01*
X377500Y-880000D01*
G37*
G36*
X302500Y-785500D02*
G01*
X302500Y-763699D01*
X377500Y-763699D01*
X377500Y-785500D01*
G37*
G36*
X117500Y-848499D02*
G01*
X117500Y-826700D01*
X192399Y-826700D01*
X192399Y-848499D01*
G37*
G36*
X117500Y-880000D02*
G01*
X117500Y-858200D01*
X192399Y-858200D01*
X192399Y-880000D01*
G37*
G36*
X302500Y-911500D02*
G01*
X302500Y-889699D01*
X377500Y-889699D01*
X377500Y-911500D01*
G37*
D80*
G01*
X211500Y-399149D03*
D81*
G01*
X1727169Y-2291329D03*
D82*
G01*
X1727169Y-549169D03*
D80*
G01*
X1763149Y-399149D03*
G01*
X1763149Y-2441350D03*
G01*
X211500Y-2441350D03*
D81*
G01*
X247480Y-2291329D03*
D82*
G01*
X247480Y-549169D03*
D83*
G01*
X55000Y-940000D03*
G01*
X1105000Y-2115000D03*
G01*
X1105000Y-2195000D03*
G01*
X55000Y-1055000D03*
D84*
G01*
X1910000Y-2775000D03*
G01*
X1910000Y-2675000D03*
G01*
X1910000Y-2575000D03*
G01*
X1910000Y-2475000D03*
G36*
X1876999Y-2408000D02*
G01*
X1876999Y-2341999D01*
X1943000Y-2341999D01*
X1943000Y-2408000D01*
G37*
G01*
X1420000Y-355000D03*
G01*
X1520000Y-355000D03*
G36*
X1586999Y-388000D02*
G01*
X1586999Y-321999D01*
X1653000Y-321999D01*
X1653000Y-388000D01*
G37*
G01*
X1125000Y-2490000D03*
G01*
X1025000Y-2490000D03*
G36*
X891999Y-2523000D02*
G01*
X891999Y-2456999D01*
X958000Y-2456999D01*
X958000Y-2523000D01*
G37*
G01*
X1295000Y-630000D03*
G01*
X1395000Y-630000D03*
G36*
X1461999Y-663000D02*
G01*
X1461999Y-596999D01*
X1528000Y-596999D01*
X1528000Y-663000D01*
G37*
D83*
G01*
X1135000Y-1340000D03*
G01*
X1250000Y-1340000D03*
G01*
X1105000Y-2275000D03*
D81*
G01*
X475030Y-99980D03*
G01*
X475030Y-178719D03*
G01*
X553769Y-99980D03*
G01*
X553769Y-178719D03*
G01*
X632510Y-178719D03*
G01*
X632510Y-99980D03*
G01*
X789989Y-99980D03*
G01*
X789989Y-178719D03*
G01*
X711250Y-178719D03*
G01*
X711250Y-99980D03*
G01*
X947470Y-99980D03*
G01*
X947470Y-178719D03*
G01*
X868729Y-178719D03*
G01*
X868729Y-99980D03*
G01*
X1104949Y-99980D03*
G01*
X1104949Y-178719D03*
G01*
X1026210Y-178719D03*
G01*
X1026210Y-99980D03*
G01*
X1262430Y-99980D03*
G01*
X1262430Y-178719D03*
G01*
X1183689Y-178719D03*
G01*
X1183689Y-99980D03*
G01*
X1419909Y-99980D03*
G01*
X1419909Y-178719D03*
G01*
X1341170Y-178719D03*
G01*
X1341170Y-99980D03*
G01*
X1498649Y-178719D03*
G01*
X1498649Y-99980D03*
D83*
G01*
X1015000Y-1400000D03*
G01*
X1015000Y-1485000D03*
G01*
X1105000Y-2370000D03*
D118*
G01*
X310000Y-150000D03*
G01*
X1660000Y-150000D03*
G01*
X310000Y-2700000D03*
G01*
X1660000Y-2700000D03*
M02*
