G04 Layer: BottomPasteMaskLayer*
G04 EasyEDA v6.4.31, 2022-04-07 10:18:28*
G04 166d8731ec0749d1b06731797b2d177b,10*
G04 Gerber Generator version 0.2*
G04 Scale: 100 percent, Rotated: No, Reflected: No *
G04 Dimensions in inches *
G04 leading zeros omitted , absolute positions ,3 integer and 6 decimal *
%FSLAX36Y36*%
%MOIN*%

%ADD23C,0.0394*%

%LPD*%
D23*
G01*
X60000Y-875000D03*
G01*
X90000Y-1115000D03*
G01*
X60000Y-1155000D03*
G01*
X95000Y-1190000D03*
G01*
X40000Y-1200000D03*
G01*
X55000Y-1260000D03*
G01*
X90000Y-1310000D03*
G01*
X35000Y-1310000D03*
G01*
X35000Y-1360000D03*
G01*
X100000Y-1404540D03*
G01*
X35000Y-1410000D03*
G01*
X100000Y-1467530D03*
G01*
X35000Y-1475000D03*
G01*
X35000Y-1530000D03*
G01*
X35000Y-1590000D03*
G01*
X100000Y-1625010D03*
G01*
X35000Y-1640000D03*
G01*
X85019Y-1687750D03*
G01*
X35000Y-1695000D03*
G01*
X85000Y-1760000D03*
G01*
X35000Y-1770000D03*
G01*
X85000Y-1830000D03*
G01*
X35000Y-1860000D03*
G01*
X100000Y-1908519D03*
G01*
X35000Y-1925000D03*
G01*
X100000Y-1971500D03*
G01*
X35000Y-1990000D03*
G01*
X100000Y-2034499D03*
G01*
X35000Y-2045000D03*
G01*
X1895000Y-1795000D03*
G01*
X1930000Y-1760000D03*
G01*
X1875000Y-1719540D03*
G01*
X1930000Y-1710000D03*
G01*
X1875000Y-1656550D03*
G01*
X1930000Y-1650000D03*
G01*
X1930000Y-1590000D03*
G01*
X1925000Y-1467530D03*
G01*
X1880000Y-1435000D03*
G01*
X1925000Y-1410000D03*
G01*
X1895000Y-1360000D03*
G01*
X1895000Y-1300000D03*
G01*
X1925000Y-1260000D03*
G01*
X1875000Y-1215560D03*
G01*
X1925000Y-1200000D03*
G01*
X1875000Y-1152570D03*
G01*
X1925000Y-1145000D03*
G01*
X1875000Y-1089580D03*
G01*
X1925000Y-1085000D03*
G01*
X1875000Y-1026590D03*
G01*
X1925000Y-1025000D03*
G01*
X1875000Y-963600D03*
G01*
X1925000Y-965000D03*
G01*
X1875000Y-900599D03*
G01*
X1925000Y-905000D03*
G01*
X1875000Y-837609D03*
G01*
X1925000Y-795000D03*
G01*
X1875000Y-743119D03*
G01*
X1925000Y-735000D03*
G01*
X1875000Y-680129D03*
G01*
X1925000Y-675000D03*
G01*
X1885000Y-2035000D03*
G01*
X1885000Y-2097530D03*
G01*
X1570000Y-900599D03*
G01*
X1530000Y-932100D03*
G01*
X1570000Y-963600D03*
G01*
X1525000Y-995090D03*
G01*
X1570000Y-1058080D03*
G01*
X1525000Y-1089580D03*
G01*
X1570000Y-1121080D03*
G01*
X1525000Y-1152570D03*
G01*
X1570000Y-1184070D03*
G01*
X1525000Y-1210000D03*
G01*
X1570000Y-1247060D03*
G01*
X1525000Y-1278560D03*
G01*
X1525000Y-1404540D03*
G01*
X1570000Y-1436039D03*
G01*
X1525000Y-1467530D03*
G01*
X1570000Y-1530529D03*
G01*
X1525000Y-1562020D03*
G01*
X1570000Y-1593560D03*
G01*
X1570000Y-1656550D03*
G01*
X1525000Y-1688040D03*
G01*
X1570000Y-1719540D03*
G01*
X1525000Y-1751039D03*
G01*
X1570000Y-1782530D03*
G01*
X1525000Y-1814029D03*
G01*
X400000Y-1310050D03*
G01*
X440000Y-1341550D03*
G01*
X440000Y-1971509D03*
G01*
X400000Y-1940000D03*
G01*
X440000Y-1908519D03*
G01*
X400000Y-1876979D03*
G01*
X440000Y-1845489D03*
G01*
X400000Y-1813989D03*
G01*
X440000Y-1782489D03*
G01*
X400000Y-1750999D03*
G01*
X440000Y-1688000D03*
G01*
X400000Y-1656509D03*
G01*
X440000Y-1625010D03*
G01*
X400000Y-1593519D03*
G01*
X440000Y-1562020D03*
G01*
X400000Y-1530520D03*
G01*
X440000Y-1499029D03*
G01*
X400000Y-1467530D03*
G01*
X440000Y-1404540D03*
G01*
X400000Y-1373040D03*
G01*
X1925000Y-1530000D03*
G36*
X1786225Y-2167420D02*
G01*
X1853154Y-2167420D01*
X1853154Y-2153640D01*
X1786225Y-2153640D01*
G37*
G36*
X1786225Y-2198910D02*
G01*
X1853154Y-2198910D01*
X1853154Y-2185129D01*
X1786225Y-2185129D01*
G37*
G36*
X1786225Y-2104420D02*
G01*
X1853154Y-2104420D01*
X1853154Y-2090639D01*
X1786225Y-2090639D01*
G37*
G36*
X1786225Y-2135920D02*
G01*
X1853154Y-2135920D01*
X1853154Y-2122140D01*
X1786225Y-2122140D01*
G37*
G36*
X1786225Y-2041430D02*
G01*
X1853154Y-2041430D01*
X1853154Y-2027649D01*
X1786225Y-2027649D01*
G37*
G36*
X1786225Y-2009929D02*
G01*
X1853154Y-2009929D01*
X1853154Y-1996149D01*
X1786225Y-1996149D01*
G37*
G36*
X1786225Y-1978440D02*
G01*
X1853154Y-1978440D01*
X1853154Y-1964659D01*
X1786225Y-1964659D01*
G37*
G36*
X1786225Y-1946940D02*
G01*
X1853154Y-1946940D01*
X1853154Y-1933159D01*
X1786225Y-1933159D01*
G37*
G36*
X1601184Y-2167420D02*
G01*
X1668113Y-2167420D01*
X1668113Y-2153640D01*
X1601184Y-2153640D01*
G37*
G36*
X1601184Y-2198910D02*
G01*
X1668113Y-2198910D01*
X1668113Y-2185129D01*
X1601184Y-2185129D01*
G37*
G36*
X1601184Y-2104420D02*
G01*
X1668113Y-2104420D01*
X1668113Y-2090639D01*
X1601184Y-2090639D01*
G37*
G36*
X1601184Y-2135920D02*
G01*
X1668113Y-2135920D01*
X1668113Y-2122140D01*
X1601184Y-2122140D01*
G37*
G36*
X1601184Y-2041430D02*
G01*
X1668113Y-2041430D01*
X1668113Y-2027649D01*
X1601184Y-2027649D01*
G37*
G36*
X1601184Y-2009929D02*
G01*
X1668113Y-2009929D01*
X1668113Y-1996149D01*
X1601184Y-1996149D01*
G37*
G36*
X1601184Y-1978440D02*
G01*
X1668113Y-1978440D01*
X1668113Y-1964659D01*
X1601184Y-1964659D01*
G37*
G36*
X1601184Y-1946940D02*
G01*
X1668113Y-1946940D01*
X1668113Y-1933159D01*
X1601184Y-1933159D01*
G37*
G36*
X1786225Y-2072929D02*
G01*
X1853154Y-2072929D01*
X1853154Y-2059149D01*
X1786225Y-2059149D01*
G37*
G36*
X1786225Y-1915450D02*
G01*
X1853154Y-1915450D01*
X1853154Y-1901669D01*
X1786225Y-1901669D01*
G37*
G36*
X1601184Y-2072929D02*
G01*
X1668113Y-2072929D01*
X1668113Y-2059149D01*
X1601184Y-2059149D01*
G37*
G36*
X1601184Y-1915450D02*
G01*
X1668113Y-1915450D01*
X1668113Y-1901669D01*
X1601184Y-1901669D01*
G37*
G36*
X1786225Y-1852420D02*
G01*
X1853154Y-1852420D01*
X1853154Y-1838640D01*
X1786225Y-1838640D01*
G37*
G36*
X1786225Y-1883910D02*
G01*
X1853154Y-1883910D01*
X1853154Y-1870129D01*
X1786225Y-1870129D01*
G37*
G36*
X1786225Y-1789420D02*
G01*
X1853154Y-1789420D01*
X1853154Y-1775639D01*
X1786225Y-1775639D01*
G37*
G36*
X1786225Y-1820920D02*
G01*
X1853154Y-1820920D01*
X1853154Y-1807140D01*
X1786225Y-1807140D01*
G37*
G36*
X1786225Y-1726430D02*
G01*
X1853154Y-1726430D01*
X1853154Y-1712649D01*
X1786225Y-1712649D01*
G37*
G36*
X1786225Y-1694929D02*
G01*
X1853154Y-1694929D01*
X1853154Y-1681149D01*
X1786225Y-1681149D01*
G37*
G36*
X1786225Y-1663440D02*
G01*
X1853154Y-1663440D01*
X1853154Y-1649659D01*
X1786225Y-1649659D01*
G37*
G36*
X1786225Y-1631940D02*
G01*
X1853154Y-1631940D01*
X1853154Y-1618159D01*
X1786225Y-1618159D01*
G37*
G36*
X1786225Y-1568910D02*
G01*
X1853154Y-1568910D01*
X1853154Y-1555129D01*
X1786225Y-1555129D01*
G37*
G36*
X1786225Y-1537420D02*
G01*
X1853154Y-1537420D01*
X1853154Y-1523640D01*
X1786225Y-1523640D01*
G37*
G36*
X1786225Y-1505920D02*
G01*
X1853154Y-1505920D01*
X1853154Y-1492140D01*
X1786225Y-1492140D01*
G37*
G36*
X1786225Y-1474420D02*
G01*
X1853154Y-1474420D01*
X1853154Y-1460639D01*
X1786225Y-1460639D01*
G37*
G36*
X1786225Y-1379929D02*
G01*
X1853154Y-1379929D01*
X1853154Y-1366149D01*
X1786225Y-1366149D01*
G37*
G36*
X1786225Y-1411430D02*
G01*
X1853154Y-1411430D01*
X1853154Y-1397649D01*
X1786225Y-1397649D01*
G37*
G36*
X1786225Y-1316940D02*
G01*
X1853154Y-1316940D01*
X1853154Y-1303159D01*
X1786225Y-1303159D01*
G37*
G36*
X1786225Y-1253949D02*
G01*
X1853154Y-1253949D01*
X1853154Y-1240169D01*
X1786225Y-1240169D01*
G37*
G36*
X1786225Y-1222449D02*
G01*
X1853154Y-1222449D01*
X1853154Y-1208670D01*
X1786225Y-1208670D01*
G37*
G36*
X1786225Y-1127970D02*
G01*
X1853154Y-1127970D01*
X1853154Y-1114189D01*
X1786225Y-1114189D01*
G37*
G36*
X1786225Y-1159459D02*
G01*
X1853154Y-1159459D01*
X1853154Y-1145680D01*
X1786225Y-1145680D01*
G37*
G36*
X1786225Y-1064970D02*
G01*
X1853154Y-1064970D01*
X1853154Y-1051190D01*
X1786225Y-1051190D01*
G37*
G36*
X1786225Y-1096469D02*
G01*
X1853154Y-1096469D01*
X1853154Y-1082689D01*
X1786225Y-1082689D01*
G37*
G36*
X1786225Y-1001979D02*
G01*
X1853154Y-1001979D01*
X1853154Y-988200D01*
X1786225Y-988200D01*
G37*
G36*
X1786225Y-970490D02*
G01*
X1853154Y-970490D01*
X1853154Y-956709D01*
X1786225Y-956709D01*
G37*
G36*
X1786225Y-938989D02*
G01*
X1853154Y-938989D01*
X1853154Y-925210D01*
X1786225Y-925210D01*
G37*
G36*
X1786225Y-907489D02*
G01*
X1853154Y-907489D01*
X1853154Y-893710D01*
X1786225Y-893710D01*
G37*
G36*
X1786225Y-813009D02*
G01*
X1853154Y-813009D01*
X1853154Y-799229D01*
X1786225Y-799229D01*
G37*
G36*
X1786225Y-844499D02*
G01*
X1853154Y-844499D01*
X1853154Y-830720D01*
X1786225Y-830720D01*
G37*
G36*
X1786225Y-750010D02*
G01*
X1853154Y-750010D01*
X1853154Y-736230D01*
X1786225Y-736230D01*
G37*
G36*
X1786225Y-781509D02*
G01*
X1853154Y-781509D01*
X1853154Y-767729D01*
X1786225Y-767729D01*
G37*
G36*
X1786225Y-687020D02*
G01*
X1853154Y-687020D01*
X1853154Y-673240D01*
X1786225Y-673240D01*
G37*
G36*
X1786225Y-655529D02*
G01*
X1853154Y-655529D01*
X1853154Y-641750D01*
X1786225Y-641750D01*
G37*
G36*
X1601184Y-1852420D02*
G01*
X1668113Y-1852420D01*
X1668113Y-1838640D01*
X1601184Y-1838640D01*
G37*
G36*
X1601184Y-1883910D02*
G01*
X1668113Y-1883910D01*
X1668113Y-1870129D01*
X1601184Y-1870129D01*
G37*
G36*
X1601184Y-1789420D02*
G01*
X1668113Y-1789420D01*
X1668113Y-1775639D01*
X1601184Y-1775639D01*
G37*
G36*
X1601184Y-1820920D02*
G01*
X1668113Y-1820920D01*
X1668113Y-1807140D01*
X1601184Y-1807140D01*
G37*
G36*
X1601184Y-1726430D02*
G01*
X1668113Y-1726430D01*
X1668113Y-1712649D01*
X1601184Y-1712649D01*
G37*
G36*
X1601184Y-1694929D02*
G01*
X1668113Y-1694929D01*
X1668113Y-1681149D01*
X1601184Y-1681149D01*
G37*
G36*
X1601184Y-1663440D02*
G01*
X1668113Y-1663440D01*
X1668113Y-1649659D01*
X1601184Y-1649659D01*
G37*
G36*
X1601184Y-1631940D02*
G01*
X1668113Y-1631940D01*
X1668113Y-1618159D01*
X1601184Y-1618159D01*
G37*
G36*
X1601184Y-1568910D02*
G01*
X1668113Y-1568910D01*
X1668113Y-1555129D01*
X1601184Y-1555129D01*
G37*
G36*
X1601184Y-1537420D02*
G01*
X1668113Y-1537420D01*
X1668113Y-1523640D01*
X1601184Y-1523640D01*
G37*
G36*
X1601184Y-1474420D02*
G01*
X1668113Y-1474420D01*
X1668113Y-1460639D01*
X1601184Y-1460639D01*
G37*
G36*
X1601184Y-1505920D02*
G01*
X1668113Y-1505920D01*
X1668113Y-1492140D01*
X1601184Y-1492140D01*
G37*
G36*
X1601184Y-1379929D02*
G01*
X1668113Y-1379929D01*
X1668113Y-1366149D01*
X1601184Y-1366149D01*
G37*
G36*
X1601184Y-1411430D02*
G01*
X1668113Y-1411430D01*
X1668113Y-1397649D01*
X1601184Y-1397649D01*
G37*
G36*
X1601184Y-1316940D02*
G01*
X1668113Y-1316940D01*
X1668113Y-1303159D01*
X1601184Y-1303159D01*
G37*
G36*
X1601184Y-1222449D02*
G01*
X1668113Y-1222449D01*
X1668113Y-1208670D01*
X1601184Y-1208670D01*
G37*
G36*
X1601184Y-1253949D02*
G01*
X1668113Y-1253949D01*
X1668113Y-1240169D01*
X1601184Y-1240169D01*
G37*
G36*
X1601184Y-1127970D02*
G01*
X1668113Y-1127970D01*
X1668113Y-1114189D01*
X1601184Y-1114189D01*
G37*
G36*
X1601184Y-1159459D02*
G01*
X1668113Y-1159459D01*
X1668113Y-1145680D01*
X1601184Y-1145680D01*
G37*
G36*
X1601184Y-1096469D02*
G01*
X1668113Y-1096469D01*
X1668113Y-1082689D01*
X1601184Y-1082689D01*
G37*
G36*
X1601184Y-1064970D02*
G01*
X1668113Y-1064970D01*
X1668113Y-1051190D01*
X1601184Y-1051190D01*
G37*
G36*
X1601184Y-1001979D02*
G01*
X1668113Y-1001979D01*
X1668113Y-988200D01*
X1601184Y-988200D01*
G37*
G36*
X1601184Y-970490D02*
G01*
X1668113Y-970490D01*
X1668113Y-956709D01*
X1601184Y-956709D01*
G37*
G36*
X1601184Y-938989D02*
G01*
X1668113Y-938989D01*
X1668113Y-925210D01*
X1601184Y-925210D01*
G37*
G36*
X1601184Y-907489D02*
G01*
X1668113Y-907489D01*
X1668113Y-893710D01*
X1601184Y-893710D01*
G37*
G36*
X1601184Y-813009D02*
G01*
X1668113Y-813009D01*
X1668113Y-799229D01*
X1601184Y-799229D01*
G37*
G36*
X1601184Y-844499D02*
G01*
X1668113Y-844499D01*
X1668113Y-830720D01*
X1601184Y-830720D01*
G37*
G36*
X1601184Y-750010D02*
G01*
X1668113Y-750010D01*
X1668113Y-736230D01*
X1601184Y-736230D01*
G37*
G36*
X1601184Y-781509D02*
G01*
X1668113Y-781509D01*
X1668113Y-767729D01*
X1601184Y-767729D01*
G37*
G36*
X1601184Y-655529D02*
G01*
X1668113Y-655529D01*
X1668113Y-641750D01*
X1601184Y-641750D01*
G37*
G36*
X1601184Y-687020D02*
G01*
X1668113Y-687020D01*
X1668113Y-673240D01*
X1601184Y-673240D01*
G37*
G36*
X1786225Y-1757929D02*
G01*
X1853154Y-1757929D01*
X1853154Y-1744149D01*
X1786225Y-1744149D01*
G37*
G36*
X1786225Y-1442929D02*
G01*
X1853154Y-1442929D01*
X1853154Y-1429149D01*
X1786225Y-1429149D01*
G37*
G36*
X1786225Y-1600450D02*
G01*
X1853154Y-1600450D01*
X1853154Y-1586669D01*
X1786225Y-1586669D01*
G37*
G36*
X1786225Y-1348440D02*
G01*
X1853154Y-1348440D01*
X1853154Y-1334659D01*
X1786225Y-1334659D01*
G37*
G36*
X1786225Y-1285450D02*
G01*
X1853154Y-1285450D01*
X1853154Y-1271669D01*
X1786225Y-1271669D01*
G37*
G36*
X1786225Y-1190959D02*
G01*
X1853154Y-1190959D01*
X1853154Y-1177179D01*
X1786225Y-1177179D01*
G37*
G36*
X1786225Y-1033479D02*
G01*
X1853154Y-1033479D01*
X1853154Y-1019699D01*
X1786225Y-1019699D01*
G37*
G36*
X1786225Y-875999D02*
G01*
X1853154Y-875999D01*
X1853154Y-862220D01*
X1786225Y-862220D01*
G37*
G36*
X1786225Y-718520D02*
G01*
X1853154Y-718520D01*
X1853154Y-704740D01*
X1786225Y-704740D01*
G37*
G36*
X1601184Y-1757929D02*
G01*
X1668113Y-1757929D01*
X1668113Y-1744149D01*
X1601184Y-1744149D01*
G37*
G36*
X1601184Y-1442929D02*
G01*
X1668113Y-1442929D01*
X1668113Y-1429149D01*
X1601184Y-1429149D01*
G37*
G36*
X1601184Y-1600450D02*
G01*
X1668113Y-1600450D01*
X1668113Y-1586669D01*
X1601184Y-1586669D01*
G37*
G36*
X1601184Y-1348440D02*
G01*
X1668113Y-1348440D01*
X1668113Y-1334659D01*
X1601184Y-1334659D01*
G37*
G36*
X1601184Y-1285450D02*
G01*
X1668113Y-1285450D01*
X1668113Y-1271669D01*
X1601184Y-1271669D01*
G37*
G36*
X1601184Y-1190959D02*
G01*
X1668113Y-1190959D01*
X1668113Y-1177179D01*
X1601184Y-1177179D01*
G37*
G36*
X1601184Y-1033479D02*
G01*
X1668113Y-1033479D01*
X1668113Y-1019699D01*
X1601184Y-1019699D01*
G37*
G36*
X1601184Y-875999D02*
G01*
X1668113Y-875999D01*
X1668113Y-862220D01*
X1601184Y-862220D01*
G37*
G36*
X1601184Y-718520D02*
G01*
X1668113Y-718520D01*
X1668113Y-704740D01*
X1601184Y-704740D01*
G37*
G36*
X121494Y-2104380D02*
G01*
X188423Y-2104380D01*
X188423Y-2090599D01*
X121494Y-2090599D01*
G37*
G36*
X121494Y-2072890D02*
G01*
X188423Y-2072890D01*
X188423Y-2059109D01*
X121494Y-2059109D01*
G37*
G36*
X306534Y-2072890D02*
G01*
X373464Y-2072890D01*
X373464Y-2059109D01*
X306534Y-2059109D01*
G37*
G36*
X121494Y-2041390D02*
G01*
X188423Y-2041390D01*
X188423Y-2027609D01*
X121494Y-2027609D01*
G37*
G36*
X306534Y-2041390D02*
G01*
X373464Y-2041390D01*
X373464Y-2027609D01*
X306534Y-2027609D01*
G37*
G36*
X121494Y-2009890D02*
G01*
X188423Y-2009890D01*
X188423Y-1996109D01*
X121494Y-1996109D01*
G37*
G36*
X306534Y-2104380D02*
G01*
X373464Y-2104380D01*
X373464Y-2090599D01*
X306534Y-2090599D01*
G37*
G36*
X306534Y-2009890D02*
G01*
X373464Y-2009890D01*
X373464Y-1996109D01*
X306534Y-1996109D01*
G37*
G36*
X306534Y-1978400D02*
G01*
X373464Y-1978400D01*
X373464Y-1964620D01*
X306534Y-1964620D01*
G37*
G36*
X121494Y-1978400D02*
G01*
X188423Y-1978400D01*
X188423Y-1964620D01*
X121494Y-1964620D01*
G37*
G36*
X306534Y-1253949D02*
G01*
X373464Y-1253949D01*
X373464Y-1240169D01*
X306534Y-1240169D01*
G37*
G36*
X306534Y-1883870D02*
G01*
X373464Y-1883870D01*
X373464Y-1870090D01*
X306534Y-1870090D01*
G37*
G36*
X306534Y-1316940D02*
G01*
X373464Y-1316940D01*
X373464Y-1303159D01*
X306534Y-1303159D01*
G37*
G36*
X306534Y-1379929D02*
G01*
X373464Y-1379929D01*
X373464Y-1366149D01*
X306534Y-1366149D01*
G37*
G36*
X306534Y-2135880D02*
G01*
X373464Y-2135880D01*
X373464Y-2122100D01*
X306534Y-2122100D01*
G37*
G36*
X121494Y-2135880D02*
G01*
X188423Y-2135880D01*
X188423Y-2122100D01*
X121494Y-2122100D01*
G37*
G36*
X306534Y-2167379D02*
G01*
X373464Y-2167379D01*
X373464Y-2153600D01*
X306534Y-2153600D01*
G37*
G36*
X121494Y-2167379D02*
G01*
X188423Y-2167379D01*
X188423Y-2153600D01*
X121494Y-2153600D01*
G37*
G36*
X306534Y-2198870D02*
G01*
X373464Y-2198870D01*
X373464Y-2185090D01*
X306534Y-2185090D01*
G37*
G36*
X121494Y-2198870D02*
G01*
X188423Y-2198870D01*
X188423Y-2185090D01*
X121494Y-2185090D01*
G37*
G36*
X306534Y-1757890D02*
G01*
X373464Y-1757890D01*
X373464Y-1744109D01*
X306534Y-1744109D01*
G37*
G36*
X306534Y-1127970D02*
G01*
X373464Y-1127970D01*
X373464Y-1114189D01*
X306534Y-1114189D01*
G37*
G36*
X121494Y-1127970D02*
G01*
X188423Y-1127970D01*
X188423Y-1114189D01*
X121494Y-1114189D01*
G37*
G36*
X306534Y-1411430D02*
G01*
X373464Y-1411430D01*
X373464Y-1397649D01*
X306534Y-1397649D01*
G37*
G36*
X306534Y-1694890D02*
G01*
X373464Y-1694890D01*
X373464Y-1681109D01*
X306534Y-1681109D01*
G37*
G36*
X121494Y-1694890D02*
G01*
X188423Y-1694890D01*
X188423Y-1681109D01*
X121494Y-1681109D01*
G37*
G36*
X121494Y-1411430D02*
G01*
X188423Y-1411430D01*
X188423Y-1397649D01*
X121494Y-1397649D01*
G37*
G36*
X306534Y-1348440D02*
G01*
X373464Y-1348440D01*
X373464Y-1334659D01*
X306534Y-1334659D01*
G37*
G36*
X121494Y-1348440D02*
G01*
X188423Y-1348440D01*
X188423Y-1334659D01*
X121494Y-1334659D01*
G37*
G36*
X121494Y-1033479D02*
G01*
X188423Y-1033479D01*
X188423Y-1019699D01*
X121494Y-1019699D01*
G37*
G36*
X306534Y-1064970D02*
G01*
X373464Y-1064970D01*
X373464Y-1051190D01*
X306534Y-1051190D01*
G37*
G36*
X121494Y-1379929D02*
G01*
X188423Y-1379929D01*
X188423Y-1366149D01*
X121494Y-1366149D01*
G37*
G36*
X121494Y-1064970D02*
G01*
X188423Y-1064970D01*
X188423Y-1051190D01*
X121494Y-1051190D01*
G37*
G36*
X121494Y-1442929D02*
G01*
X188423Y-1442929D01*
X188423Y-1429149D01*
X121494Y-1429149D01*
G37*
G36*
X306534Y-1033479D02*
G01*
X373464Y-1033479D01*
X373464Y-1019699D01*
X306534Y-1019699D01*
G37*
G36*
X306534Y-1285450D02*
G01*
X373464Y-1285450D01*
X373464Y-1271669D01*
X306534Y-1271669D01*
G37*
G36*
X121494Y-1631900D02*
G01*
X188423Y-1631900D01*
X188423Y-1618119D01*
X121494Y-1618119D01*
G37*
G36*
X121494Y-1663400D02*
G01*
X188423Y-1663400D01*
X188423Y-1649620D01*
X121494Y-1649620D01*
G37*
G36*
X121494Y-1883870D02*
G01*
X188423Y-1883870D01*
X188423Y-1870090D01*
X121494Y-1870090D01*
G37*
G36*
X121494Y-1537409D02*
G01*
X188423Y-1537409D01*
X188423Y-1523629D01*
X121494Y-1523629D01*
G37*
G36*
X121494Y-1316940D02*
G01*
X188423Y-1316940D01*
X188423Y-1303159D01*
X121494Y-1303159D01*
G37*
G36*
X121494Y-1726390D02*
G01*
X188423Y-1726390D01*
X188423Y-1712609D01*
X121494Y-1712609D01*
G37*
G36*
X121494Y-1852379D02*
G01*
X188423Y-1852379D01*
X188423Y-1838600D01*
X121494Y-1838600D01*
G37*
G36*
X121494Y-1600410D02*
G01*
X188423Y-1600410D01*
X188423Y-1586630D01*
X121494Y-1586630D01*
G37*
G36*
X121494Y-1505920D02*
G01*
X188423Y-1505920D01*
X188423Y-1492140D01*
X121494Y-1492140D01*
G37*
G36*
X121494Y-1253949D02*
G01*
X188423Y-1253949D01*
X188423Y-1240169D01*
X121494Y-1240169D01*
G37*
G36*
X121494Y-1568910D02*
G01*
X188423Y-1568910D01*
X188423Y-1555129D01*
X121494Y-1555129D01*
G37*
G36*
X121494Y-1757890D02*
G01*
X188423Y-1757890D01*
X188423Y-1744109D01*
X121494Y-1744109D01*
G37*
G36*
X121494Y-1285450D02*
G01*
X188423Y-1285450D01*
X188423Y-1271669D01*
X121494Y-1271669D01*
G37*
G36*
X121494Y-970490D02*
G01*
X188423Y-970490D01*
X188423Y-956709D01*
X121494Y-956709D01*
G37*
G36*
X121494Y-1001979D02*
G01*
X188423Y-1001979D01*
X188423Y-988200D01*
X121494Y-988200D01*
G37*
G36*
X121494Y-1096469D02*
G01*
X188423Y-1096469D01*
X188423Y-1082689D01*
X121494Y-1082689D01*
G37*
G36*
X121494Y-1915410D02*
G01*
X188423Y-1915410D01*
X188423Y-1901630D01*
X121494Y-1901630D01*
G37*
G36*
X121494Y-1946900D02*
G01*
X188423Y-1946900D01*
X188423Y-1933119D01*
X121494Y-1933119D01*
G37*
G36*
X306534Y-1915410D02*
G01*
X373464Y-1915410D01*
X373464Y-1901630D01*
X306534Y-1901630D01*
G37*
G36*
X306534Y-1946900D02*
G01*
X373464Y-1946900D01*
X373464Y-1933119D01*
X306534Y-1933119D01*
G37*
G36*
X306534Y-1001979D02*
G01*
X373464Y-1001979D01*
X373464Y-988200D01*
X306534Y-988200D01*
G37*
G36*
X121494Y-1789380D02*
G01*
X188423Y-1789380D01*
X188423Y-1775599D01*
X121494Y-1775599D01*
G37*
G36*
X121494Y-1820880D02*
G01*
X188423Y-1820880D01*
X188423Y-1807100D01*
X121494Y-1807100D01*
G37*
G36*
X306534Y-1442929D02*
G01*
X373464Y-1442929D01*
X373464Y-1429149D01*
X306534Y-1429149D01*
G37*
G36*
X306534Y-1474420D02*
G01*
X373464Y-1474420D01*
X373464Y-1460639D01*
X306534Y-1460639D01*
G37*
G36*
X121494Y-1474420D02*
G01*
X188423Y-1474420D01*
X188423Y-1460639D01*
X121494Y-1460639D01*
G37*
G36*
X306534Y-970490D02*
G01*
X373464Y-970490D01*
X373464Y-956709D01*
X306534Y-956709D01*
G37*
G36*
X121494Y-1222449D02*
G01*
X188423Y-1222449D01*
X188423Y-1208670D01*
X121494Y-1208670D01*
G37*
G36*
X306534Y-1159459D02*
G01*
X373464Y-1159459D01*
X373464Y-1145680D01*
X306534Y-1145680D01*
G37*
G36*
X306534Y-1190959D02*
G01*
X373464Y-1190959D01*
X373464Y-1177179D01*
X306534Y-1177179D01*
G37*
G36*
X306534Y-1096469D02*
G01*
X373464Y-1096469D01*
X373464Y-1082689D01*
X306534Y-1082689D01*
G37*
G36*
X121494Y-1159459D02*
G01*
X188423Y-1159459D01*
X188423Y-1145680D01*
X121494Y-1145680D01*
G37*
G36*
X121494Y-1190959D02*
G01*
X188423Y-1190959D01*
X188423Y-1177179D01*
X121494Y-1177179D01*
G37*
G36*
X306534Y-1222449D02*
G01*
X373464Y-1222449D01*
X373464Y-1208670D01*
X306534Y-1208670D01*
G37*
G36*
X306534Y-1568910D02*
G01*
X373464Y-1568910D01*
X373464Y-1555129D01*
X306534Y-1555129D01*
G37*
G36*
X306534Y-1663400D02*
G01*
X373464Y-1663400D01*
X373464Y-1649620D01*
X306534Y-1649620D01*
G37*
G36*
X306534Y-1600410D02*
G01*
X373464Y-1600410D01*
X373464Y-1586630D01*
X306534Y-1586630D01*
G37*
G36*
X306534Y-1820880D02*
G01*
X373464Y-1820880D01*
X373464Y-1807100D01*
X306534Y-1807100D01*
G37*
G36*
X306534Y-1537409D02*
G01*
X373464Y-1537409D01*
X373464Y-1523629D01*
X306534Y-1523629D01*
G37*
G36*
X306534Y-1631900D02*
G01*
X373464Y-1631900D01*
X373464Y-1618119D01*
X306534Y-1618119D01*
G37*
G36*
X306534Y-1852379D02*
G01*
X373464Y-1852379D01*
X373464Y-1838600D01*
X306534Y-1838600D01*
G37*
G36*
X306534Y-1505920D02*
G01*
X373464Y-1505920D01*
X373464Y-1492140D01*
X306534Y-1492140D01*
G37*
G36*
X306534Y-1789380D02*
G01*
X373464Y-1789380D01*
X373464Y-1775599D01*
X306534Y-1775599D01*
G37*
G36*
X306534Y-1726390D02*
G01*
X373464Y-1726390D01*
X373464Y-1712609D01*
X306534Y-1712609D01*
G37*
G36*
X306534Y-938989D02*
G01*
X373464Y-938989D01*
X373464Y-925210D01*
X306534Y-925210D01*
G37*
G36*
X306534Y-813009D02*
G01*
X373464Y-813009D01*
X373464Y-799229D01*
X306534Y-799229D01*
G37*
G36*
X121494Y-813009D02*
G01*
X188423Y-813009D01*
X188423Y-799229D01*
X121494Y-799229D01*
G37*
G36*
X121494Y-718520D02*
G01*
X188423Y-718520D01*
X188423Y-704740D01*
X121494Y-704740D01*
G37*
G36*
X306534Y-750010D02*
G01*
X373464Y-750010D01*
X373464Y-736230D01*
X306534Y-736230D01*
G37*
G36*
X121494Y-750010D02*
G01*
X188423Y-750010D01*
X188423Y-736230D01*
X121494Y-736230D01*
G37*
G36*
X306534Y-718520D02*
G01*
X373464Y-718520D01*
X373464Y-704740D01*
X306534Y-704740D01*
G37*
G36*
X121494Y-938989D02*
G01*
X188423Y-938989D01*
X188423Y-925210D01*
X121494Y-925210D01*
G37*
G36*
X121494Y-655529D02*
G01*
X188423Y-655529D01*
X188423Y-641750D01*
X121494Y-641750D01*
G37*
G36*
X121494Y-687020D02*
G01*
X188423Y-687020D01*
X188423Y-673240D01*
X121494Y-673240D01*
G37*
G36*
X121494Y-781509D02*
G01*
X188423Y-781509D01*
X188423Y-767729D01*
X121494Y-767729D01*
G37*
G36*
X306534Y-687020D02*
G01*
X373464Y-687020D01*
X373464Y-673240D01*
X306534Y-673240D01*
G37*
G36*
X306534Y-655529D02*
G01*
X373464Y-655529D01*
X373464Y-641750D01*
X306534Y-641750D01*
G37*
G36*
X121494Y-907489D02*
G01*
X188423Y-907489D01*
X188423Y-893710D01*
X121494Y-893710D01*
G37*
G36*
X306534Y-844499D02*
G01*
X373464Y-844499D01*
X373464Y-830720D01*
X306534Y-830720D01*
G37*
G36*
X306534Y-875999D02*
G01*
X373464Y-875999D01*
X373464Y-862220D01*
X306534Y-862220D01*
G37*
G36*
X306534Y-781509D02*
G01*
X373464Y-781509D01*
X373464Y-767729D01*
X306534Y-767729D01*
G37*
G36*
X121494Y-844499D02*
G01*
X188423Y-844499D01*
X188423Y-830720D01*
X121494Y-830720D01*
G37*
G36*
X121494Y-875999D02*
G01*
X188423Y-875999D01*
X188423Y-862220D01*
X121494Y-862220D01*
G37*
G36*
X306534Y-907489D02*
G01*
X373464Y-907489D01*
X373464Y-893710D01*
X306534Y-893710D01*
G37*
M02*
