G04 Layer: BottomLayer*
G04 EasyEDA v6.4.31, 2022-04-07 10:18:28*
G04 166d8731ec0749d1b06731797b2d177b,10*
G04 Gerber Generator version 0.2*
G04 Scale: 100 percent, Rotated: No, Reflected: No *
G04 Dimensions in inches *
G04 leading zeros omitted , absolute positions ,3 integer and 6 decimal *
%FSLAX36Y36*%
%MOIN*%

%ADD10C,0.0100*%
%ADD12C,0.0150*%
%ADD13C,0.0600*%
%ADD14C,0.0200*%
%ADD15C,0.0300*%
%ADD22C,0.0240*%
%ADD23C,0.0394*%
%ADD56C,0.1496*%
%ADD57C,0.0512*%
%ADD58C,0.0354*%
%ADD59C,0.0620*%
%ADD60R,0.0620X0.0620*%
%ADD61C,0.1968*%

%LPD*%
G36*
X1596720Y-1640160D02*
G01*
X1595160Y-1639740D01*
X1593899Y-1638720D01*
X1591519Y-1635840D01*
X1588100Y-1632800D01*
X1584280Y-1630300D01*
X1580700Y-1628700D01*
X1579460Y-1627820D01*
X1578620Y-1626560D01*
X1578340Y-1625060D01*
X1578620Y-1623560D01*
X1579460Y-1622280D01*
X1580700Y-1621399D01*
X1584280Y-1619800D01*
X1588100Y-1617320D01*
X1591519Y-1614280D01*
X1593899Y-1611380D01*
X1595160Y-1610380D01*
X1596720Y-1609940D01*
X1598320Y-1610160D01*
X1598920Y-1610360D01*
X1601420Y-1610660D01*
X1665800Y-1610660D01*
X1667340Y-1610960D01*
X1668620Y-1611819D01*
X1669500Y-1613120D01*
X1669800Y-1614660D01*
X1669800Y-1635460D01*
X1669500Y-1637000D01*
X1668620Y-1638280D01*
X1667340Y-1639160D01*
X1665800Y-1639460D01*
X1601420Y-1639460D01*
X1598920Y-1639740D01*
X1598320Y-1639960D01*
G37*

%LPD*%
G36*
X1728779Y-1903520D02*
G01*
X1727380Y-1903100D01*
X1726220Y-1902200D01*
X1725460Y-1900960D01*
X1725200Y-1899540D01*
X1725200Y-1117960D01*
X1725500Y-1116420D01*
X1726380Y-1115120D01*
X1733220Y-1108280D01*
X1734360Y-1107480D01*
X1735700Y-1107120D01*
X1738860Y-1106840D01*
X1742580Y-1105840D01*
X1746100Y-1104220D01*
X1749259Y-1102000D01*
X1752000Y-1099260D01*
X1754220Y-1096100D01*
X1755840Y-1092580D01*
X1756840Y-1088860D01*
X1757180Y-1085000D01*
X1756840Y-1081140D01*
X1755840Y-1077420D01*
X1754220Y-1073900D01*
X1752000Y-1070740D01*
X1749259Y-1068000D01*
X1746100Y-1065780D01*
X1742580Y-1064160D01*
X1738860Y-1063160D01*
X1735000Y-1062820D01*
X1731140Y-1063160D01*
X1727420Y-1064160D01*
X1723899Y-1065780D01*
X1720740Y-1068000D01*
X1718000Y-1070740D01*
X1715780Y-1073900D01*
X1714160Y-1077420D01*
X1713160Y-1081140D01*
X1712880Y-1084300D01*
X1712520Y-1085640D01*
X1711720Y-1086780D01*
X1707020Y-1091480D01*
X1705740Y-1092340D01*
X1704199Y-1092640D01*
X1702660Y-1092340D01*
X1701380Y-1091480D01*
X1700500Y-1090180D01*
X1700200Y-1088640D01*
X1700200Y-1072960D01*
X1700500Y-1071420D01*
X1701380Y-1070120D01*
X1728220Y-1043280D01*
X1729360Y-1042480D01*
X1730700Y-1042120D01*
X1733860Y-1041840D01*
X1737580Y-1040840D01*
X1741100Y-1039220D01*
X1744259Y-1037000D01*
X1747000Y-1034260D01*
X1749220Y-1031100D01*
X1750840Y-1027580D01*
X1751840Y-1023860D01*
X1752180Y-1020000D01*
X1751840Y-1016140D01*
X1750840Y-1012420D01*
X1749220Y-1008900D01*
X1747000Y-1005740D01*
X1744259Y-1003000D01*
X1741100Y-1000780D01*
X1737580Y-999160D01*
X1733860Y-998160D01*
X1727920Y-997660D01*
X1726500Y-996820D01*
X1725540Y-995480D01*
X1725200Y-993880D01*
X1725200Y-707720D01*
X1725500Y-706180D01*
X1726380Y-704880D01*
X1727000Y-704260D01*
X1729220Y-701100D01*
X1730840Y-697580D01*
X1731840Y-693860D01*
X1732180Y-690000D01*
X1731840Y-686140D01*
X1730840Y-682420D01*
X1729220Y-678900D01*
X1727000Y-675740D01*
X1724259Y-673000D01*
X1721100Y-670780D01*
X1717580Y-669160D01*
X1713860Y-668160D01*
X1710000Y-667820D01*
X1706140Y-668160D01*
X1702420Y-669160D01*
X1698899Y-670780D01*
X1695740Y-673000D01*
X1693000Y-675740D01*
X1690780Y-678900D01*
X1689160Y-682420D01*
X1688160Y-686140D01*
X1687820Y-690000D01*
X1688160Y-693860D01*
X1689160Y-697580D01*
X1690780Y-701100D01*
X1693000Y-704260D01*
X1693620Y-704880D01*
X1694500Y-706180D01*
X1694800Y-707720D01*
X1694800Y-987039D01*
X1694500Y-988580D01*
X1693620Y-989880D01*
X1685140Y-998360D01*
X1683839Y-999220D01*
X1682320Y-999539D01*
X1680780Y-999220D01*
X1679480Y-998360D01*
X1678620Y-997060D01*
X1678320Y-995540D01*
X1678320Y-988420D01*
X1678040Y-985939D01*
X1677280Y-983780D01*
X1675820Y-981480D01*
X1675280Y-980080D01*
X1675280Y-978600D01*
X1675820Y-977220D01*
X1677280Y-974900D01*
X1678040Y-972760D01*
X1678320Y-970260D01*
X1678320Y-956940D01*
X1678040Y-954440D01*
X1677280Y-952300D01*
X1675820Y-949960D01*
X1675280Y-948580D01*
X1675280Y-947099D01*
X1675820Y-945720D01*
X1677280Y-943400D01*
X1678040Y-941260D01*
X1678320Y-938760D01*
X1678320Y-925440D01*
X1678040Y-922940D01*
X1677280Y-920800D01*
X1675820Y-918460D01*
X1675280Y-917080D01*
X1675280Y-915600D01*
X1675820Y-914220D01*
X1677280Y-911900D01*
X1678040Y-909760D01*
X1678320Y-907260D01*
X1678320Y-893940D01*
X1678040Y-891440D01*
X1677280Y-889300D01*
X1675820Y-886979D01*
X1675280Y-885600D01*
X1675280Y-884100D01*
X1675820Y-882720D01*
X1677280Y-880420D01*
X1678040Y-878259D01*
X1678320Y-875780D01*
X1678320Y-862440D01*
X1678040Y-859960D01*
X1677280Y-857800D01*
X1675820Y-855480D01*
X1675280Y-854100D01*
X1675280Y-852600D01*
X1675820Y-851220D01*
X1677280Y-848920D01*
X1678040Y-846760D01*
X1678320Y-844280D01*
X1678320Y-830939D01*
X1678040Y-828460D01*
X1677280Y-826300D01*
X1676060Y-824380D01*
X1674460Y-822760D01*
X1672520Y-821560D01*
X1670380Y-820800D01*
X1667880Y-820520D01*
X1601420Y-820520D01*
X1598920Y-820800D01*
X1596780Y-821560D01*
X1594840Y-822760D01*
X1593240Y-824380D01*
X1592020Y-826300D01*
X1591260Y-828460D01*
X1590980Y-830939D01*
X1590980Y-844080D01*
X1590700Y-845580D01*
X1589860Y-846860D01*
X1588600Y-847740D01*
X1587100Y-848080D01*
X1585600Y-847840D01*
X1584280Y-847039D01*
X1581500Y-844479D01*
X1580540Y-843139D01*
X1580200Y-841540D01*
X1580200Y-600200D01*
X1579880Y-597040D01*
X1579019Y-594200D01*
X1577620Y-591560D01*
X1575600Y-589120D01*
X1545880Y-559400D01*
X1543440Y-557380D01*
X1540800Y-555980D01*
X1537960Y-555120D01*
X1534800Y-554800D01*
X1526360Y-554800D01*
X1524820Y-554500D01*
X1523520Y-553620D01*
X1522660Y-552340D01*
X1522360Y-550800D01*
X1522660Y-549260D01*
X1523520Y-547980D01*
X1630600Y-440880D01*
X1632620Y-438440D01*
X1634019Y-435800D01*
X1634880Y-432960D01*
X1635200Y-429799D01*
X1635200Y-400200D01*
X1635500Y-398660D01*
X1636380Y-397380D01*
X1637660Y-396500D01*
X1639199Y-396200D01*
X1650780Y-396200D01*
X1653260Y-395920D01*
X1655420Y-395160D01*
X1657340Y-393960D01*
X1658959Y-392340D01*
X1660160Y-390420D01*
X1660920Y-388260D01*
X1661200Y-385780D01*
X1661200Y-324219D01*
X1660920Y-321740D01*
X1660160Y-319580D01*
X1658959Y-317660D01*
X1657340Y-316040D01*
X1655420Y-314840D01*
X1653260Y-314080D01*
X1650780Y-313800D01*
X1589220Y-313800D01*
X1586740Y-314080D01*
X1584580Y-314840D01*
X1582660Y-316040D01*
X1581040Y-317660D01*
X1579840Y-319580D01*
X1579079Y-321740D01*
X1578800Y-324219D01*
X1578800Y-385780D01*
X1579079Y-388260D01*
X1579840Y-390420D01*
X1581040Y-392340D01*
X1582660Y-393960D01*
X1584580Y-395160D01*
X1586740Y-395920D01*
X1589220Y-396200D01*
X1600800Y-396200D01*
X1602340Y-396500D01*
X1603620Y-397380D01*
X1604500Y-398660D01*
X1604800Y-400200D01*
X1604800Y-422040D01*
X1604500Y-423579D01*
X1603620Y-424880D01*
X1504880Y-523620D01*
X1503580Y-524500D01*
X1502040Y-524800D01*
X1297960Y-524800D01*
X1296420Y-524500D01*
X1295120Y-523620D01*
X1148280Y-376780D01*
X1147480Y-375640D01*
X1147120Y-374300D01*
X1146840Y-371140D01*
X1145840Y-367420D01*
X1144220Y-363900D01*
X1142000Y-360740D01*
X1139260Y-358000D01*
X1136100Y-355780D01*
X1132580Y-354159D01*
X1128860Y-353160D01*
X1125000Y-352819D01*
X1121140Y-353160D01*
X1117420Y-354159D01*
X1113900Y-355780D01*
X1110740Y-358000D01*
X1108000Y-360740D01*
X1105780Y-363900D01*
X1104900Y-365820D01*
X1104000Y-367040D01*
X1102700Y-367860D01*
X1101200Y-368120D01*
X1099720Y-367800D01*
X1098440Y-366940D01*
X960879Y-229400D01*
X958439Y-227380D01*
X955800Y-225980D01*
X952960Y-225120D01*
X949800Y-224800D01*
X872960Y-224800D01*
X871420Y-224500D01*
X870120Y-223619D01*
X867740Y-221240D01*
X866860Y-219940D01*
X866560Y-218400D01*
X866860Y-216880D01*
X867740Y-215580D01*
X869020Y-214720D01*
X870560Y-214400D01*
X871220Y-214400D01*
X876180Y-213720D01*
X880980Y-212340D01*
X885540Y-210300D01*
X889760Y-207659D01*
X893580Y-204460D01*
X896919Y-200740D01*
X899720Y-196600D01*
X901900Y-192120D01*
X903460Y-187360D01*
X904320Y-182460D01*
X904500Y-177460D01*
X903980Y-172500D01*
X902760Y-167659D01*
X900900Y-163020D01*
X898400Y-158700D01*
X895320Y-154780D01*
X891740Y-151300D01*
X887700Y-148360D01*
X883280Y-146020D01*
X878600Y-144320D01*
X873300Y-143220D01*
X871840Y-142580D01*
X870740Y-141440D01*
X870180Y-139960D01*
X870240Y-138380D01*
X870900Y-136940D01*
X872060Y-135860D01*
X873560Y-135340D01*
X876180Y-134980D01*
X880980Y-133600D01*
X885540Y-131560D01*
X889760Y-128920D01*
X893580Y-125719D01*
X896919Y-122000D01*
X899720Y-117860D01*
X901900Y-113379D01*
X903460Y-108620D01*
X904160Y-104580D01*
X904740Y-103100D01*
X905860Y-101980D01*
X907320Y-101359D01*
X908900Y-101359D01*
X910360Y-101980D01*
X911460Y-103100D01*
X912039Y-104580D01*
X912760Y-108620D01*
X914300Y-113379D01*
X916480Y-117860D01*
X919280Y-122000D01*
X922620Y-125719D01*
X926440Y-128920D01*
X930680Y-131560D01*
X935240Y-133600D01*
X940040Y-134980D01*
X944980Y-135660D01*
X949960Y-135660D01*
X954920Y-134980D01*
X959720Y-133600D01*
X964280Y-131560D01*
X968500Y-128920D01*
X972320Y-125719D01*
X975660Y-122000D01*
X978460Y-117860D01*
X980639Y-113379D01*
X982200Y-108620D01*
X982900Y-104580D01*
X983480Y-103100D01*
X984599Y-101980D01*
X986060Y-101359D01*
X987640Y-101359D01*
X989100Y-101980D01*
X990200Y-103100D01*
X990780Y-104580D01*
X991500Y-108620D01*
X993040Y-113379D01*
X995220Y-117860D01*
X998020Y-122000D01*
X1001360Y-125719D01*
X1005180Y-128920D01*
X1009419Y-131560D01*
X1013980Y-133600D01*
X1018800Y-134980D01*
X1021280Y-135360D01*
X1022760Y-135900D01*
X1023920Y-136960D01*
X1024580Y-138400D01*
X1024620Y-139980D01*
X1024060Y-141460D01*
X1022960Y-142600D01*
X1021500Y-143220D01*
X1016360Y-144320D01*
X1011660Y-146020D01*
X1007260Y-148360D01*
X1003220Y-151300D01*
X999620Y-154780D01*
X996560Y-158700D01*
X994060Y-163020D01*
X992180Y-167659D01*
X990980Y-172500D01*
X990460Y-177460D01*
X990620Y-182460D01*
X991500Y-187360D01*
X993040Y-192120D01*
X995220Y-196600D01*
X998020Y-200740D01*
X1001360Y-204460D01*
X1005180Y-207659D01*
X1009419Y-210300D01*
X1013980Y-212340D01*
X1018780Y-213720D01*
X1023720Y-214400D01*
X1028700Y-214400D01*
X1033660Y-213720D01*
X1038460Y-212340D01*
X1043020Y-210300D01*
X1047240Y-207659D01*
X1051060Y-204460D01*
X1054400Y-200740D01*
X1057200Y-196600D01*
X1059380Y-192120D01*
X1060940Y-187360D01*
X1061640Y-183320D01*
X1062220Y-181840D01*
X1063340Y-180720D01*
X1064800Y-180100D01*
X1066380Y-180100D01*
X1067840Y-180720D01*
X1068940Y-181840D01*
X1069520Y-183320D01*
X1070240Y-187360D01*
X1071780Y-192120D01*
X1073960Y-196600D01*
X1076760Y-200740D01*
X1080100Y-204460D01*
X1083920Y-207659D01*
X1088160Y-210300D01*
X1092720Y-212340D01*
X1097520Y-213720D01*
X1102460Y-214400D01*
X1107440Y-214400D01*
X1112400Y-213720D01*
X1117200Y-212340D01*
X1121760Y-210300D01*
X1125980Y-207659D01*
X1129800Y-204460D01*
X1133140Y-200740D01*
X1135940Y-196600D01*
X1138120Y-192120D01*
X1139680Y-187360D01*
X1140540Y-182460D01*
X1140720Y-177460D01*
X1140200Y-172500D01*
X1138980Y-167659D01*
X1137120Y-163020D01*
X1134620Y-158700D01*
X1131540Y-154780D01*
X1127960Y-151300D01*
X1123920Y-148360D01*
X1119500Y-146020D01*
X1114820Y-144320D01*
X1109940Y-143280D01*
X1104960Y-142940D01*
X1099980Y-143280D01*
X1095100Y-144320D01*
X1090400Y-146020D01*
X1086000Y-148360D01*
X1081960Y-151300D01*
X1078360Y-154780D01*
X1075300Y-158700D01*
X1072800Y-163020D01*
X1070920Y-167659D01*
X1069720Y-172500D01*
X1069560Y-173980D01*
X1069040Y-175560D01*
X1067940Y-176780D01*
X1066420Y-177460D01*
X1064760Y-177460D01*
X1063240Y-176780D01*
X1062120Y-175560D01*
X1061600Y-173980D01*
X1061460Y-172500D01*
X1060240Y-167659D01*
X1058380Y-163020D01*
X1055880Y-158700D01*
X1052800Y-154780D01*
X1049220Y-151300D01*
X1045180Y-148360D01*
X1040759Y-146020D01*
X1036080Y-144320D01*
X1030780Y-143220D01*
X1029320Y-142580D01*
X1028220Y-141440D01*
X1027660Y-139960D01*
X1027720Y-138380D01*
X1028379Y-136940D01*
X1029539Y-135860D01*
X1031040Y-135340D01*
X1033660Y-134980D01*
X1038460Y-133600D01*
X1043020Y-131560D01*
X1047240Y-128920D01*
X1051060Y-125719D01*
X1054400Y-122000D01*
X1057200Y-117860D01*
X1059380Y-113379D01*
X1060940Y-108620D01*
X1061800Y-103720D01*
X1061980Y-98720D01*
X1061460Y-93760D01*
X1060240Y-88920D01*
X1058380Y-84280D01*
X1055880Y-79960D01*
X1052800Y-76040D01*
X1049220Y-72560D01*
X1045180Y-69620D01*
X1040759Y-67280D01*
X1036080Y-65580D01*
X1031200Y-64540D01*
X1026220Y-64200D01*
X1021240Y-64540D01*
X1016360Y-65580D01*
X1011660Y-67280D01*
X1007260Y-69620D01*
X1003220Y-72560D01*
X999620Y-76040D01*
X996560Y-79960D01*
X994060Y-84280D01*
X992180Y-88920D01*
X990980Y-93760D01*
X990819Y-95239D01*
X990300Y-96820D01*
X989200Y-98040D01*
X987680Y-98720D01*
X986020Y-98720D01*
X984500Y-98040D01*
X983379Y-96820D01*
X982860Y-95239D01*
X982720Y-93760D01*
X981500Y-88920D01*
X979640Y-84280D01*
X977140Y-79960D01*
X974060Y-76040D01*
X970480Y-72560D01*
X966440Y-69620D01*
X962020Y-67280D01*
X957340Y-65580D01*
X952460Y-64540D01*
X947480Y-64200D01*
X942500Y-64540D01*
X937620Y-65580D01*
X932920Y-67280D01*
X928520Y-69620D01*
X924479Y-72560D01*
X920879Y-76040D01*
X917820Y-79960D01*
X915320Y-84280D01*
X913439Y-88920D01*
X912240Y-93760D01*
X912080Y-95239D01*
X911560Y-96820D01*
X910460Y-98040D01*
X908940Y-98720D01*
X907280Y-98720D01*
X905759Y-98040D01*
X904640Y-96820D01*
X904120Y-95239D01*
X903980Y-93760D01*
X902760Y-88920D01*
X900900Y-84280D01*
X898400Y-79960D01*
X895320Y-76040D01*
X891740Y-72560D01*
X887700Y-69620D01*
X883280Y-67280D01*
X878600Y-65580D01*
X873720Y-64540D01*
X868740Y-64200D01*
X863760Y-64540D01*
X858880Y-65580D01*
X854180Y-67280D01*
X849780Y-69620D01*
X845740Y-72560D01*
X842140Y-76040D01*
X839080Y-79960D01*
X836580Y-84280D01*
X834700Y-88920D01*
X833500Y-93760D01*
X833340Y-95239D01*
X832820Y-96820D01*
X831720Y-98040D01*
X830200Y-98720D01*
X828540Y-98720D01*
X827020Y-98040D01*
X825900Y-96820D01*
X825380Y-95239D01*
X825240Y-93760D01*
X824020Y-88920D01*
X822159Y-84280D01*
X819659Y-79960D01*
X816580Y-76040D01*
X813000Y-72560D01*
X808960Y-69620D01*
X804539Y-67280D01*
X799860Y-65580D01*
X794980Y-64540D01*
X790000Y-64200D01*
X785020Y-64540D01*
X780140Y-65580D01*
X775440Y-67280D01*
X771040Y-69620D01*
X767000Y-72560D01*
X763400Y-76040D01*
X760340Y-79960D01*
X757840Y-84280D01*
X755960Y-88920D01*
X754760Y-93760D01*
X754599Y-95239D01*
X754080Y-96820D01*
X752980Y-98040D01*
X751460Y-98720D01*
X749800Y-98720D01*
X748280Y-98040D01*
X747159Y-96820D01*
X746640Y-95239D01*
X746500Y-93760D01*
X745280Y-88920D01*
X743420Y-84280D01*
X740920Y-79960D01*
X737840Y-76040D01*
X734260Y-72560D01*
X730220Y-69620D01*
X725800Y-67280D01*
X721120Y-65580D01*
X716240Y-64540D01*
X711260Y-64200D01*
X706280Y-64540D01*
X701400Y-65580D01*
X696700Y-67280D01*
X692300Y-69620D01*
X688259Y-72560D01*
X684659Y-76040D01*
X681600Y-79960D01*
X679100Y-84280D01*
X677220Y-88920D01*
X676020Y-93760D01*
X675860Y-95239D01*
X675340Y-96820D01*
X674240Y-98040D01*
X672720Y-98720D01*
X671060Y-98720D01*
X669539Y-98040D01*
X668420Y-96820D01*
X667900Y-95239D01*
X667760Y-93760D01*
X666540Y-88920D01*
X664680Y-84280D01*
X662180Y-79960D01*
X659100Y-76040D01*
X655520Y-72560D01*
X651480Y-69620D01*
X647060Y-67280D01*
X642380Y-65580D01*
X637500Y-64540D01*
X632520Y-64200D01*
X627540Y-64540D01*
X622660Y-65580D01*
X617960Y-67280D01*
X613560Y-69620D01*
X609520Y-72560D01*
X605920Y-76040D01*
X602860Y-79960D01*
X600360Y-84280D01*
X598480Y-88920D01*
X597280Y-93760D01*
X597120Y-95239D01*
X596600Y-96820D01*
X595500Y-98040D01*
X593980Y-98720D01*
X592320Y-98720D01*
X590800Y-98040D01*
X589680Y-96820D01*
X589160Y-95239D01*
X589020Y-93760D01*
X587800Y-88920D01*
X585940Y-84280D01*
X583440Y-79960D01*
X580360Y-76040D01*
X576780Y-72560D01*
X572740Y-69620D01*
X568320Y-67280D01*
X563640Y-65580D01*
X558760Y-64540D01*
X553780Y-64200D01*
X548800Y-64540D01*
X543920Y-65580D01*
X539220Y-67280D01*
X534820Y-69620D01*
X530780Y-72560D01*
X527180Y-76040D01*
X524120Y-79960D01*
X521620Y-84280D01*
X519739Y-88920D01*
X518540Y-93760D01*
X518380Y-95239D01*
X517860Y-96820D01*
X516760Y-98059D01*
X515240Y-98740D01*
X513579Y-98740D01*
X512060Y-98059D01*
X510940Y-96820D01*
X510420Y-95239D01*
X510260Y-93760D01*
X509060Y-88920D01*
X507200Y-84300D01*
X504700Y-79960D01*
X501620Y-76040D01*
X498040Y-72560D01*
X494000Y-69640D01*
X489580Y-67280D01*
X484900Y-65580D01*
X480020Y-64540D01*
X475040Y-64200D01*
X470060Y-64540D01*
X465160Y-65580D01*
X460480Y-67280D01*
X456079Y-69640D01*
X452040Y-72560D01*
X448440Y-76040D01*
X445360Y-79960D01*
X442879Y-84300D01*
X441000Y-88920D01*
X439799Y-93760D01*
X439280Y-98720D01*
X439440Y-103720D01*
X440319Y-108640D01*
X441860Y-113379D01*
X444040Y-117860D01*
X446840Y-122000D01*
X450180Y-125719D01*
X454000Y-128920D01*
X458240Y-131560D01*
X462800Y-133600D01*
X467620Y-134980D01*
X470100Y-135360D01*
X471580Y-135900D01*
X472740Y-136960D01*
X473400Y-138400D01*
X473440Y-139980D01*
X472879Y-141460D01*
X471780Y-142600D01*
X470319Y-143220D01*
X465180Y-144320D01*
X460480Y-146020D01*
X456079Y-148360D01*
X452040Y-151300D01*
X448440Y-154780D01*
X445379Y-158700D01*
X442879Y-163020D01*
X441000Y-167659D01*
X439799Y-172500D01*
X439280Y-177460D01*
X439440Y-182460D01*
X440319Y-187360D01*
X441860Y-192120D01*
X444040Y-196600D01*
X446840Y-200740D01*
X450180Y-204460D01*
X454000Y-207659D01*
X458240Y-210300D01*
X462800Y-212340D01*
X467600Y-213720D01*
X472540Y-214400D01*
X477520Y-214400D01*
X482480Y-213720D01*
X487280Y-212340D01*
X491840Y-210300D01*
X496060Y-207659D01*
X499880Y-204460D01*
X503220Y-200740D01*
X506019Y-196600D01*
X508200Y-192120D01*
X509760Y-187360D01*
X510460Y-183320D01*
X511040Y-181840D01*
X512160Y-180720D01*
X513620Y-180100D01*
X515200Y-180100D01*
X516659Y-180720D01*
X517760Y-181840D01*
X518340Y-183320D01*
X519060Y-187360D01*
X520600Y-192120D01*
X522780Y-196600D01*
X525580Y-200740D01*
X528920Y-204460D01*
X532740Y-207659D01*
X536980Y-210300D01*
X541540Y-212340D01*
X546340Y-213720D01*
X551280Y-214400D01*
X556260Y-214400D01*
X561220Y-213720D01*
X566020Y-212340D01*
X570580Y-210300D01*
X574800Y-207659D01*
X578620Y-204460D01*
X581960Y-200740D01*
X584760Y-196600D01*
X586940Y-192120D01*
X588500Y-187360D01*
X589200Y-183320D01*
X589780Y-181840D01*
X590900Y-180720D01*
X592360Y-180100D01*
X593940Y-180100D01*
X595400Y-180720D01*
X596500Y-181840D01*
X597080Y-183320D01*
X597800Y-187360D01*
X599340Y-192120D01*
X601520Y-196600D01*
X604320Y-200740D01*
X607660Y-204460D01*
X611480Y-207659D01*
X615720Y-210300D01*
X620280Y-212340D01*
X625080Y-213720D01*
X630020Y-214400D01*
X635000Y-214400D01*
X639960Y-213720D01*
X644760Y-212340D01*
X649320Y-210300D01*
X653540Y-207659D01*
X657360Y-204460D01*
X660699Y-200740D01*
X663500Y-196600D01*
X665680Y-192120D01*
X667240Y-187360D01*
X667940Y-183320D01*
X668520Y-181840D01*
X669640Y-180720D01*
X671100Y-180100D01*
X672680Y-180100D01*
X674140Y-180720D01*
X675240Y-181840D01*
X675819Y-183320D01*
X676540Y-187360D01*
X678080Y-192120D01*
X680260Y-196600D01*
X683060Y-200740D01*
X686400Y-204460D01*
X690220Y-207659D01*
X694460Y-210300D01*
X699020Y-212340D01*
X703820Y-213720D01*
X708760Y-214400D01*
X713740Y-214400D01*
X718700Y-213720D01*
X723500Y-212340D01*
X728060Y-210300D01*
X732280Y-207659D01*
X736100Y-204460D01*
X739440Y-200740D01*
X742240Y-196600D01*
X744419Y-192120D01*
X745980Y-187360D01*
X746680Y-183320D01*
X747260Y-181840D01*
X748379Y-180720D01*
X749840Y-180100D01*
X751420Y-180100D01*
X752880Y-180720D01*
X753980Y-181840D01*
X754560Y-183320D01*
X755280Y-187360D01*
X756820Y-192120D01*
X759000Y-196600D01*
X761800Y-200740D01*
X765140Y-204460D01*
X768960Y-207659D01*
X773199Y-210300D01*
X777760Y-212340D01*
X782560Y-213720D01*
X787500Y-214400D01*
X792480Y-214400D01*
X797440Y-213720D01*
X802240Y-212340D01*
X806800Y-210300D01*
X809960Y-208320D01*
X811320Y-207800D01*
X812760Y-207780D01*
X814140Y-208299D01*
X815220Y-209259D01*
X817380Y-213440D01*
X819400Y-215880D01*
X854120Y-250600D01*
X856560Y-252620D01*
X859200Y-254020D01*
X862039Y-254880D01*
X865200Y-255200D01*
X942039Y-255200D01*
X943580Y-255500D01*
X944880Y-256380D01*
X1046940Y-358440D01*
X1047800Y-359720D01*
X1048120Y-361200D01*
X1047860Y-362700D01*
X1047039Y-364000D01*
X1045819Y-364900D01*
X1043900Y-365780D01*
X1040740Y-368000D01*
X1040120Y-368620D01*
X1038820Y-369500D01*
X1037280Y-369799D01*
X580200Y-369799D01*
X577040Y-370120D01*
X574200Y-370980D01*
X571560Y-372380D01*
X569120Y-374400D01*
X459880Y-483620D01*
X458579Y-484500D01*
X457040Y-484799D01*
X246700Y-484799D01*
X245180Y-484500D01*
X243900Y-483660D01*
X243020Y-482380D01*
X242700Y-480860D01*
X242979Y-479340D01*
X243800Y-478040D01*
X245060Y-477160D01*
X249920Y-474980D01*
X256840Y-471040D01*
X263380Y-466480D01*
X269460Y-461320D01*
X275020Y-455620D01*
X280040Y-449440D01*
X284440Y-442800D01*
X288200Y-435780D01*
X291300Y-428420D01*
X293680Y-420820D01*
X295360Y-413040D01*
X296280Y-405120D01*
X296480Y-397160D01*
X295920Y-389200D01*
X294620Y-381340D01*
X292580Y-373640D01*
X289840Y-366160D01*
X286400Y-358980D01*
X282320Y-352140D01*
X277600Y-345720D01*
X272300Y-339760D01*
X266480Y-334320D01*
X260159Y-329460D01*
X253420Y-325200D01*
X246320Y-321599D01*
X238900Y-318680D01*
X231240Y-316480D01*
X223420Y-315000D01*
X215479Y-314240D01*
X207520Y-314240D01*
X199579Y-315000D01*
X191759Y-316480D01*
X184100Y-318680D01*
X176680Y-321599D01*
X169579Y-325200D01*
X162840Y-329460D01*
X156520Y-334320D01*
X150700Y-339760D01*
X145400Y-345720D01*
X140680Y-352140D01*
X136600Y-358980D01*
X133160Y-366160D01*
X130420Y-373640D01*
X128379Y-381340D01*
X127080Y-389200D01*
X126519Y-397160D01*
X126720Y-405120D01*
X127640Y-413040D01*
X129320Y-420820D01*
X131700Y-428420D01*
X134800Y-435780D01*
X138560Y-442800D01*
X142960Y-449440D01*
X147980Y-455620D01*
X153540Y-461320D01*
X159620Y-466480D01*
X166160Y-471040D01*
X173080Y-474980D01*
X177940Y-477160D01*
X179200Y-478040D01*
X180020Y-479340D01*
X180300Y-480860D01*
X179980Y-482380D01*
X179100Y-483660D01*
X177820Y-484500D01*
X176300Y-484799D01*
X125200Y-484799D01*
X122040Y-485120D01*
X119200Y-485980D01*
X116560Y-487380D01*
X114120Y-489400D01*
X49400Y-554120D01*
X47380Y-556560D01*
X45980Y-559200D01*
X45119Y-562040D01*
X44800Y-565200D01*
X44800Y-814800D01*
X45119Y-817960D01*
X45980Y-820800D01*
X47380Y-823439D01*
X49400Y-825879D01*
X61900Y-838400D01*
X62760Y-839680D01*
X63080Y-841180D01*
X62800Y-842680D01*
X61980Y-843980D01*
X60720Y-844860D01*
X59220Y-845220D01*
X56580Y-845320D01*
X52080Y-846200D01*
X47779Y-847740D01*
X43760Y-849920D01*
X40119Y-852700D01*
X36960Y-856000D01*
X34320Y-859740D01*
X32300Y-863840D01*
X30920Y-868199D01*
X30219Y-872720D01*
X30219Y-877280D01*
X30920Y-881800D01*
X32300Y-886160D01*
X34320Y-890260D01*
X36960Y-894000D01*
X39780Y-896940D01*
X40620Y-898259D01*
X40900Y-899800D01*
X40560Y-901320D01*
X39660Y-902600D01*
X33380Y-906120D01*
X29060Y-909300D01*
X25200Y-913040D01*
X21860Y-917260D01*
X19120Y-921880D01*
X17880Y-924820D01*
X17000Y-926100D01*
X15700Y-926960D01*
X14180Y-927260D01*
X12660Y-926940D01*
X11359Y-926080D01*
X10500Y-924780D01*
X10200Y-923259D01*
X10200Y-14200D01*
X10500Y-12660D01*
X11379Y-11379D01*
X12660Y-10500D01*
X14200Y-10200D01*
X1954300Y-10200D01*
X1955840Y-10500D01*
X1957140Y-11379D01*
X1958000Y-12660D01*
X1958300Y-14200D01*
X1958300Y-658180D01*
X1957940Y-659860D01*
X1956900Y-661240D01*
X1955360Y-662039D01*
X1953640Y-662120D01*
X1952040Y-661480D01*
X1950860Y-660220D01*
X1949440Y-657820D01*
X1946519Y-654280D01*
X1943100Y-651240D01*
X1939280Y-648760D01*
X1935100Y-646880D01*
X1930680Y-645680D01*
X1926140Y-645140D01*
X1921579Y-645320D01*
X1919680Y-645699D01*
X1918380Y-645720D01*
X1917140Y-645340D01*
X1916080Y-644599D01*
X1909520Y-638040D01*
X1907080Y-636020D01*
X1904440Y-634620D01*
X1901600Y-633760D01*
X1898440Y-633440D01*
X1860080Y-633440D01*
X1858980Y-633280D01*
X1857560Y-632580D01*
X1855420Y-631840D01*
X1852920Y-631560D01*
X1786459Y-631560D01*
X1783959Y-631840D01*
X1781819Y-632580D01*
X1779880Y-633800D01*
X1778280Y-635400D01*
X1777060Y-637340D01*
X1776300Y-639480D01*
X1776020Y-641979D01*
X1776020Y-655300D01*
X1776300Y-657800D01*
X1777060Y-659940D01*
X1778520Y-662260D01*
X1779060Y-663640D01*
X1779060Y-665140D01*
X1778520Y-666520D01*
X1777060Y-668820D01*
X1776300Y-670980D01*
X1776020Y-673460D01*
X1776020Y-686800D01*
X1776300Y-689280D01*
X1777060Y-691440D01*
X1778520Y-693760D01*
X1779060Y-695140D01*
X1779060Y-696640D01*
X1778520Y-698020D01*
X1777060Y-700320D01*
X1776300Y-702480D01*
X1776020Y-704960D01*
X1776020Y-718300D01*
X1776300Y-720780D01*
X1777060Y-722940D01*
X1778520Y-725260D01*
X1779060Y-726640D01*
X1779060Y-728120D01*
X1778520Y-729500D01*
X1777060Y-731820D01*
X1776300Y-733960D01*
X1776020Y-736460D01*
X1776020Y-749780D01*
X1776300Y-752280D01*
X1777060Y-754419D01*
X1778520Y-756760D01*
X1779060Y-758139D01*
X1779060Y-759620D01*
X1778520Y-761000D01*
X1777060Y-763319D01*
X1776300Y-765460D01*
X1776020Y-767960D01*
X1776020Y-781280D01*
X1776300Y-783780D01*
X1777060Y-785920D01*
X1778280Y-787860D01*
X1779880Y-789460D01*
X1781819Y-790680D01*
X1783959Y-791420D01*
X1786459Y-791720D01*
X1852920Y-791720D01*
X1855420Y-791420D01*
X1857560Y-790680D01*
X1858980Y-789980D01*
X1860080Y-789820D01*
X1891220Y-789820D01*
X1892740Y-790120D01*
X1894040Y-791000D01*
X1894900Y-792280D01*
X1895220Y-793820D01*
X1895220Y-797280D01*
X1895920Y-801800D01*
X1897300Y-806160D01*
X1898400Y-808420D01*
X1898820Y-810100D01*
X1898500Y-811780D01*
X1897480Y-813180D01*
X1895980Y-814020D01*
X1894259Y-814160D01*
X1892640Y-813560D01*
X1889280Y-811360D01*
X1885100Y-809500D01*
X1880680Y-808280D01*
X1876140Y-807760D01*
X1871579Y-807940D01*
X1867080Y-808800D01*
X1862780Y-810360D01*
X1858760Y-812540D01*
X1855120Y-815300D01*
X1850920Y-819740D01*
X1849780Y-820320D01*
X1848520Y-820520D01*
X1786459Y-820520D01*
X1783959Y-820800D01*
X1781819Y-821560D01*
X1779880Y-822760D01*
X1778280Y-824380D01*
X1777060Y-826300D01*
X1776300Y-828460D01*
X1776020Y-830939D01*
X1776020Y-844280D01*
X1776300Y-846760D01*
X1777060Y-848920D01*
X1778520Y-851240D01*
X1779060Y-852620D01*
X1779060Y-854120D01*
X1778520Y-855500D01*
X1777060Y-857800D01*
X1776300Y-859960D01*
X1776020Y-862440D01*
X1776020Y-875780D01*
X1776300Y-878259D01*
X1777060Y-880420D01*
X1778520Y-882740D01*
X1779060Y-884120D01*
X1779060Y-885600D01*
X1778520Y-886979D01*
X1777060Y-889300D01*
X1776300Y-891440D01*
X1776020Y-893940D01*
X1776020Y-907260D01*
X1776300Y-909760D01*
X1777060Y-911900D01*
X1778520Y-914240D01*
X1779060Y-915620D01*
X1779060Y-917099D01*
X1778520Y-918480D01*
X1777060Y-920800D01*
X1776300Y-922940D01*
X1776020Y-925440D01*
X1776020Y-938760D01*
X1776300Y-941260D01*
X1777060Y-943400D01*
X1778520Y-945740D01*
X1779060Y-947120D01*
X1779060Y-948600D01*
X1778520Y-949980D01*
X1777060Y-952300D01*
X1776300Y-954440D01*
X1776020Y-956940D01*
X1776020Y-970260D01*
X1776300Y-972760D01*
X1777060Y-974900D01*
X1778520Y-977220D01*
X1779060Y-978600D01*
X1779060Y-980100D01*
X1778520Y-981480D01*
X1777060Y-983780D01*
X1776300Y-985939D01*
X1776020Y-988420D01*
X1776020Y-1001760D01*
X1776300Y-1004240D01*
X1777060Y-1006400D01*
X1778520Y-1008720D01*
X1779060Y-1010100D01*
X1779060Y-1011600D01*
X1778520Y-1012980D01*
X1777060Y-1015280D01*
X1776300Y-1017440D01*
X1776020Y-1019920D01*
X1776020Y-1033259D01*
X1776300Y-1035740D01*
X1777060Y-1037900D01*
X1778520Y-1040220D01*
X1779060Y-1041600D01*
X1779060Y-1043080D01*
X1778520Y-1044460D01*
X1777060Y-1046780D01*
X1776300Y-1048920D01*
X1776020Y-1051420D01*
X1776020Y-1064740D01*
X1776300Y-1067240D01*
X1777060Y-1069380D01*
X1778520Y-1071720D01*
X1779060Y-1073100D01*
X1779060Y-1074580D01*
X1778520Y-1075960D01*
X1777060Y-1078280D01*
X1776300Y-1080420D01*
X1776020Y-1082920D01*
X1776020Y-1096240D01*
X1776300Y-1098740D01*
X1777060Y-1100880D01*
X1778520Y-1103220D01*
X1779060Y-1104600D01*
X1779060Y-1106080D01*
X1778520Y-1107460D01*
X1777060Y-1109780D01*
X1776300Y-1111920D01*
X1776020Y-1114420D01*
X1776020Y-1127740D01*
X1776300Y-1130240D01*
X1777060Y-1132380D01*
X1778520Y-1134700D01*
X1779060Y-1136080D01*
X1779060Y-1137580D01*
X1778520Y-1138960D01*
X1777060Y-1141260D01*
X1776300Y-1143420D01*
X1776020Y-1145900D01*
X1776020Y-1159240D01*
X1776300Y-1161720D01*
X1777060Y-1163880D01*
X1778520Y-1166200D01*
X1779060Y-1167580D01*
X1779060Y-1169080D01*
X1778520Y-1170460D01*
X1777060Y-1172760D01*
X1776300Y-1174920D01*
X1776020Y-1177400D01*
X1776020Y-1190740D01*
X1776300Y-1193220D01*
X1777060Y-1195380D01*
X1778520Y-1197700D01*
X1779060Y-1199080D01*
X1779060Y-1200560D01*
X1778520Y-1201940D01*
X1777060Y-1204260D01*
X1776300Y-1206400D01*
X1776020Y-1208900D01*
X1776020Y-1222220D01*
X1776300Y-1224720D01*
X1777060Y-1226860D01*
X1778520Y-1229200D01*
X1779060Y-1230580D01*
X1779060Y-1232060D01*
X1778520Y-1233440D01*
X1777060Y-1235760D01*
X1776300Y-1237900D01*
X1776020Y-1240400D01*
X1776020Y-1253720D01*
X1776300Y-1256220D01*
X1777060Y-1258360D01*
X1778520Y-1260700D01*
X1779060Y-1262080D01*
X1779060Y-1263560D01*
X1778520Y-1264940D01*
X1777060Y-1267260D01*
X1776300Y-1269400D01*
X1776020Y-1271900D01*
X1776020Y-1285220D01*
X1776300Y-1287720D01*
X1777060Y-1289860D01*
X1778520Y-1292180D01*
X1779060Y-1293560D01*
X1779060Y-1295060D01*
X1778520Y-1296440D01*
X1777060Y-1298740D01*
X1776300Y-1300900D01*
X1776020Y-1303380D01*
X1776020Y-1316720D01*
X1776300Y-1319199D01*
X1777060Y-1321360D01*
X1778520Y-1323680D01*
X1779060Y-1325060D01*
X1779060Y-1326560D01*
X1778520Y-1327940D01*
X1777060Y-1330240D01*
X1776300Y-1332400D01*
X1776020Y-1334880D01*
X1776020Y-1346800D01*
X1775700Y-1348380D01*
X1774800Y-1349680D01*
X1773460Y-1350540D01*
X1771879Y-1350800D01*
X1770340Y-1350440D01*
X1767580Y-1349160D01*
X1763860Y-1348160D01*
X1760000Y-1347820D01*
X1756140Y-1348160D01*
X1752420Y-1349160D01*
X1748899Y-1350780D01*
X1745740Y-1353000D01*
X1743000Y-1355740D01*
X1740780Y-1358899D01*
X1739160Y-1362420D01*
X1738160Y-1366140D01*
X1737820Y-1370000D01*
X1738160Y-1373860D01*
X1739160Y-1377580D01*
X1740780Y-1381100D01*
X1743000Y-1384259D01*
X1745740Y-1387000D01*
X1748899Y-1389220D01*
X1752420Y-1390840D01*
X1756140Y-1391840D01*
X1760000Y-1392180D01*
X1763860Y-1391840D01*
X1767580Y-1390840D01*
X1771300Y-1389120D01*
X1772820Y-1388740D01*
X1774340Y-1388980D01*
X1775680Y-1389780D01*
X1776600Y-1391020D01*
X1776980Y-1392520D01*
X1776759Y-1394060D01*
X1776300Y-1395380D01*
X1776020Y-1397880D01*
X1776020Y-1411200D01*
X1776300Y-1413700D01*
X1777060Y-1415840D01*
X1778520Y-1418180D01*
X1779060Y-1419560D01*
X1779060Y-1421040D01*
X1778520Y-1422420D01*
X1777060Y-1424740D01*
X1776300Y-1426879D01*
X1776020Y-1429379D01*
X1776020Y-1442700D01*
X1776300Y-1445200D01*
X1777060Y-1447340D01*
X1778520Y-1449660D01*
X1779060Y-1451040D01*
X1779060Y-1452540D01*
X1778520Y-1453920D01*
X1777060Y-1456220D01*
X1776300Y-1458380D01*
X1776020Y-1460860D01*
X1776020Y-1474199D01*
X1776300Y-1476680D01*
X1777060Y-1478839D01*
X1778520Y-1481160D01*
X1779060Y-1482540D01*
X1779060Y-1484040D01*
X1778320Y-1485720D01*
X1777200Y-1486879D01*
X1775720Y-1487520D01*
X1774120Y-1487500D01*
X1772640Y-1486860D01*
X1771100Y-1485780D01*
X1767580Y-1484160D01*
X1763860Y-1483160D01*
X1760000Y-1482820D01*
X1756140Y-1483160D01*
X1752420Y-1484160D01*
X1748899Y-1485780D01*
X1745740Y-1488000D01*
X1743000Y-1490740D01*
X1740780Y-1493899D01*
X1739160Y-1497420D01*
X1738160Y-1501140D01*
X1737820Y-1505000D01*
X1738160Y-1508860D01*
X1739160Y-1512580D01*
X1740780Y-1516100D01*
X1743000Y-1519259D01*
X1745740Y-1522000D01*
X1748899Y-1524220D01*
X1752420Y-1525840D01*
X1756140Y-1526840D01*
X1760000Y-1527180D01*
X1763860Y-1526840D01*
X1767580Y-1525840D01*
X1770340Y-1524560D01*
X1771879Y-1524199D01*
X1773460Y-1524460D01*
X1774800Y-1525320D01*
X1775700Y-1526620D01*
X1776020Y-1528200D01*
X1776020Y-1537200D01*
X1776300Y-1539680D01*
X1777060Y-1541840D01*
X1778520Y-1544160D01*
X1779060Y-1545540D01*
X1779060Y-1547020D01*
X1778520Y-1548400D01*
X1777060Y-1550720D01*
X1776300Y-1552860D01*
X1776020Y-1555360D01*
X1776020Y-1568680D01*
X1776300Y-1571180D01*
X1777060Y-1573320D01*
X1778280Y-1575260D01*
X1779880Y-1576860D01*
X1781819Y-1578080D01*
X1783959Y-1578820D01*
X1786459Y-1579120D01*
X1852920Y-1579120D01*
X1855420Y-1578820D01*
X1857560Y-1578080D01*
X1858980Y-1577380D01*
X1860080Y-1577220D01*
X1894060Y-1577220D01*
X1895600Y-1577520D01*
X1896900Y-1578400D01*
X1899580Y-1581080D01*
X1900320Y-1582080D01*
X1900700Y-1583280D01*
X1900700Y-1584520D01*
X1900220Y-1587720D01*
X1900220Y-1592280D01*
X1900920Y-1596800D01*
X1902300Y-1601160D01*
X1903740Y-1604079D01*
X1904139Y-1605640D01*
X1903899Y-1607240D01*
X1903060Y-1608600D01*
X1901720Y-1609520D01*
X1900140Y-1609860D01*
X1860080Y-1609860D01*
X1858980Y-1609700D01*
X1857560Y-1609000D01*
X1855420Y-1608240D01*
X1852920Y-1607960D01*
X1786459Y-1607960D01*
X1783959Y-1608240D01*
X1781819Y-1609000D01*
X1779880Y-1610200D01*
X1778280Y-1611819D01*
X1777060Y-1613740D01*
X1776300Y-1615900D01*
X1776020Y-1618380D01*
X1776020Y-1631720D01*
X1776300Y-1634199D01*
X1777060Y-1636360D01*
X1778520Y-1638680D01*
X1779060Y-1640060D01*
X1779060Y-1641560D01*
X1778520Y-1642940D01*
X1777060Y-1645240D01*
X1776300Y-1647400D01*
X1776020Y-1649880D01*
X1776020Y-1663220D01*
X1776300Y-1665700D01*
X1777060Y-1667860D01*
X1778520Y-1670180D01*
X1779060Y-1671560D01*
X1779060Y-1673040D01*
X1778520Y-1674420D01*
X1777060Y-1676740D01*
X1776300Y-1678880D01*
X1776020Y-1681380D01*
X1776020Y-1694700D01*
X1776300Y-1697200D01*
X1777060Y-1699340D01*
X1778520Y-1701680D01*
X1779060Y-1703060D01*
X1779060Y-1704540D01*
X1778520Y-1705920D01*
X1777060Y-1708240D01*
X1776300Y-1710380D01*
X1776020Y-1712880D01*
X1776020Y-1726200D01*
X1776300Y-1728700D01*
X1777060Y-1730840D01*
X1778520Y-1733180D01*
X1779060Y-1734560D01*
X1779060Y-1736040D01*
X1778520Y-1737420D01*
X1777060Y-1739740D01*
X1776300Y-1741879D01*
X1776020Y-1744379D01*
X1776020Y-1757700D01*
X1776300Y-1760200D01*
X1777060Y-1762340D01*
X1778520Y-1764660D01*
X1779060Y-1766040D01*
X1779060Y-1767540D01*
X1778520Y-1768920D01*
X1777060Y-1771220D01*
X1776300Y-1773380D01*
X1776020Y-1775860D01*
X1776020Y-1789199D01*
X1776300Y-1791680D01*
X1777060Y-1793839D01*
X1778280Y-1795760D01*
X1779880Y-1797380D01*
X1781819Y-1798580D01*
X1783959Y-1799340D01*
X1786459Y-1799620D01*
X1852920Y-1799620D01*
X1855420Y-1799340D01*
X1857560Y-1798580D01*
X1858980Y-1797880D01*
X1860080Y-1797740D01*
X1861860Y-1797740D01*
X1863240Y-1797980D01*
X1864460Y-1798700D01*
X1865340Y-1799780D01*
X1867300Y-1806160D01*
X1869319Y-1810260D01*
X1871960Y-1814000D01*
X1874199Y-1816339D01*
X1875020Y-1817600D01*
X1875320Y-1819060D01*
X1875060Y-1820520D01*
X1874300Y-1821800D01*
X1873100Y-1822700D01*
X1867420Y-1824160D01*
X1863899Y-1825780D01*
X1859379Y-1828980D01*
X1857920Y-1829300D01*
X1856459Y-1829079D01*
X1855420Y-1828720D01*
X1852920Y-1828440D01*
X1786459Y-1828440D01*
X1783959Y-1828720D01*
X1781819Y-1829480D01*
X1779880Y-1830680D01*
X1778280Y-1832300D01*
X1777060Y-1834220D01*
X1776300Y-1836380D01*
X1776020Y-1838860D01*
X1776020Y-1851800D01*
X1775700Y-1853380D01*
X1774800Y-1854680D01*
X1773460Y-1855540D01*
X1771879Y-1855800D01*
X1770340Y-1855440D01*
X1767580Y-1854160D01*
X1763860Y-1853160D01*
X1760000Y-1852820D01*
X1756140Y-1853160D01*
X1752420Y-1854160D01*
X1748899Y-1855780D01*
X1745740Y-1858000D01*
X1743000Y-1860740D01*
X1740780Y-1863899D01*
X1739160Y-1867420D01*
X1738160Y-1871140D01*
X1737820Y-1875000D01*
X1738160Y-1878860D01*
X1739160Y-1882580D01*
X1740780Y-1886100D01*
X1743000Y-1889259D01*
X1743560Y-1889800D01*
X1744460Y-1891200D01*
X1744720Y-1892840D01*
X1744300Y-1894440D01*
X1743260Y-1895720D01*
X1740560Y-1897960D01*
X1736780Y-1901720D01*
X1735640Y-1902520D01*
X1734300Y-1902880D01*
X1731140Y-1903160D01*
X1730240Y-1903400D01*
G37*

%LPC*%
G36*
X1727160Y-577080D02*
G01*
X1731540Y-576740D01*
X1735800Y-575700D01*
X1739840Y-574040D01*
X1743580Y-571740D01*
X1746900Y-568900D01*
X1749740Y-565580D01*
X1752040Y-561840D01*
X1753700Y-557800D01*
X1754740Y-553540D01*
X1755080Y-549180D01*
X1754740Y-544800D01*
X1753700Y-540540D01*
X1752040Y-536500D01*
X1749740Y-532760D01*
X1746900Y-529440D01*
X1743580Y-526600D01*
X1739840Y-524300D01*
X1735800Y-522640D01*
X1731540Y-521599D01*
X1727160Y-521260D01*
X1722800Y-521599D01*
X1718540Y-522640D01*
X1714500Y-524300D01*
X1710760Y-526600D01*
X1707440Y-529440D01*
X1704600Y-532760D01*
X1702300Y-536500D01*
X1700640Y-540540D01*
X1699600Y-544800D01*
X1699259Y-549180D01*
X1699600Y-553540D01*
X1700640Y-557800D01*
X1702300Y-561840D01*
X1704600Y-565580D01*
X1707440Y-568900D01*
X1710760Y-571740D01*
X1714500Y-574040D01*
X1718540Y-575700D01*
X1722800Y-576740D01*
G37*
G36*
X1338680Y-214400D02*
G01*
X1343660Y-214400D01*
X1348620Y-213720D01*
X1353420Y-212340D01*
X1357980Y-210300D01*
X1362200Y-207659D01*
X1366020Y-204460D01*
X1369360Y-200740D01*
X1372160Y-196600D01*
X1374340Y-192120D01*
X1375900Y-187360D01*
X1376600Y-183320D01*
X1377180Y-181840D01*
X1378300Y-180720D01*
X1379760Y-180100D01*
X1381339Y-180100D01*
X1382800Y-180720D01*
X1383899Y-181840D01*
X1384480Y-183320D01*
X1385200Y-187360D01*
X1386740Y-192120D01*
X1388920Y-196600D01*
X1391720Y-200740D01*
X1395060Y-204460D01*
X1398880Y-207659D01*
X1403120Y-210300D01*
X1407680Y-212340D01*
X1412480Y-213720D01*
X1417420Y-214400D01*
X1422400Y-214400D01*
X1427360Y-213720D01*
X1432160Y-212340D01*
X1436720Y-210300D01*
X1440940Y-207659D01*
X1444760Y-204460D01*
X1448100Y-200740D01*
X1450900Y-196600D01*
X1453080Y-192120D01*
X1454640Y-187360D01*
X1455340Y-183320D01*
X1455920Y-181840D01*
X1457040Y-180720D01*
X1458500Y-180100D01*
X1460080Y-180100D01*
X1461540Y-180720D01*
X1462640Y-181840D01*
X1463220Y-183320D01*
X1463940Y-187360D01*
X1465480Y-192120D01*
X1467660Y-196600D01*
X1470460Y-200740D01*
X1473800Y-204460D01*
X1477620Y-207659D01*
X1481860Y-210300D01*
X1486420Y-212340D01*
X1491220Y-213720D01*
X1496160Y-214400D01*
X1501140Y-214400D01*
X1506100Y-213720D01*
X1510900Y-212340D01*
X1515460Y-210300D01*
X1519680Y-207659D01*
X1523500Y-204460D01*
X1526840Y-200740D01*
X1529640Y-196600D01*
X1531819Y-192120D01*
X1533380Y-187360D01*
X1534240Y-182460D01*
X1534420Y-177460D01*
X1533899Y-172500D01*
X1532680Y-167659D01*
X1530820Y-163020D01*
X1528320Y-158700D01*
X1525240Y-154780D01*
X1521660Y-151300D01*
X1517620Y-148360D01*
X1513200Y-146020D01*
X1508520Y-144320D01*
X1503220Y-143220D01*
X1501759Y-142580D01*
X1500660Y-141440D01*
X1500100Y-139960D01*
X1500160Y-138380D01*
X1500820Y-136940D01*
X1501980Y-135860D01*
X1503480Y-135340D01*
X1506100Y-134980D01*
X1510900Y-133600D01*
X1515460Y-131560D01*
X1519680Y-128920D01*
X1523500Y-125719D01*
X1526840Y-122000D01*
X1529640Y-117860D01*
X1531819Y-113379D01*
X1533380Y-108620D01*
X1534240Y-103720D01*
X1534420Y-98720D01*
X1533899Y-93760D01*
X1532680Y-88920D01*
X1530820Y-84280D01*
X1528320Y-79960D01*
X1525240Y-76040D01*
X1521660Y-72560D01*
X1517620Y-69620D01*
X1513200Y-67280D01*
X1508520Y-65580D01*
X1503640Y-64540D01*
X1498660Y-64200D01*
X1493680Y-64540D01*
X1488800Y-65580D01*
X1484100Y-67280D01*
X1479700Y-69620D01*
X1475660Y-72560D01*
X1472060Y-76040D01*
X1469000Y-79960D01*
X1466500Y-84280D01*
X1464620Y-88920D01*
X1463420Y-93760D01*
X1463260Y-95239D01*
X1462740Y-96820D01*
X1461639Y-98040D01*
X1460120Y-98720D01*
X1458460Y-98720D01*
X1456940Y-98040D01*
X1455820Y-96820D01*
X1455300Y-95239D01*
X1455160Y-93760D01*
X1453940Y-88920D01*
X1452080Y-84280D01*
X1449580Y-79960D01*
X1446500Y-76040D01*
X1442920Y-72560D01*
X1438880Y-69620D01*
X1434460Y-67280D01*
X1429780Y-65580D01*
X1424900Y-64540D01*
X1419920Y-64200D01*
X1414940Y-64540D01*
X1410060Y-65580D01*
X1405360Y-67280D01*
X1400960Y-69620D01*
X1396920Y-72560D01*
X1393320Y-76040D01*
X1390260Y-79960D01*
X1387760Y-84280D01*
X1385880Y-88920D01*
X1384680Y-93760D01*
X1384520Y-95239D01*
X1384000Y-96820D01*
X1382900Y-98040D01*
X1381380Y-98720D01*
X1379720Y-98720D01*
X1378200Y-98040D01*
X1377080Y-96820D01*
X1376560Y-95239D01*
X1376420Y-93760D01*
X1375200Y-88920D01*
X1373340Y-84280D01*
X1370840Y-79960D01*
X1367760Y-76040D01*
X1364180Y-72560D01*
X1360140Y-69620D01*
X1355720Y-67280D01*
X1351040Y-65580D01*
X1346160Y-64540D01*
X1341180Y-64200D01*
X1336200Y-64540D01*
X1331320Y-65580D01*
X1326620Y-67280D01*
X1322220Y-69620D01*
X1318180Y-72560D01*
X1314580Y-76040D01*
X1311519Y-79960D01*
X1309019Y-84280D01*
X1307140Y-88920D01*
X1305940Y-93760D01*
X1305780Y-95239D01*
X1305260Y-96820D01*
X1304160Y-98040D01*
X1302640Y-98720D01*
X1300980Y-98720D01*
X1299460Y-98040D01*
X1298340Y-96820D01*
X1297820Y-95239D01*
X1297680Y-93760D01*
X1296459Y-88920D01*
X1294600Y-84280D01*
X1292100Y-79960D01*
X1289019Y-76040D01*
X1285440Y-72560D01*
X1281399Y-69620D01*
X1276980Y-67280D01*
X1272300Y-65580D01*
X1267420Y-64540D01*
X1262440Y-64200D01*
X1257460Y-64540D01*
X1252580Y-65580D01*
X1247880Y-67280D01*
X1243480Y-69620D01*
X1239440Y-72560D01*
X1235840Y-76040D01*
X1232780Y-79960D01*
X1230280Y-84280D01*
X1228400Y-88920D01*
X1227200Y-93760D01*
X1227040Y-95239D01*
X1226520Y-96820D01*
X1225420Y-98040D01*
X1223900Y-98720D01*
X1222240Y-98720D01*
X1220720Y-98040D01*
X1219600Y-96820D01*
X1219080Y-95239D01*
X1218940Y-93760D01*
X1217720Y-88920D01*
X1215860Y-84280D01*
X1213360Y-79960D01*
X1210280Y-76040D01*
X1206700Y-72560D01*
X1202660Y-69620D01*
X1198240Y-67280D01*
X1193560Y-65580D01*
X1188680Y-64540D01*
X1183700Y-64200D01*
X1178720Y-64540D01*
X1173840Y-65580D01*
X1169140Y-67280D01*
X1164740Y-69620D01*
X1160700Y-72560D01*
X1157100Y-76040D01*
X1154040Y-79960D01*
X1151540Y-84280D01*
X1149660Y-88920D01*
X1148460Y-93760D01*
X1147940Y-98720D01*
X1148100Y-103720D01*
X1148980Y-108620D01*
X1150520Y-113379D01*
X1152700Y-117860D01*
X1155500Y-122000D01*
X1158840Y-125719D01*
X1162660Y-128920D01*
X1166900Y-131560D01*
X1171460Y-133600D01*
X1176260Y-134980D01*
X1181200Y-135660D01*
X1186180Y-135660D01*
X1191140Y-134980D01*
X1195940Y-133600D01*
X1200500Y-131560D01*
X1204720Y-128920D01*
X1208540Y-125719D01*
X1211880Y-122000D01*
X1214680Y-117860D01*
X1216860Y-113379D01*
X1218420Y-108620D01*
X1219120Y-104580D01*
X1219700Y-103100D01*
X1220820Y-101980D01*
X1222280Y-101359D01*
X1223860Y-101359D01*
X1225320Y-101980D01*
X1226420Y-103100D01*
X1227000Y-104580D01*
X1227720Y-108620D01*
X1229260Y-113379D01*
X1231440Y-117860D01*
X1234240Y-122000D01*
X1237580Y-125719D01*
X1241400Y-128920D01*
X1245640Y-131560D01*
X1250200Y-133600D01*
X1255000Y-134980D01*
X1259940Y-135660D01*
X1264920Y-135660D01*
X1269880Y-134980D01*
X1274680Y-133600D01*
X1279240Y-131560D01*
X1283460Y-128920D01*
X1287280Y-125719D01*
X1290620Y-122000D01*
X1293420Y-117860D01*
X1295600Y-113379D01*
X1297160Y-108620D01*
X1297860Y-104580D01*
X1298440Y-103100D01*
X1299560Y-101980D01*
X1301020Y-101359D01*
X1302600Y-101359D01*
X1304060Y-101980D01*
X1305160Y-103100D01*
X1305740Y-104580D01*
X1306459Y-108620D01*
X1308000Y-113379D01*
X1310180Y-117860D01*
X1312980Y-122000D01*
X1316320Y-125719D01*
X1320140Y-128920D01*
X1324379Y-131560D01*
X1328940Y-133600D01*
X1333760Y-134980D01*
X1336240Y-135360D01*
X1337720Y-135900D01*
X1338880Y-136960D01*
X1339540Y-138400D01*
X1339580Y-139980D01*
X1339019Y-141460D01*
X1337920Y-142600D01*
X1336459Y-143220D01*
X1331320Y-144320D01*
X1326620Y-146020D01*
X1322220Y-148360D01*
X1318180Y-151300D01*
X1314580Y-154780D01*
X1311519Y-158700D01*
X1309019Y-163020D01*
X1307140Y-167659D01*
X1305940Y-172500D01*
X1305420Y-177460D01*
X1305580Y-182460D01*
X1306459Y-187360D01*
X1308000Y-192120D01*
X1310180Y-196600D01*
X1312980Y-200740D01*
X1316320Y-204460D01*
X1320140Y-207659D01*
X1324379Y-210300D01*
X1328940Y-212340D01*
X1333740Y-213720D01*
G37*
G36*
X1601420Y-791720D02*
G01*
X1667880Y-791720D01*
X1670380Y-791420D01*
X1672520Y-790680D01*
X1674460Y-789460D01*
X1676060Y-787860D01*
X1677280Y-785920D01*
X1678040Y-783780D01*
X1678320Y-781280D01*
X1678320Y-767960D01*
X1678040Y-765460D01*
X1677280Y-763319D01*
X1675820Y-760980D01*
X1675280Y-759599D01*
X1675280Y-758120D01*
X1675820Y-756740D01*
X1677280Y-754419D01*
X1678040Y-752280D01*
X1678320Y-749780D01*
X1678320Y-736460D01*
X1678040Y-733960D01*
X1677280Y-731820D01*
X1675820Y-729500D01*
X1675280Y-728120D01*
X1675280Y-726620D01*
X1675820Y-725240D01*
X1677280Y-722940D01*
X1678040Y-720780D01*
X1678320Y-718300D01*
X1678320Y-704960D01*
X1678040Y-702480D01*
X1677280Y-700320D01*
X1675820Y-698000D01*
X1675280Y-696620D01*
X1675280Y-695120D01*
X1675820Y-693740D01*
X1677280Y-691440D01*
X1678040Y-689280D01*
X1678320Y-686800D01*
X1678320Y-673460D01*
X1678040Y-670980D01*
X1677280Y-668820D01*
X1675820Y-666520D01*
X1675280Y-665120D01*
X1675280Y-663640D01*
X1675820Y-662260D01*
X1677280Y-659940D01*
X1678040Y-657800D01*
X1678320Y-655300D01*
X1678320Y-641979D01*
X1678040Y-639480D01*
X1677280Y-637340D01*
X1676060Y-635400D01*
X1674460Y-633800D01*
X1672520Y-632580D01*
X1670380Y-631840D01*
X1667880Y-631560D01*
X1601420Y-631560D01*
X1598920Y-631840D01*
X1596780Y-632580D01*
X1594840Y-633800D01*
X1593240Y-635400D01*
X1592020Y-637340D01*
X1591260Y-639480D01*
X1590980Y-641979D01*
X1590980Y-655300D01*
X1591260Y-657800D01*
X1592020Y-659940D01*
X1593480Y-662260D01*
X1594019Y-663640D01*
X1594019Y-665140D01*
X1593480Y-666520D01*
X1592020Y-668820D01*
X1591260Y-670980D01*
X1590980Y-673460D01*
X1590980Y-686800D01*
X1591260Y-689280D01*
X1592020Y-691440D01*
X1593480Y-693760D01*
X1594019Y-695140D01*
X1594019Y-696640D01*
X1593480Y-698020D01*
X1592020Y-700320D01*
X1591260Y-702480D01*
X1590980Y-704960D01*
X1590980Y-718300D01*
X1591260Y-720780D01*
X1592020Y-722940D01*
X1593480Y-725260D01*
X1594019Y-726640D01*
X1594019Y-728120D01*
X1593480Y-729500D01*
X1592020Y-731820D01*
X1591260Y-733960D01*
X1590980Y-736460D01*
X1590980Y-749780D01*
X1591260Y-752280D01*
X1592020Y-754419D01*
X1593480Y-756760D01*
X1594019Y-758139D01*
X1594019Y-759620D01*
X1593480Y-761000D01*
X1592020Y-763319D01*
X1591260Y-765460D01*
X1590980Y-767960D01*
X1590980Y-781280D01*
X1591260Y-783780D01*
X1592020Y-785920D01*
X1593240Y-787860D01*
X1594840Y-789460D01*
X1596780Y-790680D01*
X1598920Y-791420D01*
G37*
G36*
X1657720Y-258600D02*
G01*
X1666819Y-258400D01*
X1675860Y-257460D01*
X1684800Y-255760D01*
X1693560Y-253299D01*
X1702100Y-250140D01*
X1710320Y-246260D01*
X1718200Y-241720D01*
X1725680Y-236520D01*
X1732680Y-230720D01*
X1739180Y-224360D01*
X1745120Y-217480D01*
X1750480Y-210120D01*
X1755180Y-202320D01*
X1759240Y-194180D01*
X1762580Y-185720D01*
X1765200Y-177020D01*
X1767100Y-168120D01*
X1768240Y-159080D01*
X1768620Y-150000D01*
X1768240Y-140920D01*
X1767100Y-131880D01*
X1765200Y-122980D01*
X1762580Y-114280D01*
X1759240Y-105820D01*
X1755180Y-97680D01*
X1750480Y-89880D01*
X1745120Y-82540D01*
X1739180Y-75640D01*
X1732680Y-69280D01*
X1725680Y-63480D01*
X1718200Y-58280D01*
X1710320Y-53740D01*
X1702100Y-49860D01*
X1693560Y-46700D01*
X1684800Y-44240D01*
X1675860Y-42539D01*
X1666819Y-41600D01*
X1657720Y-41400D01*
X1648640Y-41980D01*
X1639640Y-43300D01*
X1630780Y-45380D01*
X1622140Y-48200D01*
X1613760Y-51720D01*
X1605680Y-55940D01*
X1598000Y-60800D01*
X1590760Y-66300D01*
X1584000Y-72400D01*
X1577780Y-79020D01*
X1572120Y-86160D01*
X1567080Y-93740D01*
X1562700Y-101700D01*
X1559000Y-110020D01*
X1556020Y-118600D01*
X1553760Y-127420D01*
X1552240Y-136380D01*
X1551480Y-145460D01*
X1551480Y-154540D01*
X1552240Y-163619D01*
X1553760Y-172580D01*
X1556020Y-181400D01*
X1559000Y-189980D01*
X1562700Y-198299D01*
X1567080Y-206260D01*
X1572120Y-213840D01*
X1577780Y-220980D01*
X1584000Y-227600D01*
X1590760Y-233700D01*
X1598000Y-239200D01*
X1605680Y-244060D01*
X1613760Y-248280D01*
X1622140Y-251800D01*
X1630780Y-254620D01*
X1639640Y-256700D01*
X1648640Y-258020D01*
G37*
G36*
X1763160Y-484140D02*
G01*
X1771100Y-483780D01*
X1779000Y-482660D01*
X1786740Y-480800D01*
X1794300Y-478240D01*
X1801560Y-474980D01*
X1808500Y-471040D01*
X1815020Y-466480D01*
X1821100Y-461320D01*
X1826680Y-455620D01*
X1831680Y-449440D01*
X1836080Y-442800D01*
X1839860Y-435780D01*
X1842940Y-428420D01*
X1845340Y-420820D01*
X1847000Y-413040D01*
X1847940Y-405120D01*
X1848120Y-397160D01*
X1847560Y-389200D01*
X1846260Y-381340D01*
X1844240Y-373640D01*
X1841480Y-366160D01*
X1838060Y-358980D01*
X1833959Y-352140D01*
X1829240Y-345720D01*
X1823959Y-339760D01*
X1818120Y-334320D01*
X1811819Y-329460D01*
X1805080Y-325200D01*
X1797960Y-321599D01*
X1790560Y-318680D01*
X1782900Y-316480D01*
X1775060Y-315000D01*
X1767140Y-314240D01*
X1759160Y-314240D01*
X1751240Y-315000D01*
X1743400Y-316480D01*
X1735740Y-318680D01*
X1728340Y-321599D01*
X1721220Y-325200D01*
X1714480Y-329460D01*
X1708180Y-334320D01*
X1702340Y-339760D01*
X1697060Y-345720D01*
X1692340Y-352140D01*
X1688240Y-358980D01*
X1684820Y-366160D01*
X1682060Y-373640D01*
X1680040Y-381340D01*
X1678740Y-389200D01*
X1678180Y-397160D01*
X1678360Y-405120D01*
X1679300Y-413040D01*
X1680960Y-420820D01*
X1683360Y-428420D01*
X1686440Y-435780D01*
X1690220Y-442800D01*
X1694620Y-449440D01*
X1699620Y-455620D01*
X1705200Y-461320D01*
X1711279Y-466480D01*
X1717800Y-471040D01*
X1724740Y-474980D01*
X1732000Y-478240D01*
X1739560Y-480800D01*
X1747300Y-482660D01*
X1755200Y-483780D01*
G37*
G36*
X1330200Y-455200D02*
G01*
X1489800Y-455200D01*
X1492960Y-454880D01*
X1495800Y-454020D01*
X1498440Y-452620D01*
X1500880Y-450600D01*
X1530600Y-420880D01*
X1532620Y-418440D01*
X1534019Y-415800D01*
X1534880Y-412960D01*
X1535200Y-409799D01*
X1535200Y-395820D01*
X1535480Y-394380D01*
X1536260Y-393120D01*
X1537440Y-392239D01*
X1540600Y-390680D01*
X1545080Y-387680D01*
X1549120Y-384120D01*
X1552680Y-380080D01*
X1555680Y-375600D01*
X1558060Y-370760D01*
X1559780Y-365660D01*
X1560840Y-360379D01*
X1561200Y-355000D01*
X1560840Y-349620D01*
X1559780Y-344340D01*
X1558060Y-339240D01*
X1555680Y-334400D01*
X1552680Y-329920D01*
X1549120Y-325880D01*
X1545080Y-322320D01*
X1540600Y-319320D01*
X1535760Y-316940D01*
X1530660Y-315220D01*
X1525380Y-314160D01*
X1520000Y-313800D01*
X1514620Y-314160D01*
X1509340Y-315220D01*
X1504240Y-316940D01*
X1499400Y-319320D01*
X1494920Y-322320D01*
X1490880Y-325880D01*
X1487320Y-329920D01*
X1484319Y-334400D01*
X1481940Y-339240D01*
X1480220Y-344340D01*
X1479160Y-349620D01*
X1478800Y-355000D01*
X1479160Y-360379D01*
X1480220Y-365660D01*
X1481940Y-370760D01*
X1484319Y-375600D01*
X1487320Y-380080D01*
X1490880Y-384120D01*
X1494920Y-387680D01*
X1499400Y-390680D01*
X1502560Y-392239D01*
X1503740Y-393120D01*
X1504520Y-394380D01*
X1504800Y-395820D01*
X1504800Y-402040D01*
X1504500Y-403579D01*
X1503620Y-404880D01*
X1484880Y-423620D01*
X1483580Y-424500D01*
X1482040Y-424799D01*
X1337960Y-424799D01*
X1336420Y-424500D01*
X1335120Y-423620D01*
X1298280Y-386780D01*
X1297480Y-385640D01*
X1297120Y-384300D01*
X1296840Y-381140D01*
X1295840Y-377420D01*
X1294220Y-373900D01*
X1292000Y-370740D01*
X1289259Y-368000D01*
X1286100Y-365780D01*
X1282580Y-364159D01*
X1278860Y-363160D01*
X1275000Y-362819D01*
X1271140Y-363160D01*
X1267420Y-364159D01*
X1263900Y-365780D01*
X1260740Y-368000D01*
X1258000Y-370740D01*
X1255780Y-373900D01*
X1254160Y-377420D01*
X1253160Y-381140D01*
X1252820Y-385000D01*
X1253160Y-388860D01*
X1254160Y-392580D01*
X1255780Y-396100D01*
X1258000Y-399260D01*
X1260740Y-402000D01*
X1263900Y-404219D01*
X1267420Y-405840D01*
X1271140Y-406840D01*
X1274300Y-407120D01*
X1275640Y-407480D01*
X1276780Y-408280D01*
X1319120Y-450600D01*
X1321560Y-452620D01*
X1324199Y-454020D01*
X1327040Y-454880D01*
G37*
G36*
X307720Y-258600D02*
G01*
X316820Y-258400D01*
X325860Y-257460D01*
X334799Y-255760D01*
X343560Y-253299D01*
X352100Y-250140D01*
X360319Y-246260D01*
X368200Y-241720D01*
X375680Y-236520D01*
X382680Y-230720D01*
X389180Y-224360D01*
X395120Y-217480D01*
X400480Y-210120D01*
X405180Y-202320D01*
X409240Y-194180D01*
X412580Y-185720D01*
X415200Y-177020D01*
X417100Y-168120D01*
X418240Y-159080D01*
X418620Y-150000D01*
X418240Y-140920D01*
X417100Y-131880D01*
X415200Y-122980D01*
X412580Y-114280D01*
X409240Y-105820D01*
X405180Y-97680D01*
X400480Y-89880D01*
X395120Y-82540D01*
X389180Y-75640D01*
X382680Y-69280D01*
X375680Y-63480D01*
X368200Y-58280D01*
X360319Y-53740D01*
X352100Y-49860D01*
X343560Y-46700D01*
X334799Y-44240D01*
X325860Y-42539D01*
X316820Y-41600D01*
X307720Y-41400D01*
X298640Y-41980D01*
X289640Y-43300D01*
X280780Y-45380D01*
X272140Y-48200D01*
X263760Y-51720D01*
X255680Y-55940D01*
X248000Y-60800D01*
X240760Y-66300D01*
X234000Y-72400D01*
X227780Y-79020D01*
X222120Y-86160D01*
X217079Y-93740D01*
X212700Y-101700D01*
X209000Y-110020D01*
X206020Y-118600D01*
X203760Y-127420D01*
X202240Y-136380D01*
X201480Y-145460D01*
X201480Y-154540D01*
X202240Y-163619D01*
X203760Y-172580D01*
X206020Y-181400D01*
X209000Y-189980D01*
X212700Y-198299D01*
X217079Y-206260D01*
X222120Y-213840D01*
X227780Y-220980D01*
X234000Y-227600D01*
X240760Y-233700D01*
X248000Y-239200D01*
X255680Y-244060D01*
X263760Y-248280D01*
X272140Y-251800D01*
X280780Y-254620D01*
X289640Y-256700D01*
X298640Y-258020D01*
G37*

%LPD*%
G36*
X1600880Y-2819800D02*
G01*
X1599440Y-2819540D01*
X1598200Y-2818759D01*
X1596140Y-2816900D01*
X1593640Y-2815520D01*
X1591600Y-2814940D01*
X1590880Y-2814920D01*
X1589420Y-2814600D01*
X1588180Y-2813759D01*
X1551380Y-2776940D01*
X1550500Y-2775640D01*
X1550200Y-2774120D01*
X1550200Y-2738340D01*
X1550520Y-2736780D01*
X1551420Y-2735480D01*
X1552760Y-2734620D01*
X1554340Y-2734340D01*
X1555880Y-2734720D01*
X1557160Y-2735659D01*
X1557980Y-2737040D01*
X1559000Y-2739980D01*
X1562700Y-2748300D01*
X1567080Y-2756259D01*
X1572120Y-2763840D01*
X1577780Y-2770980D01*
X1584000Y-2777600D01*
X1590760Y-2783700D01*
X1598000Y-2789200D01*
X1605680Y-2794060D01*
X1613760Y-2798279D01*
X1622140Y-2801800D01*
X1630780Y-2804620D01*
X1639640Y-2806700D01*
X1648640Y-2808020D01*
X1657720Y-2808600D01*
X1666819Y-2808399D01*
X1675860Y-2807460D01*
X1684800Y-2805760D01*
X1693560Y-2803300D01*
X1702100Y-2800140D01*
X1710320Y-2796259D01*
X1718200Y-2791720D01*
X1725680Y-2786520D01*
X1732680Y-2780720D01*
X1739180Y-2774360D01*
X1745120Y-2767480D01*
X1750480Y-2760120D01*
X1755180Y-2752320D01*
X1759240Y-2744180D01*
X1762580Y-2735720D01*
X1765200Y-2727020D01*
X1767100Y-2718120D01*
X1768240Y-2709080D01*
X1768620Y-2700000D01*
X1768240Y-2690920D01*
X1767100Y-2681880D01*
X1765200Y-2672980D01*
X1762580Y-2664280D01*
X1759240Y-2655820D01*
X1755180Y-2647679D01*
X1750480Y-2639880D01*
X1745120Y-2632540D01*
X1739180Y-2625640D01*
X1732680Y-2619280D01*
X1725680Y-2613480D01*
X1724240Y-2612480D01*
X1723100Y-2611259D01*
X1722560Y-2609680D01*
X1722700Y-2608000D01*
X1723540Y-2606540D01*
X1724880Y-2605560D01*
X1726519Y-2605200D01*
X1792280Y-2605200D01*
X1793820Y-2605500D01*
X1795120Y-2606380D01*
X1795740Y-2607000D01*
X1798899Y-2609220D01*
X1802420Y-2610840D01*
X1806140Y-2611840D01*
X1810000Y-2612180D01*
X1813860Y-2611840D01*
X1817580Y-2610840D01*
X1821100Y-2609220D01*
X1824259Y-2607000D01*
X1827000Y-2604260D01*
X1829220Y-2601100D01*
X1830840Y-2597580D01*
X1831840Y-2593860D01*
X1832180Y-2590000D01*
X1831840Y-2586139D01*
X1830840Y-2582420D01*
X1829220Y-2578900D01*
X1825720Y-2574040D01*
X1825420Y-2572500D01*
X1825720Y-2570960D01*
X1829220Y-2566100D01*
X1830840Y-2562580D01*
X1831840Y-2558860D01*
X1832180Y-2555000D01*
X1831840Y-2551140D01*
X1830840Y-2547420D01*
X1829220Y-2543900D01*
X1827000Y-2540740D01*
X1824259Y-2538000D01*
X1821100Y-2535780D01*
X1817580Y-2534160D01*
X1813860Y-2533160D01*
X1810000Y-2532820D01*
X1806140Y-2533160D01*
X1802420Y-2534160D01*
X1798899Y-2535780D01*
X1795740Y-2538000D01*
X1795120Y-2538620D01*
X1793820Y-2539500D01*
X1792280Y-2539800D01*
X1737960Y-2539800D01*
X1736420Y-2539500D01*
X1735120Y-2538620D01*
X1720040Y-2523540D01*
X1719160Y-2522220D01*
X1718860Y-2520680D01*
X1719180Y-2519120D01*
X1720080Y-2517840D01*
X1721399Y-2516980D01*
X1722960Y-2516700D01*
X1724500Y-2517060D01*
X1732000Y-2520440D01*
X1739560Y-2523000D01*
X1747300Y-2524860D01*
X1755200Y-2525980D01*
X1763160Y-2526340D01*
X1771100Y-2525980D01*
X1779000Y-2524860D01*
X1786740Y-2523000D01*
X1794300Y-2520440D01*
X1801560Y-2517180D01*
X1808500Y-2513240D01*
X1815020Y-2508680D01*
X1821100Y-2503520D01*
X1826680Y-2497820D01*
X1831680Y-2491640D01*
X1836080Y-2485000D01*
X1837280Y-2482780D01*
X1838420Y-2481460D01*
X1840020Y-2480740D01*
X1841780Y-2480800D01*
X1843340Y-2481580D01*
X1844420Y-2482960D01*
X1844800Y-2484680D01*
X1844800Y-2624800D01*
X1845120Y-2627960D01*
X1845980Y-2630800D01*
X1847380Y-2633440D01*
X1849400Y-2635880D01*
X1870380Y-2656880D01*
X1871220Y-2658100D01*
X1871560Y-2659540D01*
X1871339Y-2661000D01*
X1870220Y-2664340D01*
X1869160Y-2669620D01*
X1868800Y-2675000D01*
X1869160Y-2680380D01*
X1870220Y-2685659D01*
X1871940Y-2690760D01*
X1874319Y-2695600D01*
X1877320Y-2700080D01*
X1880880Y-2704120D01*
X1884920Y-2707679D01*
X1889400Y-2710680D01*
X1894240Y-2713060D01*
X1899340Y-2714780D01*
X1904620Y-2715840D01*
X1910000Y-2716200D01*
X1915380Y-2715840D01*
X1920660Y-2714780D01*
X1925760Y-2713060D01*
X1930600Y-2710680D01*
X1935080Y-2707679D01*
X1939120Y-2704120D01*
X1942680Y-2700080D01*
X1945680Y-2695600D01*
X1948060Y-2690760D01*
X1949780Y-2685659D01*
X1950380Y-2682660D01*
X1951040Y-2681139D01*
X1952280Y-2680000D01*
X1953860Y-2679480D01*
X1955520Y-2679640D01*
X1956980Y-2680460D01*
X1957960Y-2681820D01*
X1958300Y-2683460D01*
X1958300Y-2775620D01*
X1958000Y-2777140D01*
X1957140Y-2778440D01*
X1916940Y-2818620D01*
X1915640Y-2819500D01*
X1914120Y-2819800D01*
G37*

%LPD*%
G36*
X94980Y-2834800D02*
G01*
X93440Y-2834500D01*
X92140Y-2833620D01*
X11379Y-2752860D01*
X10500Y-2751560D01*
X10200Y-2750020D01*
X10200Y-2071620D01*
X10580Y-2069900D01*
X11680Y-2068520D01*
X13260Y-2067740D01*
X15020Y-2067720D01*
X16620Y-2068440D01*
X18760Y-2070080D01*
X22780Y-2072260D01*
X27080Y-2073800D01*
X31580Y-2074680D01*
X36140Y-2074860D01*
X40679Y-2074319D01*
X41880Y-2074360D01*
X43019Y-2074760D01*
X43980Y-2075480D01*
X45119Y-2076600D01*
X47560Y-2078620D01*
X50199Y-2080020D01*
X53040Y-2080880D01*
X56200Y-2081200D01*
X114560Y-2081200D01*
X115680Y-2081360D01*
X117080Y-2082060D01*
X119240Y-2082800D01*
X121720Y-2083100D01*
X188200Y-2083100D01*
X190680Y-2082800D01*
X192840Y-2082060D01*
X194760Y-2080840D01*
X196380Y-2079240D01*
X197600Y-2077300D01*
X198340Y-2075160D01*
X198619Y-2072660D01*
X198619Y-2059340D01*
X198340Y-2056840D01*
X197600Y-2054700D01*
X196140Y-2052360D01*
X195600Y-2050980D01*
X195600Y-2049500D01*
X196140Y-2048120D01*
X197600Y-2045800D01*
X198340Y-2043660D01*
X198619Y-2041160D01*
X198619Y-2027840D01*
X198460Y-2026420D01*
X198600Y-2024840D01*
X199120Y-2023860D01*
X198060Y-2023380D01*
X197000Y-2022240D01*
X196140Y-2020860D01*
X195600Y-2019480D01*
X195600Y-2018000D01*
X196140Y-2016620D01*
X196620Y-2015840D01*
X197719Y-2014680D01*
X199200Y-2014060D01*
X200780Y-2014040D01*
X202260Y-2014660D01*
X203380Y-2015800D01*
X203960Y-2017280D01*
X204320Y-2019440D01*
X204280Y-2021000D01*
X203760Y-2022200D01*
X205060Y-2022940D01*
X206020Y-2024180D01*
X207620Y-2027420D01*
X210260Y-2031160D01*
X213420Y-2034460D01*
X217060Y-2037220D01*
X221080Y-2039400D01*
X225380Y-2040960D01*
X229880Y-2041819D01*
X234440Y-2042000D01*
X238980Y-2041480D01*
X243400Y-2040260D01*
X247580Y-2038400D01*
X251400Y-2035900D01*
X254820Y-2032860D01*
X257740Y-2029340D01*
X260080Y-2025400D01*
X261780Y-2021160D01*
X262820Y-2016720D01*
X263180Y-2012160D01*
X262820Y-2007580D01*
X261780Y-2003140D01*
X260080Y-1998899D01*
X257740Y-1994960D01*
X254820Y-1991440D01*
X251400Y-1988400D01*
X247580Y-1985900D01*
X243400Y-1984040D01*
X238980Y-1982820D01*
X234440Y-1982300D01*
X229880Y-1982480D01*
X225380Y-1983340D01*
X221080Y-1984900D01*
X217060Y-1987080D01*
X213420Y-1989840D01*
X210260Y-1993140D01*
X207620Y-1996879D01*
X206200Y-1999740D01*
X205080Y-2001120D01*
X203480Y-2001860D01*
X201720Y-2001860D01*
X200120Y-2001080D01*
X199020Y-1999700D01*
X198619Y-1997960D01*
X198619Y-1996339D01*
X198340Y-1993839D01*
X197600Y-1991699D01*
X196140Y-1989379D01*
X195600Y-1988000D01*
X195600Y-1986500D01*
X196140Y-1985120D01*
X197600Y-1982820D01*
X198340Y-1980660D01*
X198619Y-1978180D01*
X198619Y-1964840D01*
X198340Y-1962360D01*
X197600Y-1960200D01*
X196140Y-1957880D01*
X195600Y-1956500D01*
X195600Y-1955000D01*
X196140Y-1953620D01*
X197600Y-1951320D01*
X198340Y-1949160D01*
X198619Y-1946680D01*
X198619Y-1933340D01*
X198340Y-1930860D01*
X197600Y-1928700D01*
X196140Y-1926399D01*
X195600Y-1925000D01*
X195600Y-1923520D01*
X196140Y-1922140D01*
X197600Y-1919820D01*
X198340Y-1917680D01*
X198619Y-1915180D01*
X198619Y-1901860D01*
X198340Y-1899360D01*
X197580Y-1897200D01*
X196119Y-1894820D01*
X195600Y-1893440D01*
X195600Y-1891960D01*
X196140Y-1890600D01*
X197600Y-1888280D01*
X198340Y-1886140D01*
X198619Y-1883640D01*
X198619Y-1870320D01*
X198340Y-1867820D01*
X197600Y-1865680D01*
X196140Y-1863360D01*
X195600Y-1861980D01*
X195600Y-1860480D01*
X196140Y-1859100D01*
X197600Y-1856800D01*
X198340Y-1854640D01*
X198619Y-1852160D01*
X198619Y-1838820D01*
X198340Y-1836339D01*
X197600Y-1834180D01*
X196140Y-1831860D01*
X195600Y-1830480D01*
X195600Y-1828980D01*
X196140Y-1827600D01*
X197600Y-1825300D01*
X198340Y-1823140D01*
X198619Y-1820660D01*
X198619Y-1807320D01*
X198340Y-1804840D01*
X197600Y-1802680D01*
X196140Y-1800360D01*
X195600Y-1798980D01*
X195600Y-1797480D01*
X196140Y-1796100D01*
X197600Y-1793800D01*
X198340Y-1791639D01*
X198619Y-1789160D01*
X198619Y-1775820D01*
X198340Y-1773340D01*
X197600Y-1771180D01*
X196140Y-1768880D01*
X195600Y-1767480D01*
X195600Y-1766000D01*
X196140Y-1764620D01*
X197600Y-1762300D01*
X198340Y-1760160D01*
X198619Y-1757660D01*
X198619Y-1744340D01*
X198340Y-1741840D01*
X197600Y-1739700D01*
X196140Y-1737360D01*
X195600Y-1735980D01*
X195600Y-1734500D01*
X196140Y-1733120D01*
X197600Y-1730800D01*
X198340Y-1728660D01*
X198619Y-1726160D01*
X198619Y-1712840D01*
X198500Y-1711720D01*
X198640Y-1710140D01*
X199420Y-1708720D01*
X197860Y-1708060D01*
X196800Y-1706920D01*
X196119Y-1705860D01*
X195600Y-1704480D01*
X195600Y-1703000D01*
X196140Y-1701620D01*
X196540Y-1700980D01*
X197659Y-1699820D01*
X199140Y-1699180D01*
X200740Y-1699180D01*
X202220Y-1699820D01*
X203320Y-1700980D01*
X203880Y-1702500D01*
X204140Y-1704199D01*
X204080Y-1705760D01*
X203420Y-1707160D01*
X205080Y-1708240D01*
X206060Y-1709500D01*
X207520Y-1712460D01*
X210159Y-1716200D01*
X213320Y-1719500D01*
X216960Y-1722260D01*
X220980Y-1724440D01*
X225280Y-1726000D01*
X229780Y-1726860D01*
X234340Y-1727040D01*
X238880Y-1726519D01*
X243299Y-1725300D01*
X247480Y-1723440D01*
X251300Y-1720940D01*
X254720Y-1717900D01*
X257640Y-1714379D01*
X259980Y-1710440D01*
X261680Y-1706200D01*
X262720Y-1701759D01*
X263080Y-1697200D01*
X262720Y-1692620D01*
X261680Y-1688180D01*
X259980Y-1683940D01*
X257640Y-1680000D01*
X254720Y-1676480D01*
X251300Y-1673440D01*
X247480Y-1670940D01*
X243299Y-1669079D01*
X238880Y-1667860D01*
X234340Y-1667340D01*
X229780Y-1667520D01*
X225280Y-1668380D01*
X220980Y-1669940D01*
X216960Y-1672120D01*
X213320Y-1674880D01*
X210159Y-1678180D01*
X207520Y-1681920D01*
X206200Y-1684580D01*
X205080Y-1685960D01*
X203480Y-1686699D01*
X201720Y-1686699D01*
X200120Y-1685920D01*
X199020Y-1684520D01*
X198619Y-1682800D01*
X198619Y-1681339D01*
X198340Y-1678839D01*
X197600Y-1676699D01*
X196140Y-1674379D01*
X195600Y-1673000D01*
X195600Y-1671500D01*
X196140Y-1670120D01*
X197600Y-1667820D01*
X198340Y-1665660D01*
X198619Y-1663180D01*
X198619Y-1649840D01*
X198340Y-1647360D01*
X197600Y-1645200D01*
X196140Y-1642880D01*
X195600Y-1641500D01*
X195600Y-1640000D01*
X196140Y-1638620D01*
X197600Y-1636320D01*
X198340Y-1634160D01*
X198619Y-1631680D01*
X198619Y-1618340D01*
X198340Y-1615860D01*
X197600Y-1613700D01*
X196140Y-1611399D01*
X195600Y-1610000D01*
X195600Y-1608520D01*
X196140Y-1607140D01*
X197600Y-1604820D01*
X198340Y-1602680D01*
X198619Y-1600180D01*
X198619Y-1586860D01*
X198340Y-1584360D01*
X197600Y-1582220D01*
X196380Y-1580280D01*
X194760Y-1578680D01*
X192840Y-1577460D01*
X190680Y-1576720D01*
X188200Y-1576440D01*
X121720Y-1576440D01*
X119240Y-1576720D01*
X117080Y-1577460D01*
X115680Y-1578160D01*
X114560Y-1578320D01*
X64980Y-1578320D01*
X63640Y-1578080D01*
X62440Y-1577400D01*
X61540Y-1576360D01*
X59440Y-1572820D01*
X56520Y-1569280D01*
X53099Y-1566240D01*
X49040Y-1563660D01*
X47779Y-1562780D01*
X46960Y-1561500D01*
X46680Y-1560000D01*
X46960Y-1558500D01*
X47779Y-1557220D01*
X53099Y-1553760D01*
X56520Y-1550720D01*
X60340Y-1546120D01*
X61540Y-1545440D01*
X62900Y-1545200D01*
X113740Y-1545200D01*
X114840Y-1545360D01*
X115860Y-1545820D01*
X117080Y-1546579D01*
X119240Y-1547320D01*
X121720Y-1547620D01*
X188200Y-1547620D01*
X190680Y-1547320D01*
X192840Y-1546579D01*
X194760Y-1545360D01*
X196380Y-1543760D01*
X197600Y-1541819D01*
X198340Y-1539680D01*
X198619Y-1537180D01*
X198619Y-1523860D01*
X198340Y-1521360D01*
X197600Y-1519220D01*
X196140Y-1516900D01*
X195600Y-1515520D01*
X195600Y-1514019D01*
X196140Y-1512640D01*
X197600Y-1510340D01*
X198340Y-1508180D01*
X198619Y-1505700D01*
X198619Y-1492360D01*
X198340Y-1489880D01*
X197600Y-1487720D01*
X196140Y-1485400D01*
X195600Y-1484019D01*
X195600Y-1482520D01*
X196140Y-1481140D01*
X197600Y-1478839D01*
X198340Y-1476680D01*
X198619Y-1474199D01*
X198619Y-1460860D01*
X198340Y-1458380D01*
X197600Y-1456220D01*
X196140Y-1453920D01*
X195600Y-1452520D01*
X195600Y-1451040D01*
X196140Y-1449660D01*
X197600Y-1447340D01*
X198340Y-1445200D01*
X198619Y-1442700D01*
X198619Y-1429379D01*
X198340Y-1426879D01*
X197600Y-1424740D01*
X196140Y-1422400D01*
X195600Y-1421020D01*
X195600Y-1419540D01*
X196140Y-1418160D01*
X197600Y-1415840D01*
X198340Y-1413700D01*
X198619Y-1411200D01*
X198619Y-1397880D01*
X198340Y-1395380D01*
X197600Y-1393240D01*
X196140Y-1390900D01*
X195600Y-1389520D01*
X195600Y-1388040D01*
X196140Y-1386660D01*
X197600Y-1384340D01*
X198340Y-1382200D01*
X198619Y-1379700D01*
X198619Y-1366380D01*
X198340Y-1363880D01*
X197600Y-1361740D01*
X196140Y-1359420D01*
X195600Y-1358040D01*
X195600Y-1356540D01*
X196140Y-1355160D01*
X197600Y-1352860D01*
X198340Y-1350700D01*
X198619Y-1348220D01*
X198619Y-1334880D01*
X198340Y-1332400D01*
X197600Y-1330240D01*
X196140Y-1327920D01*
X195600Y-1326540D01*
X195600Y-1325040D01*
X196140Y-1323660D01*
X197600Y-1321360D01*
X198340Y-1319199D01*
X198619Y-1316720D01*
X198619Y-1303380D01*
X198340Y-1300900D01*
X197600Y-1298740D01*
X196380Y-1296819D01*
X194760Y-1295200D01*
X192840Y-1294000D01*
X190680Y-1293240D01*
X188200Y-1292960D01*
X121720Y-1292960D01*
X119240Y-1293240D01*
X118420Y-1293520D01*
X116820Y-1293740D01*
X115260Y-1293300D01*
X114000Y-1292300D01*
X111519Y-1289280D01*
X108100Y-1286240D01*
X104280Y-1283760D01*
X100100Y-1281879D01*
X95680Y-1280680D01*
X91140Y-1280140D01*
X86580Y-1280320D01*
X85160Y-1280600D01*
X83640Y-1280600D01*
X82220Y-1280020D01*
X81120Y-1278980D01*
X80500Y-1277580D01*
X80440Y-1276060D01*
X80960Y-1274620D01*
X81780Y-1273260D01*
X83480Y-1269020D01*
X84340Y-1265340D01*
X85120Y-1263760D01*
X86500Y-1262660D01*
X88240Y-1262260D01*
X114560Y-1262260D01*
X115680Y-1262420D01*
X117080Y-1263120D01*
X119240Y-1263860D01*
X121720Y-1264160D01*
X188200Y-1264160D01*
X190680Y-1263860D01*
X192840Y-1263120D01*
X194760Y-1261900D01*
X196380Y-1260300D01*
X197600Y-1258360D01*
X198340Y-1256220D01*
X198619Y-1253720D01*
X198619Y-1240400D01*
X198340Y-1237900D01*
X197600Y-1235760D01*
X196140Y-1233420D01*
X195600Y-1232040D01*
X195600Y-1230560D01*
X196140Y-1229180D01*
X197600Y-1226860D01*
X198340Y-1224720D01*
X198619Y-1222220D01*
X198619Y-1208900D01*
X198340Y-1206400D01*
X197600Y-1204260D01*
X196140Y-1201940D01*
X195600Y-1200560D01*
X195600Y-1199060D01*
X196140Y-1197680D01*
X197600Y-1195380D01*
X198340Y-1193220D01*
X198619Y-1190740D01*
X198619Y-1177400D01*
X198340Y-1174920D01*
X197600Y-1172760D01*
X196140Y-1170440D01*
X195600Y-1169060D01*
X195600Y-1167560D01*
X196140Y-1166180D01*
X197600Y-1163880D01*
X198340Y-1161720D01*
X198619Y-1159240D01*
X198619Y-1145900D01*
X198340Y-1143420D01*
X197600Y-1141260D01*
X196140Y-1138960D01*
X195600Y-1137560D01*
X195600Y-1136080D01*
X196140Y-1134700D01*
X197600Y-1132380D01*
X198340Y-1130240D01*
X198619Y-1127740D01*
X198619Y-1114420D01*
X198340Y-1111920D01*
X197600Y-1109780D01*
X196140Y-1107440D01*
X195600Y-1106060D01*
X195600Y-1104580D01*
X196140Y-1103200D01*
X197600Y-1100880D01*
X198340Y-1098740D01*
X198619Y-1096240D01*
X198619Y-1082920D01*
X198340Y-1080420D01*
X197600Y-1078280D01*
X196140Y-1075940D01*
X195600Y-1074560D01*
X195600Y-1073080D01*
X196140Y-1071700D01*
X197600Y-1069380D01*
X198340Y-1067240D01*
X198619Y-1064740D01*
X198619Y-1051420D01*
X198340Y-1048920D01*
X197600Y-1046780D01*
X196140Y-1044460D01*
X195600Y-1043080D01*
X195600Y-1041580D01*
X196140Y-1040200D01*
X197600Y-1037900D01*
X198340Y-1035740D01*
X198619Y-1033259D01*
X198619Y-1019920D01*
X198340Y-1017440D01*
X197600Y-1015280D01*
X196140Y-1012960D01*
X195600Y-1011580D01*
X195600Y-1010080D01*
X196140Y-1008700D01*
X197600Y-1006400D01*
X198340Y-1004240D01*
X198619Y-1001760D01*
X198619Y-988420D01*
X198340Y-985939D01*
X197600Y-983780D01*
X196140Y-981480D01*
X195600Y-980080D01*
X195600Y-978600D01*
X196140Y-977220D01*
X197600Y-974900D01*
X198340Y-972760D01*
X198619Y-970260D01*
X198619Y-956940D01*
X198340Y-954440D01*
X197600Y-952300D01*
X196380Y-950360D01*
X194760Y-948760D01*
X192840Y-947540D01*
X190680Y-946800D01*
X188200Y-946520D01*
X121720Y-946520D01*
X119240Y-946800D01*
X117080Y-947540D01*
X115160Y-948760D01*
X113539Y-950360D01*
X112320Y-952300D01*
X111580Y-954440D01*
X111300Y-956940D01*
X111300Y-970260D01*
X111580Y-972760D01*
X112320Y-974900D01*
X113780Y-977220D01*
X114320Y-978600D01*
X114320Y-980100D01*
X113780Y-981480D01*
X112320Y-983780D01*
X111580Y-985939D01*
X111300Y-988420D01*
X111300Y-1001760D01*
X111580Y-1004240D01*
X112320Y-1006400D01*
X113780Y-1008720D01*
X114320Y-1010100D01*
X114320Y-1011600D01*
X113780Y-1012980D01*
X112320Y-1015280D01*
X111580Y-1017440D01*
X111300Y-1019920D01*
X111300Y-1033259D01*
X111580Y-1035740D01*
X112320Y-1037900D01*
X113780Y-1040220D01*
X114320Y-1041600D01*
X114320Y-1043080D01*
X113780Y-1044460D01*
X112320Y-1046780D01*
X111580Y-1048920D01*
X111300Y-1051420D01*
X111300Y-1064740D01*
X111580Y-1067240D01*
X112899Y-1070800D01*
X112920Y-1072260D01*
X112400Y-1073620D01*
X111440Y-1074720D01*
X109620Y-1075560D01*
X106980Y-1076960D01*
X104540Y-1078980D01*
X98980Y-1084520D01*
X98020Y-1085240D01*
X96880Y-1085640D01*
X95680Y-1085680D01*
X91140Y-1085140D01*
X86580Y-1085320D01*
X82080Y-1086200D01*
X77780Y-1087740D01*
X73760Y-1089920D01*
X70120Y-1092700D01*
X66960Y-1096000D01*
X64320Y-1099740D01*
X62300Y-1103840D01*
X60920Y-1108200D01*
X60220Y-1112720D01*
X60220Y-1117280D01*
X60740Y-1120700D01*
X60640Y-1122380D01*
X59880Y-1123860D01*
X58560Y-1124900D01*
X52080Y-1126200D01*
X47779Y-1127740D01*
X43760Y-1129920D01*
X40119Y-1132700D01*
X36960Y-1136000D01*
X34320Y-1139740D01*
X32300Y-1143840D01*
X30920Y-1148200D01*
X30219Y-1152720D01*
X30219Y-1157280D01*
X30920Y-1161800D01*
X32380Y-1166340D01*
X32800Y-1167980D01*
X32500Y-1169620D01*
X31580Y-1171000D01*
X30160Y-1171880D01*
X27780Y-1172740D01*
X23760Y-1174920D01*
X20120Y-1177700D01*
X17080Y-1180860D01*
X15780Y-1181760D01*
X14260Y-1182080D01*
X12700Y-1181800D01*
X11379Y-1180940D01*
X10500Y-1179620D01*
X10200Y-1178080D01*
X10200Y-956740D01*
X10500Y-955220D01*
X11359Y-953920D01*
X12660Y-953060D01*
X14180Y-952740D01*
X15700Y-953040D01*
X17000Y-953900D01*
X17880Y-955180D01*
X19120Y-958120D01*
X21860Y-962740D01*
X25200Y-966960D01*
X29060Y-970699D01*
X33380Y-973880D01*
X38080Y-976460D01*
X43099Y-978379D01*
X48320Y-979640D01*
X53660Y-980160D01*
X59020Y-979980D01*
X64320Y-979100D01*
X69440Y-977500D01*
X74320Y-975240D01*
X78840Y-972360D01*
X82940Y-968900D01*
X86540Y-964900D01*
X89580Y-960480D01*
X92000Y-955699D01*
X93760Y-950620D01*
X94840Y-945360D01*
X95200Y-940000D01*
X94840Y-934640D01*
X93760Y-929380D01*
X92000Y-924300D01*
X90640Y-921600D01*
X90220Y-920040D01*
X90440Y-918439D01*
X91300Y-917060D01*
X92620Y-916120D01*
X94200Y-915800D01*
X114560Y-915800D01*
X115680Y-915960D01*
X117080Y-916660D01*
X119240Y-917400D01*
X121720Y-917700D01*
X188200Y-917700D01*
X190680Y-917400D01*
X192840Y-916660D01*
X194760Y-915440D01*
X196380Y-913840D01*
X197600Y-911900D01*
X198340Y-909760D01*
X198619Y-907260D01*
X198619Y-893940D01*
X198340Y-891440D01*
X197600Y-889300D01*
X196140Y-886979D01*
X195600Y-885600D01*
X195600Y-884100D01*
X196140Y-882720D01*
X197600Y-880420D01*
X198340Y-878259D01*
X198619Y-875780D01*
X198619Y-862440D01*
X198340Y-859960D01*
X197600Y-857800D01*
X196140Y-855480D01*
X195600Y-854100D01*
X195600Y-852600D01*
X196140Y-851220D01*
X197600Y-848920D01*
X198340Y-846760D01*
X198619Y-844280D01*
X198619Y-830939D01*
X198340Y-828460D01*
X197600Y-826300D01*
X196140Y-824000D01*
X195600Y-822600D01*
X195600Y-821120D01*
X196140Y-819740D01*
X197600Y-817420D01*
X198340Y-815280D01*
X198619Y-812780D01*
X198619Y-799460D01*
X198340Y-796960D01*
X197600Y-794820D01*
X196140Y-792480D01*
X195600Y-791100D01*
X195600Y-789620D01*
X196140Y-788240D01*
X197600Y-785920D01*
X198340Y-783780D01*
X198619Y-781280D01*
X198619Y-767960D01*
X198140Y-763980D01*
X198520Y-762520D01*
X199400Y-761300D01*
X200660Y-760480D01*
X202140Y-760200D01*
X292820Y-760200D01*
X294300Y-760480D01*
X295560Y-761300D01*
X296440Y-762520D01*
X296820Y-763980D01*
X296340Y-767960D01*
X296340Y-781280D01*
X296620Y-783780D01*
X297360Y-785920D01*
X298820Y-788259D01*
X299360Y-789640D01*
X299360Y-791120D01*
X298820Y-792500D01*
X297360Y-794820D01*
X296620Y-796960D01*
X296340Y-799460D01*
X296340Y-812780D01*
X296620Y-815280D01*
X297360Y-817420D01*
X298820Y-819740D01*
X299360Y-821120D01*
X299360Y-822620D01*
X298820Y-824000D01*
X297360Y-826300D01*
X296620Y-828460D01*
X296340Y-830939D01*
X296340Y-844280D01*
X296620Y-846760D01*
X297360Y-848920D01*
X298820Y-851240D01*
X299360Y-852620D01*
X299360Y-854120D01*
X298820Y-855500D01*
X297360Y-857800D01*
X296620Y-859960D01*
X296340Y-862440D01*
X296340Y-875780D01*
X296620Y-878259D01*
X297360Y-880420D01*
X298820Y-882740D01*
X299360Y-884120D01*
X299360Y-885600D01*
X298820Y-886979D01*
X297360Y-889300D01*
X296620Y-891440D01*
X296340Y-893940D01*
X296340Y-907260D01*
X296620Y-909760D01*
X297360Y-911900D01*
X298820Y-914240D01*
X299360Y-915620D01*
X299360Y-917099D01*
X298820Y-918480D01*
X297360Y-920800D01*
X296620Y-922940D01*
X296340Y-925440D01*
X296340Y-938760D01*
X296620Y-941260D01*
X297360Y-943400D01*
X298820Y-945740D01*
X299360Y-947120D01*
X299360Y-948600D01*
X298820Y-949980D01*
X297360Y-952300D01*
X296620Y-954440D01*
X296340Y-956940D01*
X296340Y-970260D01*
X296620Y-972760D01*
X297360Y-974900D01*
X298820Y-977220D01*
X299360Y-978600D01*
X299360Y-980100D01*
X298820Y-981480D01*
X297360Y-983780D01*
X296620Y-985939D01*
X296340Y-988420D01*
X296340Y-1001760D01*
X296620Y-1004240D01*
X297360Y-1006400D01*
X298820Y-1008720D01*
X299360Y-1010100D01*
X299360Y-1011600D01*
X298820Y-1012980D01*
X297360Y-1015280D01*
X296620Y-1017440D01*
X296340Y-1019920D01*
X296340Y-1033259D01*
X296620Y-1035740D01*
X297360Y-1037900D01*
X298820Y-1040220D01*
X299360Y-1041600D01*
X299360Y-1043080D01*
X298820Y-1044460D01*
X297360Y-1046780D01*
X296620Y-1048920D01*
X296340Y-1051420D01*
X296340Y-1064740D01*
X296620Y-1067240D01*
X297360Y-1069380D01*
X298820Y-1071720D01*
X299360Y-1073100D01*
X299360Y-1074580D01*
X298820Y-1075960D01*
X297360Y-1078280D01*
X296620Y-1080420D01*
X296340Y-1082920D01*
X296340Y-1096240D01*
X296620Y-1098740D01*
X297360Y-1100880D01*
X298820Y-1103220D01*
X299360Y-1104600D01*
X299360Y-1106080D01*
X298820Y-1107460D01*
X297360Y-1109780D01*
X296620Y-1111920D01*
X296340Y-1114420D01*
X296340Y-1127740D01*
X296620Y-1130240D01*
X297360Y-1132380D01*
X298580Y-1134320D01*
X300200Y-1135920D01*
X302120Y-1137140D01*
X304280Y-1137880D01*
X306760Y-1138180D01*
X373240Y-1138180D01*
X375720Y-1137880D01*
X377879Y-1137140D01*
X379799Y-1135920D01*
X381420Y-1134320D01*
X382640Y-1132380D01*
X383380Y-1130240D01*
X383660Y-1127740D01*
X383660Y-1114420D01*
X383380Y-1111920D01*
X382640Y-1109780D01*
X381180Y-1107440D01*
X380640Y-1106060D01*
X380640Y-1104580D01*
X381180Y-1103200D01*
X382640Y-1100880D01*
X383380Y-1098740D01*
X383660Y-1096240D01*
X383660Y-1082920D01*
X383380Y-1080420D01*
X382640Y-1078280D01*
X381180Y-1075940D01*
X380640Y-1074560D01*
X380640Y-1073080D01*
X381180Y-1071700D01*
X382640Y-1069380D01*
X383380Y-1067240D01*
X383660Y-1064740D01*
X383660Y-1051420D01*
X383380Y-1048920D01*
X382640Y-1046780D01*
X381180Y-1044460D01*
X380640Y-1043080D01*
X380640Y-1041580D01*
X381180Y-1040200D01*
X382640Y-1037900D01*
X383380Y-1035740D01*
X383660Y-1033259D01*
X383660Y-1019920D01*
X383380Y-1017440D01*
X382640Y-1015280D01*
X381180Y-1012960D01*
X380640Y-1011580D01*
X380640Y-1010080D01*
X381180Y-1008700D01*
X382640Y-1006400D01*
X383380Y-1004240D01*
X383660Y-1001760D01*
X383660Y-988420D01*
X383380Y-985939D01*
X382640Y-983780D01*
X381180Y-981480D01*
X380640Y-980080D01*
X380640Y-978600D01*
X381180Y-977220D01*
X382640Y-974900D01*
X383380Y-972760D01*
X383660Y-970260D01*
X383660Y-956940D01*
X383380Y-954440D01*
X382640Y-952300D01*
X381180Y-949960D01*
X380640Y-948580D01*
X380640Y-947099D01*
X381180Y-945720D01*
X382640Y-943400D01*
X383380Y-941260D01*
X383660Y-938760D01*
X383660Y-925440D01*
X383380Y-922940D01*
X382640Y-920800D01*
X381180Y-918460D01*
X380640Y-917080D01*
X380640Y-915600D01*
X381180Y-914220D01*
X382640Y-911900D01*
X383380Y-909760D01*
X383660Y-907260D01*
X383660Y-893940D01*
X383380Y-891440D01*
X382640Y-889300D01*
X381180Y-886979D01*
X380640Y-885600D01*
X380640Y-884100D01*
X381180Y-882720D01*
X382640Y-880420D01*
X383380Y-878259D01*
X383660Y-875780D01*
X383660Y-862440D01*
X383380Y-859960D01*
X382640Y-857800D01*
X381180Y-855480D01*
X380640Y-854100D01*
X380640Y-852600D01*
X381180Y-851220D01*
X382640Y-848920D01*
X383380Y-846760D01*
X383660Y-844280D01*
X383660Y-830939D01*
X383380Y-828460D01*
X382640Y-826300D01*
X381180Y-824000D01*
X380640Y-822600D01*
X380640Y-821120D01*
X381180Y-819740D01*
X382640Y-817420D01*
X383380Y-815280D01*
X383660Y-812780D01*
X383660Y-799460D01*
X383380Y-796960D01*
X382640Y-794820D01*
X381180Y-792480D01*
X380640Y-791100D01*
X380640Y-789620D01*
X381180Y-788240D01*
X382640Y-785920D01*
X383380Y-783780D01*
X383660Y-781280D01*
X383660Y-767960D01*
X383380Y-765460D01*
X382640Y-763319D01*
X381760Y-761940D01*
X381260Y-760699D01*
X381180Y-759360D01*
X381540Y-758060D01*
X382320Y-756979D01*
X382960Y-756340D01*
X384159Y-754419D01*
X384920Y-752260D01*
X385200Y-749780D01*
X385200Y-645220D01*
X384960Y-643080D01*
X385180Y-640240D01*
X384960Y-637940D01*
X384260Y-635760D01*
X383080Y-633820D01*
X381500Y-632180D01*
X379600Y-630920D01*
X377460Y-630120D01*
X374980Y-629800D01*
X353860Y-629380D01*
X352920Y-629240D01*
X348860Y-628160D01*
X345000Y-627820D01*
X341140Y-628160D01*
X338340Y-628900D01*
X337220Y-629040D01*
X125420Y-624800D01*
X122940Y-625040D01*
X120760Y-625740D01*
X118740Y-626960D01*
X117700Y-627880D01*
X112860Y-632700D01*
X111359Y-634580D01*
X110380Y-636640D01*
X109880Y-638860D01*
X109800Y-640120D01*
X109800Y-744800D01*
X110040Y-747099D01*
X111440Y-751100D01*
X111580Y-752280D01*
X112320Y-754419D01*
X113780Y-756760D01*
X114320Y-758139D01*
X114320Y-759620D01*
X113780Y-761000D01*
X112320Y-763319D01*
X111580Y-765460D01*
X111300Y-767960D01*
X111300Y-781280D01*
X111580Y-783780D01*
X112320Y-785920D01*
X113780Y-788259D01*
X114320Y-789640D01*
X114320Y-791120D01*
X113780Y-792500D01*
X112320Y-794820D01*
X111580Y-796960D01*
X111300Y-799460D01*
X111300Y-812780D01*
X111580Y-815280D01*
X112320Y-817420D01*
X113780Y-819740D01*
X114320Y-821120D01*
X114320Y-822620D01*
X113780Y-824000D01*
X112320Y-826300D01*
X111580Y-828460D01*
X111300Y-830939D01*
X111300Y-835140D01*
X111000Y-836680D01*
X110120Y-837980D01*
X108820Y-838840D01*
X107300Y-839140D01*
X105760Y-838840D01*
X104460Y-837980D01*
X76380Y-809880D01*
X75500Y-808580D01*
X75200Y-807039D01*
X75200Y-572960D01*
X75500Y-571420D01*
X76380Y-570120D01*
X130120Y-516380D01*
X131420Y-515500D01*
X132960Y-515200D01*
X236680Y-515200D01*
X238220Y-515500D01*
X239520Y-516380D01*
X240380Y-517660D01*
X240680Y-519200D01*
X240380Y-520740D01*
X239520Y-522020D01*
X238220Y-522900D01*
X234820Y-524300D01*
X231080Y-526600D01*
X227740Y-529440D01*
X224899Y-532760D01*
X222620Y-536500D01*
X220940Y-540540D01*
X219920Y-544800D01*
X219579Y-549180D01*
X219920Y-553540D01*
X220940Y-557800D01*
X222620Y-561840D01*
X224899Y-565580D01*
X227740Y-568900D01*
X231080Y-571740D01*
X234820Y-574040D01*
X238860Y-575700D01*
X243120Y-576740D01*
X247480Y-577080D01*
X251840Y-576740D01*
X256100Y-575700D01*
X260140Y-574040D01*
X263880Y-571740D01*
X267220Y-568900D01*
X270060Y-565580D01*
X272340Y-561840D01*
X274020Y-557800D01*
X275040Y-553540D01*
X275380Y-549180D01*
X275040Y-544800D01*
X274020Y-540540D01*
X272340Y-536500D01*
X270060Y-532760D01*
X267220Y-529440D01*
X263880Y-526600D01*
X260140Y-524300D01*
X256740Y-522900D01*
X255440Y-522020D01*
X254579Y-520740D01*
X254280Y-519200D01*
X254579Y-517660D01*
X255440Y-516380D01*
X256740Y-515500D01*
X258280Y-515200D01*
X464799Y-515200D01*
X467960Y-514880D01*
X470800Y-514020D01*
X473440Y-512620D01*
X475880Y-510600D01*
X585120Y-401380D01*
X586420Y-400500D01*
X587960Y-400200D01*
X1037280Y-400200D01*
X1038820Y-400500D01*
X1040120Y-401380D01*
X1040740Y-402000D01*
X1043900Y-404219D01*
X1047420Y-405840D01*
X1051140Y-406840D01*
X1055000Y-407180D01*
X1058860Y-406840D01*
X1062580Y-405840D01*
X1066100Y-404219D01*
X1069260Y-402000D01*
X1072000Y-399260D01*
X1074220Y-396100D01*
X1075100Y-394180D01*
X1076000Y-392960D01*
X1077300Y-392140D01*
X1078800Y-391880D01*
X1080280Y-392200D01*
X1081560Y-393060D01*
X1269120Y-580600D01*
X1271560Y-582620D01*
X1274200Y-584020D01*
X1277040Y-584880D01*
X1280200Y-585200D01*
X1375760Y-585200D01*
X1377480Y-585600D01*
X1378880Y-586700D01*
X1379660Y-588300D01*
X1379660Y-590060D01*
X1378899Y-591660D01*
X1377520Y-592780D01*
X1374400Y-594320D01*
X1369920Y-597320D01*
X1365880Y-600880D01*
X1362320Y-604920D01*
X1359319Y-609400D01*
X1356940Y-614240D01*
X1355220Y-619340D01*
X1354160Y-624620D01*
X1353800Y-630000D01*
X1354160Y-635380D01*
X1355220Y-640660D01*
X1356940Y-645759D01*
X1359319Y-650600D01*
X1362320Y-655080D01*
X1365880Y-659120D01*
X1369920Y-662680D01*
X1374400Y-665680D01*
X1379240Y-668060D01*
X1384340Y-669780D01*
X1389620Y-670840D01*
X1395000Y-671200D01*
X1400380Y-670840D01*
X1405660Y-669780D01*
X1410760Y-668060D01*
X1415600Y-665680D01*
X1420080Y-662680D01*
X1424120Y-659120D01*
X1427680Y-655080D01*
X1430680Y-650600D01*
X1433060Y-645759D01*
X1434780Y-640660D01*
X1435840Y-635380D01*
X1436200Y-630000D01*
X1435840Y-624620D01*
X1434780Y-619340D01*
X1433060Y-614240D01*
X1430680Y-609400D01*
X1427680Y-604920D01*
X1424120Y-600880D01*
X1420080Y-597320D01*
X1415600Y-594320D01*
X1412480Y-592780D01*
X1411100Y-591660D01*
X1410340Y-590060D01*
X1410340Y-588300D01*
X1411120Y-586700D01*
X1412520Y-585600D01*
X1414240Y-585200D01*
X1453839Y-585200D01*
X1455380Y-585500D01*
X1456680Y-586380D01*
X1457540Y-587660D01*
X1457840Y-589200D01*
X1457540Y-590740D01*
X1456680Y-592020D01*
X1456040Y-592660D01*
X1454840Y-594580D01*
X1454079Y-596740D01*
X1453800Y-599220D01*
X1453800Y-660780D01*
X1454079Y-663259D01*
X1454840Y-665420D01*
X1456040Y-667340D01*
X1457660Y-668960D01*
X1459580Y-670160D01*
X1461740Y-670920D01*
X1464220Y-671200D01*
X1525780Y-671200D01*
X1528260Y-670920D01*
X1530420Y-670160D01*
X1532340Y-668960D01*
X1533959Y-667340D01*
X1535160Y-665420D01*
X1535920Y-663259D01*
X1536200Y-660780D01*
X1536200Y-602360D01*
X1536500Y-600820D01*
X1537380Y-599520D01*
X1538660Y-598660D01*
X1540200Y-598360D01*
X1541740Y-598660D01*
X1543020Y-599520D01*
X1548620Y-605120D01*
X1549500Y-606420D01*
X1549800Y-607960D01*
X1549820Y-850540D01*
X1550260Y-853620D01*
X1551260Y-856440D01*
X1552760Y-859000D01*
X1554900Y-861360D01*
X1560220Y-866220D01*
X1561180Y-867560D01*
X1561519Y-869140D01*
X1561200Y-870759D01*
X1560280Y-872099D01*
X1558880Y-872940D01*
X1557780Y-873340D01*
X1553760Y-875520D01*
X1550120Y-878300D01*
X1546960Y-881600D01*
X1544319Y-885340D01*
X1542300Y-889440D01*
X1540920Y-893800D01*
X1539860Y-900440D01*
X1538880Y-901800D01*
X1537420Y-902620D01*
X1535760Y-902780D01*
X1531140Y-902240D01*
X1526579Y-902420D01*
X1522080Y-903300D01*
X1517780Y-904840D01*
X1513760Y-907020D01*
X1510120Y-909800D01*
X1506960Y-913100D01*
X1504319Y-916840D01*
X1502300Y-920939D01*
X1500920Y-925300D01*
X1500220Y-929820D01*
X1500220Y-934380D01*
X1500920Y-938900D01*
X1502300Y-943259D01*
X1504319Y-947360D01*
X1506960Y-951100D01*
X1510120Y-954400D01*
X1513760Y-957180D01*
X1517340Y-959120D01*
X1518500Y-960080D01*
X1519240Y-961420D01*
X1519420Y-962940D01*
X1519000Y-964400D01*
X1518080Y-965620D01*
X1516780Y-966400D01*
X1512780Y-967840D01*
X1508760Y-970020D01*
X1505120Y-972780D01*
X1501960Y-976080D01*
X1499319Y-979820D01*
X1497300Y-983920D01*
X1495920Y-988280D01*
X1495220Y-992800D01*
X1495220Y-997380D01*
X1495920Y-1001900D01*
X1497300Y-1006260D01*
X1499319Y-1010360D01*
X1501960Y-1014100D01*
X1505120Y-1017400D01*
X1508760Y-1020160D01*
X1512780Y-1022340D01*
X1517080Y-1023900D01*
X1521579Y-1024760D01*
X1526140Y-1024940D01*
X1530680Y-1024419D01*
X1535100Y-1023199D01*
X1539280Y-1021340D01*
X1543100Y-1018840D01*
X1546519Y-1015800D01*
X1550340Y-1011200D01*
X1551540Y-1010520D01*
X1552900Y-1010300D01*
X1588120Y-1010300D01*
X1589620Y-1010580D01*
X1590900Y-1011400D01*
X1591780Y-1012640D01*
X1592120Y-1014120D01*
X1591900Y-1015620D01*
X1591260Y-1017440D01*
X1590980Y-1019920D01*
X1590980Y-1028820D01*
X1590620Y-1030500D01*
X1589600Y-1031860D01*
X1588100Y-1032660D01*
X1586399Y-1032780D01*
X1584820Y-1032180D01*
X1584280Y-1031840D01*
X1580100Y-1029960D01*
X1575680Y-1028760D01*
X1571140Y-1028220D01*
X1566579Y-1028400D01*
X1562080Y-1029280D01*
X1557780Y-1030819D01*
X1553760Y-1033000D01*
X1550120Y-1035780D01*
X1546960Y-1039080D01*
X1544319Y-1042820D01*
X1542300Y-1046919D01*
X1540920Y-1051280D01*
X1540220Y-1055800D01*
X1540220Y-1057620D01*
X1539940Y-1059060D01*
X1539180Y-1060300D01*
X1538020Y-1061200D01*
X1536620Y-1061600D01*
X1535160Y-1061480D01*
X1530680Y-1060260D01*
X1526140Y-1059720D01*
X1521579Y-1059900D01*
X1517080Y-1060780D01*
X1512780Y-1062320D01*
X1508760Y-1064500D01*
X1505120Y-1067280D01*
X1501960Y-1070580D01*
X1499319Y-1074320D01*
X1497300Y-1078420D01*
X1495920Y-1082780D01*
X1495220Y-1087300D01*
X1495220Y-1091860D01*
X1495920Y-1096380D01*
X1497300Y-1100740D01*
X1499319Y-1104840D01*
X1501960Y-1108580D01*
X1505120Y-1111880D01*
X1508760Y-1114660D01*
X1512780Y-1116840D01*
X1514100Y-1117320D01*
X1515480Y-1118160D01*
X1516399Y-1119480D01*
X1516740Y-1121080D01*
X1516399Y-1122660D01*
X1515480Y-1124000D01*
X1514100Y-1124840D01*
X1512780Y-1125320D01*
X1508760Y-1127500D01*
X1505120Y-1130260D01*
X1501960Y-1133560D01*
X1499319Y-1137300D01*
X1497300Y-1141400D01*
X1495920Y-1145760D01*
X1495220Y-1150280D01*
X1495220Y-1154860D01*
X1495920Y-1159380D01*
X1497300Y-1163740D01*
X1499319Y-1167840D01*
X1501960Y-1171580D01*
X1505120Y-1174880D01*
X1509000Y-1177780D01*
X1510280Y-1178880D01*
X1511000Y-1180440D01*
X1511000Y-1182140D01*
X1510280Y-1183680D01*
X1505120Y-1187700D01*
X1501960Y-1191000D01*
X1499319Y-1194740D01*
X1497300Y-1198840D01*
X1495920Y-1203200D01*
X1495220Y-1207720D01*
X1495220Y-1212280D01*
X1495920Y-1216800D01*
X1497300Y-1221160D01*
X1499319Y-1225260D01*
X1501960Y-1229000D01*
X1505120Y-1232300D01*
X1508760Y-1235080D01*
X1512780Y-1237260D01*
X1517080Y-1238800D01*
X1521579Y-1239680D01*
X1526140Y-1239860D01*
X1530680Y-1239320D01*
X1535540Y-1237960D01*
X1537120Y-1237840D01*
X1538640Y-1238360D01*
X1539820Y-1239400D01*
X1540500Y-1240840D01*
X1540580Y-1242420D01*
X1540220Y-1244780D01*
X1540220Y-1246600D01*
X1539940Y-1248040D01*
X1539180Y-1249280D01*
X1538020Y-1250180D01*
X1536620Y-1250580D01*
X1535160Y-1250460D01*
X1530680Y-1249240D01*
X1526140Y-1248700D01*
X1521579Y-1248880D01*
X1517080Y-1249760D01*
X1512780Y-1251300D01*
X1508760Y-1253480D01*
X1505120Y-1256260D01*
X1501960Y-1259560D01*
X1499319Y-1263300D01*
X1497300Y-1267400D01*
X1495920Y-1271760D01*
X1495220Y-1276280D01*
X1495220Y-1280840D01*
X1495920Y-1285360D01*
X1497300Y-1289720D01*
X1499319Y-1293820D01*
X1501960Y-1297560D01*
X1505120Y-1300860D01*
X1508760Y-1303640D01*
X1512780Y-1305820D01*
X1517080Y-1307360D01*
X1521579Y-1308240D01*
X1526140Y-1308420D01*
X1530680Y-1307880D01*
X1535100Y-1306680D01*
X1539280Y-1304800D01*
X1543100Y-1302320D01*
X1546519Y-1299280D01*
X1550340Y-1294680D01*
X1551540Y-1294000D01*
X1552900Y-1293760D01*
X1588120Y-1293760D01*
X1589620Y-1294040D01*
X1590880Y-1294860D01*
X1591759Y-1296100D01*
X1592120Y-1297580D01*
X1591900Y-1299079D01*
X1591260Y-1300900D01*
X1590980Y-1303380D01*
X1590980Y-1316720D01*
X1591260Y-1319199D01*
X1592020Y-1321360D01*
X1593480Y-1323680D01*
X1594019Y-1325060D01*
X1594019Y-1326560D01*
X1593480Y-1327940D01*
X1592020Y-1330240D01*
X1591260Y-1332400D01*
X1590980Y-1334880D01*
X1590980Y-1348220D01*
X1591260Y-1350700D01*
X1592020Y-1352860D01*
X1593480Y-1355180D01*
X1594019Y-1356560D01*
X1594019Y-1358040D01*
X1593480Y-1359420D01*
X1592020Y-1361740D01*
X1591260Y-1363880D01*
X1590980Y-1366380D01*
X1590980Y-1379700D01*
X1591260Y-1382200D01*
X1591900Y-1384019D01*
X1592120Y-1385520D01*
X1591780Y-1387000D01*
X1590900Y-1388240D01*
X1589620Y-1389060D01*
X1588120Y-1389340D01*
X1552900Y-1389340D01*
X1551540Y-1389100D01*
X1550340Y-1388420D01*
X1546519Y-1383820D01*
X1543100Y-1380780D01*
X1539280Y-1378300D01*
X1535100Y-1376420D01*
X1530680Y-1375220D01*
X1526140Y-1374680D01*
X1521579Y-1374860D01*
X1517080Y-1375740D01*
X1512780Y-1377280D01*
X1508760Y-1379460D01*
X1505120Y-1382240D01*
X1501960Y-1385540D01*
X1499319Y-1389280D01*
X1497300Y-1393380D01*
X1495920Y-1397740D01*
X1495220Y-1402260D01*
X1495220Y-1406819D01*
X1495920Y-1411339D01*
X1497300Y-1415700D01*
X1499319Y-1419800D01*
X1501960Y-1423540D01*
X1505120Y-1426840D01*
X1508760Y-1429620D01*
X1512780Y-1431800D01*
X1514100Y-1432280D01*
X1515480Y-1433120D01*
X1516399Y-1434440D01*
X1516740Y-1436040D01*
X1516399Y-1437620D01*
X1515480Y-1438959D01*
X1514100Y-1439800D01*
X1512780Y-1440280D01*
X1508760Y-1442460D01*
X1505120Y-1445220D01*
X1501960Y-1448520D01*
X1499319Y-1452260D01*
X1497300Y-1456360D01*
X1495920Y-1460720D01*
X1495220Y-1465240D01*
X1495220Y-1469820D01*
X1495920Y-1474340D01*
X1497300Y-1478700D01*
X1499319Y-1482800D01*
X1501960Y-1486540D01*
X1505120Y-1489840D01*
X1508760Y-1492600D01*
X1512780Y-1494780D01*
X1517080Y-1496339D01*
X1521579Y-1497200D01*
X1526140Y-1497380D01*
X1530680Y-1496860D01*
X1535100Y-1495640D01*
X1539280Y-1493779D01*
X1543100Y-1491279D01*
X1546519Y-1488240D01*
X1550340Y-1483640D01*
X1551540Y-1482960D01*
X1552900Y-1482740D01*
X1588120Y-1482740D01*
X1589620Y-1483020D01*
X1590900Y-1483839D01*
X1591780Y-1485080D01*
X1592120Y-1486560D01*
X1591900Y-1488060D01*
X1591260Y-1489880D01*
X1590980Y-1492360D01*
X1590980Y-1501279D01*
X1590620Y-1502940D01*
X1589600Y-1504300D01*
X1588100Y-1505120D01*
X1586399Y-1505240D01*
X1584820Y-1504640D01*
X1584280Y-1504280D01*
X1580100Y-1502420D01*
X1575680Y-1501200D01*
X1571140Y-1500680D01*
X1566579Y-1500860D01*
X1562080Y-1501720D01*
X1557780Y-1503280D01*
X1553760Y-1505460D01*
X1550120Y-1508220D01*
X1546960Y-1511519D01*
X1544319Y-1515260D01*
X1542300Y-1519360D01*
X1540920Y-1523720D01*
X1540220Y-1528240D01*
X1540220Y-1530060D01*
X1539940Y-1531500D01*
X1539180Y-1532740D01*
X1538020Y-1533640D01*
X1536620Y-1534040D01*
X1535160Y-1533920D01*
X1530680Y-1532700D01*
X1526140Y-1532160D01*
X1521579Y-1532340D01*
X1517080Y-1533220D01*
X1512780Y-1534760D01*
X1508760Y-1536940D01*
X1505120Y-1539720D01*
X1501960Y-1543020D01*
X1499319Y-1546759D01*
X1497300Y-1550860D01*
X1495920Y-1555220D01*
X1495220Y-1559740D01*
X1495220Y-1564300D01*
X1495920Y-1568820D01*
X1497300Y-1573180D01*
X1499319Y-1577280D01*
X1501960Y-1581020D01*
X1505120Y-1584319D01*
X1508760Y-1587100D01*
X1512780Y-1589280D01*
X1517080Y-1590820D01*
X1521579Y-1591699D01*
X1526140Y-1591879D01*
X1530680Y-1591339D01*
X1535160Y-1590120D01*
X1536620Y-1590000D01*
X1538020Y-1590400D01*
X1539180Y-1591300D01*
X1539940Y-1592540D01*
X1540220Y-1593980D01*
X1540220Y-1595840D01*
X1540920Y-1600360D01*
X1542300Y-1604720D01*
X1544319Y-1608820D01*
X1546960Y-1612560D01*
X1550120Y-1615860D01*
X1553760Y-1618640D01*
X1557780Y-1620820D01*
X1559100Y-1621300D01*
X1560480Y-1622140D01*
X1561399Y-1623460D01*
X1561740Y-1625060D01*
X1561399Y-1626639D01*
X1560480Y-1627980D01*
X1559100Y-1628820D01*
X1557780Y-1629300D01*
X1553760Y-1631480D01*
X1550120Y-1634240D01*
X1546960Y-1637540D01*
X1544319Y-1641279D01*
X1542300Y-1645380D01*
X1540920Y-1649740D01*
X1540220Y-1654259D01*
X1540220Y-1656080D01*
X1539940Y-1657520D01*
X1539180Y-1658760D01*
X1538020Y-1659660D01*
X1536620Y-1660060D01*
X1535160Y-1659940D01*
X1530680Y-1658720D01*
X1526140Y-1658180D01*
X1521579Y-1658360D01*
X1517080Y-1659240D01*
X1512780Y-1660780D01*
X1508760Y-1662960D01*
X1505120Y-1665740D01*
X1501960Y-1669040D01*
X1499319Y-1672780D01*
X1497300Y-1676879D01*
X1495920Y-1681240D01*
X1495220Y-1685760D01*
X1495220Y-1690320D01*
X1495920Y-1694840D01*
X1497300Y-1699199D01*
X1499319Y-1703300D01*
X1501960Y-1707040D01*
X1505120Y-1710340D01*
X1508760Y-1713120D01*
X1512780Y-1715300D01*
X1514100Y-1715780D01*
X1515480Y-1716620D01*
X1516420Y-1717960D01*
X1516759Y-1719540D01*
X1516420Y-1721120D01*
X1515480Y-1722460D01*
X1514100Y-1723300D01*
X1512780Y-1723779D01*
X1508760Y-1725960D01*
X1505120Y-1728740D01*
X1501960Y-1732040D01*
X1499319Y-1735780D01*
X1497300Y-1739880D01*
X1495920Y-1744240D01*
X1495220Y-1748760D01*
X1495220Y-1753320D01*
X1495920Y-1757840D01*
X1497300Y-1762200D01*
X1499319Y-1766300D01*
X1501960Y-1770040D01*
X1505120Y-1773340D01*
X1508760Y-1776120D01*
X1512780Y-1778300D01*
X1514100Y-1778779D01*
X1515480Y-1779620D01*
X1516399Y-1780940D01*
X1516740Y-1782540D01*
X1516399Y-1784120D01*
X1515480Y-1785460D01*
X1514100Y-1786300D01*
X1512780Y-1786780D01*
X1508760Y-1788959D01*
X1505120Y-1791720D01*
X1501960Y-1795020D01*
X1499319Y-1798760D01*
X1497300Y-1802860D01*
X1495920Y-1807220D01*
X1495220Y-1811740D01*
X1495220Y-1816320D01*
X1495920Y-1820840D01*
X1497300Y-1825200D01*
X1499319Y-1829300D01*
X1501960Y-1833040D01*
X1505120Y-1836339D01*
X1508760Y-1839100D01*
X1512780Y-1841279D01*
X1517080Y-1842840D01*
X1521579Y-1843700D01*
X1526140Y-1843880D01*
X1530680Y-1843360D01*
X1535100Y-1842140D01*
X1539280Y-1840280D01*
X1543100Y-1837780D01*
X1546519Y-1834740D01*
X1550340Y-1830140D01*
X1551540Y-1829460D01*
X1552900Y-1829240D01*
X1594259Y-1829240D01*
X1595360Y-1829379D01*
X1596780Y-1830080D01*
X1598920Y-1830840D01*
X1601420Y-1831120D01*
X1665800Y-1831120D01*
X1667340Y-1831420D01*
X1668620Y-1832300D01*
X1669500Y-1833580D01*
X1669800Y-1835120D01*
X1669800Y-1855940D01*
X1669500Y-1857460D01*
X1668620Y-1858760D01*
X1667340Y-1859620D01*
X1665800Y-1859940D01*
X1601420Y-1859940D01*
X1598920Y-1860220D01*
X1596780Y-1860960D01*
X1595400Y-1861639D01*
X1594280Y-1861800D01*
X1578200Y-1861800D01*
X1575040Y-1862120D01*
X1572200Y-1862980D01*
X1569560Y-1864379D01*
X1567120Y-1866399D01*
X1522020Y-1911480D01*
X1520740Y-1912340D01*
X1519199Y-1912640D01*
X1517660Y-1912340D01*
X1516380Y-1911480D01*
X1515500Y-1910180D01*
X1515200Y-1908640D01*
X1515200Y-1880200D01*
X1514880Y-1877040D01*
X1514019Y-1874199D01*
X1512620Y-1871560D01*
X1510600Y-1869120D01*
X1391380Y-1749880D01*
X1390500Y-1748580D01*
X1390200Y-1747040D01*
X1390200Y-1732720D01*
X1390500Y-1731180D01*
X1391380Y-1729880D01*
X1392000Y-1729259D01*
X1394220Y-1726100D01*
X1395840Y-1722580D01*
X1396840Y-1718860D01*
X1397180Y-1715000D01*
X1396840Y-1711140D01*
X1395840Y-1707420D01*
X1394220Y-1703899D01*
X1393420Y-1702780D01*
X1392880Y-1701680D01*
X1392700Y-1700480D01*
X1392680Y-1619319D01*
X1392220Y-1615960D01*
X1391180Y-1612860D01*
X1389580Y-1610000D01*
X1387380Y-1607360D01*
X1332860Y-1552820D01*
X1332220Y-1552000D01*
X1331819Y-1551020D01*
X1330840Y-1547420D01*
X1329220Y-1543899D01*
X1327000Y-1540740D01*
X1324259Y-1538000D01*
X1321100Y-1535780D01*
X1317580Y-1534160D01*
X1313860Y-1533160D01*
X1310000Y-1532820D01*
X1306140Y-1533160D01*
X1302420Y-1534160D01*
X1298899Y-1535780D01*
X1297780Y-1536579D01*
X1296680Y-1537120D01*
X1295480Y-1537300D01*
X1229200Y-1537300D01*
X1227660Y-1537000D01*
X1226380Y-1536120D01*
X1225500Y-1534840D01*
X1225200Y-1533300D01*
X1225200Y-1437720D01*
X1225500Y-1436180D01*
X1226380Y-1434880D01*
X1227000Y-1434259D01*
X1229220Y-1431100D01*
X1230840Y-1427580D01*
X1231840Y-1423860D01*
X1232180Y-1420000D01*
X1231840Y-1416140D01*
X1230840Y-1412420D01*
X1229220Y-1408899D01*
X1227000Y-1405740D01*
X1224260Y-1403000D01*
X1221100Y-1400780D01*
X1217580Y-1399160D01*
X1213860Y-1398160D01*
X1210000Y-1397820D01*
X1206140Y-1398160D01*
X1202420Y-1399160D01*
X1198900Y-1400780D01*
X1195740Y-1403000D01*
X1193000Y-1405740D01*
X1190780Y-1408899D01*
X1189160Y-1412420D01*
X1188160Y-1416140D01*
X1187820Y-1420000D01*
X1188160Y-1423860D01*
X1189160Y-1427580D01*
X1190780Y-1431100D01*
X1193000Y-1434259D01*
X1193620Y-1434880D01*
X1194500Y-1436180D01*
X1194800Y-1437720D01*
X1194800Y-1530500D01*
X1194520Y-1531960D01*
X1193700Y-1533240D01*
X1192500Y-1534120D01*
X1188900Y-1535780D01*
X1185740Y-1538000D01*
X1183000Y-1540740D01*
X1180780Y-1543899D01*
X1179160Y-1547420D01*
X1178160Y-1551140D01*
X1177820Y-1555000D01*
X1178160Y-1558860D01*
X1179160Y-1562580D01*
X1180780Y-1566100D01*
X1183000Y-1569259D01*
X1185740Y-1572000D01*
X1188900Y-1574220D01*
X1192420Y-1575840D01*
X1196140Y-1576840D01*
X1200000Y-1577180D01*
X1203860Y-1576840D01*
X1207580Y-1575840D01*
X1211100Y-1574220D01*
X1212220Y-1573420D01*
X1213320Y-1572880D01*
X1214520Y-1572700D01*
X1295480Y-1572700D01*
X1296680Y-1572880D01*
X1297780Y-1573420D01*
X1298899Y-1574220D01*
X1302420Y-1575840D01*
X1306020Y-1576819D01*
X1307000Y-1577220D01*
X1307820Y-1577860D01*
X1356120Y-1626160D01*
X1357000Y-1627460D01*
X1357300Y-1628980D01*
X1357300Y-1700480D01*
X1357120Y-1701680D01*
X1356579Y-1702780D01*
X1355780Y-1703899D01*
X1354160Y-1707420D01*
X1353640Y-1709340D01*
X1352840Y-1710880D01*
X1351459Y-1711920D01*
X1349780Y-1712300D01*
X1334319Y-1712320D01*
X1330960Y-1712780D01*
X1327860Y-1713820D01*
X1325000Y-1715420D01*
X1322360Y-1717620D01*
X1257020Y-1782980D01*
X1254960Y-1785700D01*
X1253520Y-1788620D01*
X1252620Y-1791759D01*
X1252300Y-1795180D01*
X1252300Y-1835480D01*
X1252120Y-1836680D01*
X1251580Y-1837780D01*
X1250780Y-1838899D01*
X1249160Y-1842420D01*
X1248160Y-1846140D01*
X1247820Y-1850000D01*
X1248160Y-1853860D01*
X1249160Y-1857580D01*
X1250780Y-1861100D01*
X1253000Y-1864259D01*
X1255740Y-1867000D01*
X1258900Y-1869220D01*
X1262420Y-1870840D01*
X1266140Y-1871840D01*
X1270000Y-1872180D01*
X1273860Y-1871840D01*
X1277580Y-1870840D01*
X1281100Y-1869220D01*
X1284259Y-1867000D01*
X1287000Y-1864259D01*
X1289220Y-1861100D01*
X1290840Y-1857580D01*
X1291840Y-1853860D01*
X1292180Y-1850000D01*
X1291840Y-1846140D01*
X1290840Y-1842420D01*
X1289220Y-1838899D01*
X1288420Y-1837780D01*
X1287880Y-1836680D01*
X1287700Y-1835480D01*
X1287700Y-1803980D01*
X1288000Y-1802460D01*
X1288880Y-1801160D01*
X1341160Y-1748880D01*
X1342460Y-1748000D01*
X1343980Y-1747700D01*
X1355800Y-1747700D01*
X1357340Y-1748000D01*
X1358620Y-1748880D01*
X1359500Y-1750160D01*
X1359800Y-1751699D01*
X1359800Y-1754800D01*
X1360120Y-1757960D01*
X1360980Y-1760800D01*
X1362380Y-1763440D01*
X1364400Y-1765880D01*
X1483620Y-1885120D01*
X1484500Y-1886420D01*
X1484800Y-1887960D01*
X1484800Y-1949640D01*
X1484500Y-1951180D01*
X1483620Y-1952480D01*
X1482340Y-1953340D01*
X1480800Y-1953640D01*
X1479259Y-1953340D01*
X1477980Y-1952480D01*
X1476279Y-1950780D01*
X1472900Y-1948360D01*
X1469160Y-1946540D01*
X1465160Y-1945340D01*
X1461040Y-1944840D01*
X1456879Y-1945000D01*
X1452820Y-1945860D01*
X1448940Y-1947380D01*
X1445360Y-1949500D01*
X1442060Y-1952300D01*
X1370740Y-2023620D01*
X1369440Y-2024500D01*
X1367900Y-2024800D01*
X1050800Y-2024800D01*
X1049160Y-2024440D01*
X1047820Y-2023460D01*
X1046979Y-2022000D01*
X1046820Y-2020340D01*
X1047360Y-2018740D01*
X1048500Y-2017520D01*
X1049260Y-2017000D01*
X1052000Y-2014259D01*
X1054220Y-2011100D01*
X1055840Y-2007580D01*
X1056840Y-2003860D01*
X1057120Y-2000700D01*
X1057480Y-1999360D01*
X1058280Y-1998220D01*
X1090600Y-1965880D01*
X1092620Y-1963440D01*
X1094020Y-1960800D01*
X1094880Y-1957960D01*
X1095200Y-1954800D01*
X1095200Y-1697720D01*
X1095500Y-1696180D01*
X1096380Y-1694880D01*
X1097000Y-1694259D01*
X1099220Y-1691100D01*
X1100840Y-1687580D01*
X1101840Y-1683860D01*
X1102180Y-1680000D01*
X1101840Y-1676140D01*
X1100840Y-1672420D01*
X1099220Y-1668899D01*
X1097000Y-1665740D01*
X1094260Y-1663000D01*
X1091100Y-1660780D01*
X1087580Y-1659160D01*
X1083860Y-1658160D01*
X1079880Y-1657800D01*
X1078440Y-1657400D01*
X1077240Y-1656480D01*
X1076480Y-1655180D01*
X1076240Y-1653700D01*
X1076560Y-1652240D01*
X1077400Y-1651000D01*
X1082020Y-1646380D01*
X1083320Y-1645500D01*
X1084860Y-1645200D01*
X1090140Y-1645200D01*
X1091820Y-1645580D01*
X1092420Y-1645840D01*
X1096140Y-1646840D01*
X1100000Y-1647180D01*
X1103820Y-1646860D01*
X1105540Y-1647080D01*
X1107000Y-1648000D01*
X1107920Y-1649460D01*
X1108140Y-1651180D01*
X1107820Y-1655000D01*
X1108160Y-1658860D01*
X1109160Y-1662580D01*
X1110780Y-1666100D01*
X1113000Y-1669259D01*
X1113620Y-1669880D01*
X1114500Y-1671180D01*
X1114800Y-1672720D01*
X1114800Y-1962280D01*
X1114500Y-1963820D01*
X1113620Y-1965120D01*
X1113000Y-1965740D01*
X1110780Y-1968899D01*
X1109160Y-1972420D01*
X1108160Y-1976140D01*
X1107820Y-1980000D01*
X1108160Y-1983860D01*
X1109160Y-1987580D01*
X1110780Y-1991100D01*
X1113000Y-1994259D01*
X1115740Y-1997000D01*
X1118900Y-1999220D01*
X1122420Y-2000840D01*
X1126140Y-2001840D01*
X1130000Y-2002180D01*
X1133860Y-2001840D01*
X1137580Y-2000840D01*
X1141100Y-1999220D01*
X1144260Y-1997000D01*
X1147000Y-1994259D01*
X1149220Y-1991100D01*
X1150840Y-1987580D01*
X1151840Y-1983860D01*
X1152180Y-1980000D01*
X1151840Y-1976140D01*
X1150840Y-1972420D01*
X1149220Y-1968899D01*
X1147000Y-1965740D01*
X1146380Y-1965120D01*
X1145500Y-1963820D01*
X1145200Y-1962280D01*
X1145200Y-1672720D01*
X1145500Y-1671180D01*
X1146380Y-1669880D01*
X1147000Y-1669259D01*
X1149220Y-1666100D01*
X1150840Y-1662580D01*
X1151840Y-1658860D01*
X1152180Y-1655000D01*
X1151840Y-1651140D01*
X1150840Y-1647420D01*
X1149220Y-1643899D01*
X1147000Y-1640740D01*
X1144260Y-1638000D01*
X1141100Y-1635780D01*
X1137580Y-1634160D01*
X1133860Y-1633160D01*
X1130000Y-1632820D01*
X1126180Y-1633140D01*
X1124460Y-1632920D01*
X1123000Y-1632000D01*
X1122080Y-1630540D01*
X1121860Y-1628820D01*
X1122180Y-1625000D01*
X1121840Y-1621140D01*
X1120840Y-1617420D01*
X1119220Y-1613899D01*
X1117000Y-1610740D01*
X1114260Y-1608000D01*
X1111100Y-1605780D01*
X1107580Y-1604160D01*
X1103860Y-1603160D01*
X1100000Y-1602820D01*
X1096140Y-1603160D01*
X1092420Y-1604160D01*
X1088900Y-1605780D01*
X1085740Y-1608000D01*
X1083000Y-1610740D01*
X1081360Y-1613100D01*
X1080460Y-1614000D01*
X1079340Y-1614600D01*
X1073940Y-1615120D01*
X1071100Y-1615980D01*
X1068460Y-1617380D01*
X1066020Y-1619400D01*
X1051420Y-1633980D01*
X1050100Y-1634860D01*
X1048560Y-1635140D01*
X1047000Y-1634820D01*
X1045699Y-1633899D01*
X1044860Y-1632560D01*
X1044599Y-1631000D01*
X1044980Y-1629460D01*
X1045840Y-1627580D01*
X1046840Y-1623860D01*
X1047180Y-1620000D01*
X1046840Y-1616140D01*
X1045840Y-1612420D01*
X1044220Y-1608899D01*
X1042000Y-1605740D01*
X1039260Y-1603000D01*
X1036100Y-1600780D01*
X1032580Y-1599160D01*
X1028860Y-1598160D01*
X1025000Y-1597820D01*
X1021140Y-1598160D01*
X1017420Y-1599160D01*
X1013900Y-1600780D01*
X1010740Y-1603000D01*
X1008000Y-1605740D01*
X1006200Y-1608320D01*
X1004920Y-1609480D01*
X1003280Y-1610000D01*
X1001560Y-1609780D01*
X1000100Y-1608839D01*
X999260Y-1608000D01*
X996100Y-1605780D01*
X992580Y-1604160D01*
X988860Y-1603160D01*
X985000Y-1602820D01*
X981140Y-1603160D01*
X977420Y-1604160D01*
X973900Y-1605780D01*
X970740Y-1608000D01*
X968000Y-1610740D01*
X965780Y-1613899D01*
X964680Y-1616260D01*
X963680Y-1617600D01*
X962240Y-1618400D01*
X960580Y-1618540D01*
X959000Y-1618000D01*
X957780Y-1616879D01*
X957000Y-1615740D01*
X954260Y-1613000D01*
X951100Y-1610780D01*
X947580Y-1609160D01*
X943860Y-1608160D01*
X940000Y-1607820D01*
X936140Y-1608160D01*
X932420Y-1609160D01*
X928900Y-1610780D01*
X925740Y-1613000D01*
X923000Y-1615740D01*
X920780Y-1618899D01*
X919160Y-1622420D01*
X918160Y-1626140D01*
X917880Y-1629300D01*
X917520Y-1630640D01*
X916720Y-1631780D01*
X913880Y-1634640D01*
X912520Y-1635520D01*
X910920Y-1635800D01*
X909360Y-1635440D01*
X908060Y-1634460D01*
X907240Y-1633060D01*
X907060Y-1631459D01*
X907180Y-1630000D01*
X906840Y-1626140D01*
X905840Y-1622420D01*
X904220Y-1618899D01*
X902000Y-1615740D01*
X899260Y-1613000D01*
X896100Y-1610780D01*
X892580Y-1609160D01*
X888860Y-1608160D01*
X885000Y-1607820D01*
X881140Y-1608160D01*
X877420Y-1609160D01*
X873900Y-1610780D01*
X870740Y-1613000D01*
X868000Y-1615740D01*
X865780Y-1618899D01*
X864160Y-1622420D01*
X863160Y-1626140D01*
X862880Y-1629300D01*
X862520Y-1630640D01*
X861720Y-1631780D01*
X819400Y-1674120D01*
X817380Y-1676560D01*
X815980Y-1679199D01*
X815120Y-1682040D01*
X814800Y-1685200D01*
X814800Y-1962280D01*
X814500Y-1963820D01*
X813620Y-1965120D01*
X813000Y-1965740D01*
X810780Y-1968899D01*
X809160Y-1972420D01*
X808160Y-1976140D01*
X807820Y-1980000D01*
X808160Y-1983860D01*
X809160Y-1987580D01*
X810780Y-1991100D01*
X813000Y-1994259D01*
X815740Y-1997000D01*
X818900Y-1999220D01*
X822420Y-2000840D01*
X826140Y-2001840D01*
X830000Y-2002180D01*
X833860Y-2001840D01*
X837580Y-2000840D01*
X841100Y-1999220D01*
X844260Y-1997000D01*
X847000Y-1994259D01*
X849220Y-1991100D01*
X850840Y-1987580D01*
X851840Y-1983860D01*
X852180Y-1980000D01*
X851840Y-1976140D01*
X850840Y-1972420D01*
X849220Y-1968899D01*
X847000Y-1965740D01*
X846380Y-1965120D01*
X845500Y-1963820D01*
X845200Y-1962280D01*
X845200Y-1692960D01*
X845500Y-1691420D01*
X846380Y-1690120D01*
X883220Y-1653280D01*
X884360Y-1652480D01*
X886460Y-1652060D01*
X888060Y-1652240D01*
X889460Y-1653060D01*
X890440Y-1654360D01*
X890800Y-1655920D01*
X890520Y-1657520D01*
X889640Y-1658880D01*
X874400Y-1674120D01*
X872380Y-1676560D01*
X870980Y-1679199D01*
X870120Y-1682040D01*
X869800Y-1685200D01*
X869800Y-1907280D01*
X869500Y-1908820D01*
X868620Y-1910120D01*
X868000Y-1910740D01*
X865780Y-1913899D01*
X864160Y-1917420D01*
X863160Y-1921140D01*
X862820Y-1925000D01*
X863160Y-1928860D01*
X864160Y-1932580D01*
X865780Y-1936100D01*
X868000Y-1939259D01*
X868620Y-1939880D01*
X869500Y-1941180D01*
X869800Y-1942720D01*
X869800Y-1969800D01*
X870120Y-1972960D01*
X870980Y-1975800D01*
X872380Y-1978440D01*
X874400Y-1980880D01*
X876720Y-1983220D01*
X877520Y-1984360D01*
X877880Y-1985700D01*
X878160Y-1988860D01*
X879160Y-1992580D01*
X880780Y-1996100D01*
X883000Y-1999259D01*
X885740Y-2002000D01*
X888900Y-2004220D01*
X892420Y-2005840D01*
X896140Y-2006840D01*
X900000Y-2007180D01*
X903860Y-2006840D01*
X907580Y-2005840D01*
X911100Y-2004220D01*
X914260Y-2002000D01*
X917000Y-1999259D01*
X918800Y-1996680D01*
X920080Y-1995520D01*
X921720Y-1995000D01*
X923439Y-1995220D01*
X924900Y-1996160D01*
X925740Y-1997000D01*
X928900Y-1999220D01*
X932420Y-2000840D01*
X936140Y-2001840D01*
X940000Y-2002180D01*
X943820Y-2001860D01*
X945540Y-2002080D01*
X947000Y-2003000D01*
X947920Y-2004460D01*
X948139Y-2006180D01*
X947820Y-2010000D01*
X948160Y-2013860D01*
X949160Y-2017580D01*
X949860Y-2019100D01*
X950240Y-2020660D01*
X949980Y-2022240D01*
X949120Y-2023580D01*
X947800Y-2024480D01*
X946240Y-2024800D01*
X447100Y-2024800D01*
X445560Y-2024500D01*
X444260Y-2023620D01*
X437939Y-2017300D01*
X434640Y-2014500D01*
X431060Y-2012380D01*
X427180Y-2010860D01*
X423120Y-2010000D01*
X418960Y-2009840D01*
X414840Y-2010340D01*
X410840Y-2011540D01*
X407100Y-2013360D01*
X403720Y-2015780D01*
X400780Y-2018720D01*
X398360Y-2022100D01*
X396540Y-2025840D01*
X395340Y-2029840D01*
X394840Y-2033959D01*
X395000Y-2038120D01*
X395860Y-2042180D01*
X397380Y-2046060D01*
X399500Y-2049640D01*
X402299Y-2052940D01*
X417100Y-2067740D01*
X419580Y-2069940D01*
X423080Y-2072200D01*
X423860Y-2072600D01*
X426900Y-2073860D01*
X427740Y-2074120D01*
X431800Y-2075000D01*
X435120Y-2075200D01*
X1079240Y-2075200D01*
X1080860Y-2075540D01*
X1082200Y-2076519D01*
X1083040Y-2077960D01*
X1083220Y-2079600D01*
X1082720Y-2081180D01*
X1081620Y-2082420D01*
X1079060Y-2084300D01*
X1075200Y-2088040D01*
X1071860Y-2092260D01*
X1069120Y-2096879D01*
X1067040Y-2101820D01*
X1065620Y-2107000D01*
X1064900Y-2112320D01*
X1064900Y-2117680D01*
X1065620Y-2123000D01*
X1067040Y-2128180D01*
X1069120Y-2133120D01*
X1071860Y-2137740D01*
X1075200Y-2141960D01*
X1079060Y-2145700D01*
X1083380Y-2148880D01*
X1088140Y-2151500D01*
X1089420Y-2152600D01*
X1090140Y-2154160D01*
X1090140Y-2155840D01*
X1089420Y-2157400D01*
X1088140Y-2158500D01*
X1083380Y-2161120D01*
X1079060Y-2164300D01*
X1075200Y-2168040D01*
X1071860Y-2172260D01*
X1069120Y-2176880D01*
X1067040Y-2181820D01*
X1065620Y-2187000D01*
X1064900Y-2192320D01*
X1064900Y-2197680D01*
X1065620Y-2203000D01*
X1067040Y-2208180D01*
X1069120Y-2213120D01*
X1071860Y-2217740D01*
X1075200Y-2221960D01*
X1079060Y-2225700D01*
X1083380Y-2228880D01*
X1088080Y-2231460D01*
X1093100Y-2233380D01*
X1098320Y-2234640D01*
X1103660Y-2235160D01*
X1109020Y-2234980D01*
X1114320Y-2234100D01*
X1119440Y-2232500D01*
X1124320Y-2230240D01*
X1128840Y-2227360D01*
X1132940Y-2223900D01*
X1136540Y-2219900D01*
X1139580Y-2215480D01*
X1142000Y-2210700D01*
X1143760Y-2205620D01*
X1144840Y-2200360D01*
X1145200Y-2195000D01*
X1144840Y-2189640D01*
X1143760Y-2184380D01*
X1142000Y-2179300D01*
X1139580Y-2174520D01*
X1136540Y-2170100D01*
X1132940Y-2166100D01*
X1128840Y-2162640D01*
X1124320Y-2159760D01*
X1121880Y-2158620D01*
X1120660Y-2157740D01*
X1119860Y-2156480D01*
X1119580Y-2155000D01*
X1119860Y-2153520D01*
X1120660Y-2152260D01*
X1121880Y-2151380D01*
X1124320Y-2150240D01*
X1128840Y-2147360D01*
X1132940Y-2143900D01*
X1136540Y-2139900D01*
X1139580Y-2135480D01*
X1142000Y-2130700D01*
X1143760Y-2125620D01*
X1144840Y-2120360D01*
X1145200Y-2115000D01*
X1144840Y-2109640D01*
X1143760Y-2104380D01*
X1142000Y-2099300D01*
X1139580Y-2094520D01*
X1136540Y-2090100D01*
X1132940Y-2086100D01*
X1128720Y-2082580D01*
X1127520Y-2081380D01*
X1126920Y-2079780D01*
X1127040Y-2078080D01*
X1127860Y-2076579D01*
X1129220Y-2075560D01*
X1130880Y-2075200D01*
X1379880Y-2075200D01*
X1383200Y-2075000D01*
X1387260Y-2074120D01*
X1388100Y-2073860D01*
X1391140Y-2072600D01*
X1391920Y-2072200D01*
X1395420Y-2069940D01*
X1397900Y-2067740D01*
X1427980Y-2037660D01*
X1429259Y-2036800D01*
X1430800Y-2036500D01*
X1432340Y-2036800D01*
X1433620Y-2037660D01*
X1434500Y-2038959D01*
X1434800Y-2040500D01*
X1434800Y-2072280D01*
X1434500Y-2073820D01*
X1433620Y-2075120D01*
X1433000Y-2075740D01*
X1430780Y-2078899D01*
X1429160Y-2082420D01*
X1428160Y-2086140D01*
X1427820Y-2090000D01*
X1428160Y-2093860D01*
X1429160Y-2097580D01*
X1430780Y-2101100D01*
X1431260Y-2101760D01*
X1431879Y-2103140D01*
X1431940Y-2104640D01*
X1431440Y-2106060D01*
X1430460Y-2107200D01*
X1429139Y-2107900D01*
X1427640Y-2108040D01*
X1425000Y-2107820D01*
X1421140Y-2108160D01*
X1417420Y-2109160D01*
X1413899Y-2110780D01*
X1410740Y-2113000D01*
X1408000Y-2115740D01*
X1405780Y-2118900D01*
X1404160Y-2122420D01*
X1403160Y-2126140D01*
X1402820Y-2130000D01*
X1403160Y-2133860D01*
X1404160Y-2137580D01*
X1405780Y-2141100D01*
X1408000Y-2144260D01*
X1410740Y-2147000D01*
X1413899Y-2149220D01*
X1417420Y-2150840D01*
X1421140Y-2151840D01*
X1425000Y-2152180D01*
X1428860Y-2151840D01*
X1432580Y-2150840D01*
X1436100Y-2149220D01*
X1439259Y-2147000D01*
X1439880Y-2146380D01*
X1441180Y-2145500D01*
X1442720Y-2145200D01*
X1459800Y-2145200D01*
X1462960Y-2144880D01*
X1465800Y-2144020D01*
X1468440Y-2142620D01*
X1470880Y-2140600D01*
X1502980Y-2108520D01*
X1504259Y-2107660D01*
X1505800Y-2107360D01*
X1507340Y-2107660D01*
X1508620Y-2108520D01*
X1509500Y-2109820D01*
X1509800Y-2111360D01*
X1509800Y-2112280D01*
X1509500Y-2113820D01*
X1508620Y-2115120D01*
X1508000Y-2115740D01*
X1505780Y-2118900D01*
X1504160Y-2122420D01*
X1503160Y-2126140D01*
X1502820Y-2130000D01*
X1503160Y-2133860D01*
X1504160Y-2137580D01*
X1505780Y-2141100D01*
X1508000Y-2144260D01*
X1510740Y-2147000D01*
X1513899Y-2149220D01*
X1515820Y-2150100D01*
X1517040Y-2151000D01*
X1517860Y-2152300D01*
X1518120Y-2153800D01*
X1517800Y-2155280D01*
X1516940Y-2156560D01*
X1309880Y-2363620D01*
X1308580Y-2364500D01*
X1307040Y-2364800D01*
X1185200Y-2364800D01*
X1182040Y-2365120D01*
X1179200Y-2365980D01*
X1176560Y-2367380D01*
X1174120Y-2369400D01*
X1144880Y-2398620D01*
X1143580Y-2399500D01*
X1142040Y-2399800D01*
X1140780Y-2399800D01*
X1139100Y-2399420D01*
X1137720Y-2398380D01*
X1136920Y-2396860D01*
X1136840Y-2395140D01*
X1137480Y-2393540D01*
X1139580Y-2390480D01*
X1142000Y-2385700D01*
X1143760Y-2380620D01*
X1144840Y-2375360D01*
X1145200Y-2370000D01*
X1144840Y-2364640D01*
X1143760Y-2359380D01*
X1142000Y-2354300D01*
X1139580Y-2349520D01*
X1136540Y-2345100D01*
X1132940Y-2341100D01*
X1128840Y-2337640D01*
X1124320Y-2334760D01*
X1119440Y-2332500D01*
X1114320Y-2330900D01*
X1109020Y-2330020D01*
X1103660Y-2329840D01*
X1098320Y-2330360D01*
X1093100Y-2331620D01*
X1088080Y-2333540D01*
X1083380Y-2336120D01*
X1079060Y-2339300D01*
X1075200Y-2343040D01*
X1070620Y-2348880D01*
X1069440Y-2349560D01*
X1068080Y-2349800D01*
X907460Y-2349800D01*
X905780Y-2349420D01*
X905180Y-2349160D01*
X901460Y-2348160D01*
X897600Y-2347820D01*
X893740Y-2348160D01*
X890020Y-2349160D01*
X886500Y-2350780D01*
X883340Y-2353000D01*
X880600Y-2355740D01*
X878379Y-2358900D01*
X876760Y-2362420D01*
X875759Y-2366140D01*
X875420Y-2370000D01*
X875759Y-2373860D01*
X876760Y-2377580D01*
X878379Y-2381100D01*
X880600Y-2384260D01*
X883340Y-2387000D01*
X886500Y-2389220D01*
X890020Y-2390840D01*
X893740Y-2391840D01*
X897600Y-2392180D01*
X901460Y-2391840D01*
X905180Y-2390840D01*
X905780Y-2390580D01*
X907460Y-2390200D01*
X1068080Y-2390200D01*
X1069340Y-2390400D01*
X1070480Y-2391000D01*
X1071380Y-2391940D01*
X1072480Y-2393540D01*
X1073120Y-2395120D01*
X1073040Y-2396860D01*
X1072240Y-2398380D01*
X1070860Y-2399420D01*
X1069180Y-2399800D01*
X1000200Y-2399800D01*
X997039Y-2400120D01*
X994200Y-2400980D01*
X991560Y-2402380D01*
X989120Y-2404400D01*
X945879Y-2447620D01*
X944580Y-2448500D01*
X943040Y-2448800D01*
X894220Y-2448800D01*
X891740Y-2449080D01*
X889580Y-2449840D01*
X887660Y-2451040D01*
X886040Y-2452660D01*
X884840Y-2454580D01*
X884080Y-2456740D01*
X883800Y-2459220D01*
X883800Y-2520780D01*
X884080Y-2523260D01*
X884840Y-2525420D01*
X886040Y-2527340D01*
X887660Y-2528960D01*
X889580Y-2530160D01*
X891740Y-2530920D01*
X894220Y-2531200D01*
X955780Y-2531200D01*
X958259Y-2530920D01*
X960420Y-2530160D01*
X962340Y-2528960D01*
X963960Y-2527340D01*
X965160Y-2525420D01*
X965920Y-2523260D01*
X966200Y-2520780D01*
X966200Y-2471960D01*
X966500Y-2470420D01*
X967380Y-2469120D01*
X1005120Y-2431380D01*
X1006420Y-2430500D01*
X1007960Y-2430200D01*
X1048640Y-2430200D01*
X1050180Y-2430500D01*
X1051480Y-2431380D01*
X1052340Y-2432660D01*
X1052640Y-2434200D01*
X1052340Y-2435740D01*
X1051480Y-2437020D01*
X1039360Y-2449140D01*
X1038300Y-2449900D01*
X1037060Y-2450280D01*
X1035759Y-2450240D01*
X1030380Y-2449160D01*
X1025000Y-2448800D01*
X1019620Y-2449160D01*
X1014340Y-2450220D01*
X1009240Y-2451940D01*
X1004400Y-2454320D01*
X999920Y-2457320D01*
X995879Y-2460880D01*
X992320Y-2464920D01*
X989320Y-2469400D01*
X986940Y-2474240D01*
X985220Y-2479340D01*
X984160Y-2484620D01*
X983800Y-2490000D01*
X984160Y-2495380D01*
X985220Y-2500660D01*
X986940Y-2505760D01*
X989320Y-2510600D01*
X992320Y-2515080D01*
X995879Y-2519120D01*
X999920Y-2522680D01*
X1004400Y-2525680D01*
X1009240Y-2528060D01*
X1014340Y-2529780D01*
X1019620Y-2530840D01*
X1025000Y-2531200D01*
X1030380Y-2530840D01*
X1035660Y-2529780D01*
X1040759Y-2528060D01*
X1045600Y-2525680D01*
X1050080Y-2522680D01*
X1054120Y-2519120D01*
X1057680Y-2515080D01*
X1060680Y-2510600D01*
X1063060Y-2505760D01*
X1064780Y-2500660D01*
X1065840Y-2495380D01*
X1066200Y-2490000D01*
X1065840Y-2484620D01*
X1064780Y-2479340D01*
X1063060Y-2474240D01*
X1062400Y-2472920D01*
X1062000Y-2471340D01*
X1062260Y-2469700D01*
X1063160Y-2468320D01*
X1080120Y-2451380D01*
X1081420Y-2450500D01*
X1082960Y-2450200D01*
X1164800Y-2450200D01*
X1167960Y-2449880D01*
X1170800Y-2449020D01*
X1173440Y-2447620D01*
X1175880Y-2445600D01*
X1205120Y-2416380D01*
X1206420Y-2415500D01*
X1207960Y-2415200D01*
X1319800Y-2415200D01*
X1322960Y-2414880D01*
X1325800Y-2414020D01*
X1328440Y-2412620D01*
X1330880Y-2410600D01*
X1547980Y-2193520D01*
X1549259Y-2192660D01*
X1550800Y-2192360D01*
X1552340Y-2192660D01*
X1553620Y-2193520D01*
X1554500Y-2194820D01*
X1554800Y-2196360D01*
X1554800Y-2459800D01*
X1555120Y-2462960D01*
X1555980Y-2465800D01*
X1557380Y-2468440D01*
X1559400Y-2470880D01*
X1673660Y-2585160D01*
X1674560Y-2586520D01*
X1674840Y-2588140D01*
X1674460Y-2589720D01*
X1673460Y-2591019D01*
X1672040Y-2591800D01*
X1670420Y-2591980D01*
X1666819Y-2591600D01*
X1657720Y-2591400D01*
X1648640Y-2591980D01*
X1639640Y-2593300D01*
X1630780Y-2595380D01*
X1622140Y-2598200D01*
X1613760Y-2601720D01*
X1605680Y-2605940D01*
X1598000Y-2610800D01*
X1590760Y-2616300D01*
X1584000Y-2622400D01*
X1577780Y-2629020D01*
X1572120Y-2636160D01*
X1567080Y-2643740D01*
X1562700Y-2651700D01*
X1559000Y-2660020D01*
X1557980Y-2662960D01*
X1557160Y-2664340D01*
X1555880Y-2665280D01*
X1554340Y-2665659D01*
X1552760Y-2665380D01*
X1551420Y-2664520D01*
X1550520Y-2663220D01*
X1550200Y-2661660D01*
X1550200Y-2480160D01*
X1550080Y-2478660D01*
X1549280Y-2475880D01*
X1548200Y-2473960D01*
X1547100Y-2472680D01*
X1507320Y-2432900D01*
X1506180Y-2431920D01*
X1503640Y-2430520D01*
X1501519Y-2429920D01*
X1499840Y-2429800D01*
X1250160Y-2429800D01*
X1248660Y-2429920D01*
X1245880Y-2430720D01*
X1243960Y-2431800D01*
X1242680Y-2432900D01*
X1217900Y-2457680D01*
X1216920Y-2458820D01*
X1215520Y-2461360D01*
X1214920Y-2463480D01*
X1214800Y-2465160D01*
X1214800Y-2519120D01*
X1214500Y-2520640D01*
X1213620Y-2521940D01*
X1196940Y-2538620D01*
X1195640Y-2539500D01*
X1194120Y-2539800D01*
X850879Y-2539800D01*
X849360Y-2539500D01*
X848060Y-2538620D01*
X836380Y-2526940D01*
X835500Y-2525640D01*
X835200Y-2524120D01*
X835200Y-2465160D01*
X835080Y-2463660D01*
X834280Y-2460880D01*
X833199Y-2458960D01*
X832099Y-2457680D01*
X807320Y-2432900D01*
X806180Y-2431920D01*
X803640Y-2430520D01*
X801520Y-2429920D01*
X799840Y-2429800D01*
X495160Y-2429800D01*
X493660Y-2429920D01*
X490880Y-2430720D01*
X488960Y-2431800D01*
X487680Y-2432900D01*
X437900Y-2482680D01*
X436920Y-2483820D01*
X435520Y-2486360D01*
X434920Y-2488480D01*
X434799Y-2490160D01*
X434799Y-2794120D01*
X434500Y-2795640D01*
X433620Y-2796940D01*
X396940Y-2833620D01*
X395640Y-2834500D01*
X394120Y-2834800D01*
G37*

%LPC*%
G36*
X1133660Y-1380160D02*
G01*
X1139020Y-1379980D01*
X1144320Y-1379100D01*
X1149440Y-1377500D01*
X1154320Y-1375240D01*
X1158840Y-1372360D01*
X1162940Y-1368899D01*
X1166540Y-1364900D01*
X1169580Y-1360480D01*
X1172000Y-1355700D01*
X1173760Y-1350620D01*
X1174840Y-1345360D01*
X1175200Y-1340000D01*
X1174840Y-1334640D01*
X1173760Y-1329379D01*
X1172000Y-1324300D01*
X1169580Y-1319520D01*
X1166540Y-1315100D01*
X1162940Y-1311100D01*
X1158840Y-1307640D01*
X1154320Y-1304760D01*
X1149440Y-1302500D01*
X1144320Y-1300900D01*
X1139020Y-1300020D01*
X1133660Y-1299840D01*
X1128320Y-1300360D01*
X1123100Y-1301620D01*
X1118080Y-1303540D01*
X1113380Y-1306120D01*
X1109060Y-1309300D01*
X1105200Y-1313040D01*
X1101860Y-1317260D01*
X1099120Y-1321879D01*
X1097040Y-1326819D01*
X1095620Y-1332000D01*
X1094900Y-1337320D01*
X1094900Y-1342680D01*
X1095620Y-1348000D01*
X1097040Y-1353180D01*
X1099120Y-1358120D01*
X1101860Y-1362740D01*
X1105200Y-1366960D01*
X1109060Y-1370700D01*
X1113380Y-1373880D01*
X1118080Y-1376459D01*
X1123100Y-1378380D01*
X1128320Y-1379640D01*
G37*
G36*
X307720Y-2808600D02*
G01*
X316820Y-2808399D01*
X325860Y-2807460D01*
X334799Y-2805760D01*
X343560Y-2803300D01*
X352100Y-2800140D01*
X360319Y-2796259D01*
X368200Y-2791720D01*
X375680Y-2786520D01*
X382680Y-2780720D01*
X389180Y-2774360D01*
X395120Y-2767480D01*
X400480Y-2760120D01*
X405180Y-2752320D01*
X409240Y-2744180D01*
X412580Y-2735720D01*
X415200Y-2727020D01*
X417100Y-2718120D01*
X418240Y-2709080D01*
X418620Y-2700000D01*
X418240Y-2690920D01*
X417100Y-2681880D01*
X415200Y-2672980D01*
X412580Y-2664280D01*
X409240Y-2655820D01*
X405180Y-2647679D01*
X400480Y-2639880D01*
X395120Y-2632540D01*
X389180Y-2625640D01*
X382680Y-2619280D01*
X375680Y-2613480D01*
X368200Y-2608279D01*
X360319Y-2603740D01*
X352100Y-2599860D01*
X343560Y-2596700D01*
X334799Y-2594240D01*
X325860Y-2592540D01*
X316820Y-2591600D01*
X307720Y-2591400D01*
X298640Y-2591980D01*
X289640Y-2593300D01*
X280780Y-2595380D01*
X272140Y-2598200D01*
X263760Y-2601720D01*
X255680Y-2605940D01*
X248000Y-2610800D01*
X240760Y-2616300D01*
X234000Y-2622400D01*
X227780Y-2629020D01*
X222120Y-2636160D01*
X217079Y-2643740D01*
X212700Y-2651700D01*
X209000Y-2660020D01*
X206020Y-2668600D01*
X203760Y-2677420D01*
X202240Y-2686380D01*
X201480Y-2695460D01*
X201480Y-2704540D01*
X202240Y-2713620D01*
X203760Y-2722580D01*
X206020Y-2731400D01*
X209000Y-2739980D01*
X212700Y-2748300D01*
X217079Y-2756259D01*
X222120Y-2763840D01*
X227780Y-2770980D01*
X234000Y-2777600D01*
X240760Y-2783700D01*
X248000Y-2789200D01*
X255680Y-2794060D01*
X263760Y-2798279D01*
X272140Y-2801800D01*
X280780Y-2804620D01*
X289640Y-2806700D01*
X298640Y-2808020D01*
G37*
G36*
X1055000Y-1117180D02*
G01*
X1058860Y-1116840D01*
X1062580Y-1115840D01*
X1066100Y-1114220D01*
X1069260Y-1112000D01*
X1072000Y-1109260D01*
X1074220Y-1106100D01*
X1075840Y-1102580D01*
X1076820Y-1098980D01*
X1077220Y-1098000D01*
X1077860Y-1097180D01*
X1102980Y-1072020D01*
X1105040Y-1069300D01*
X1106480Y-1066380D01*
X1107380Y-1063240D01*
X1107700Y-1059820D01*
X1107680Y-579320D01*
X1107220Y-575960D01*
X1106180Y-572860D01*
X1104580Y-570000D01*
X1102380Y-567360D01*
X1047860Y-512819D01*
X1047220Y-512000D01*
X1046820Y-511019D01*
X1045840Y-507420D01*
X1044220Y-503900D01*
X1042000Y-500740D01*
X1039260Y-498000D01*
X1036100Y-495780D01*
X1032580Y-494159D01*
X1028860Y-493160D01*
X1025000Y-492819D01*
X1021140Y-493160D01*
X1017420Y-494159D01*
X1013900Y-495780D01*
X1010740Y-498000D01*
X1008000Y-500740D01*
X1005780Y-503900D01*
X1004160Y-507420D01*
X1003160Y-511140D01*
X1002820Y-515000D01*
X1003160Y-518860D01*
X1004160Y-522580D01*
X1005780Y-526100D01*
X1008000Y-529260D01*
X1010740Y-532000D01*
X1013900Y-534220D01*
X1017420Y-535840D01*
X1021020Y-536820D01*
X1022000Y-537220D01*
X1022820Y-537860D01*
X1071120Y-586160D01*
X1072000Y-587460D01*
X1072300Y-588980D01*
X1072300Y-1051020D01*
X1072000Y-1052540D01*
X1071120Y-1053840D01*
X1052820Y-1072140D01*
X1052000Y-1072780D01*
X1051020Y-1073180D01*
X1047420Y-1074160D01*
X1043900Y-1075780D01*
X1040740Y-1078000D01*
X1038000Y-1080740D01*
X1035780Y-1083900D01*
X1034160Y-1087420D01*
X1033160Y-1091140D01*
X1032820Y-1095000D01*
X1033160Y-1098860D01*
X1034160Y-1102580D01*
X1035780Y-1106100D01*
X1038000Y-1109260D01*
X1040740Y-1112000D01*
X1043900Y-1114220D01*
X1047420Y-1115840D01*
X1051140Y-1116840D01*
G37*
G36*
X965000Y-1162180D02*
G01*
X968860Y-1161840D01*
X972580Y-1160840D01*
X976100Y-1159220D01*
X979260Y-1157000D01*
X982000Y-1154260D01*
X984220Y-1151100D01*
X985840Y-1147580D01*
X986840Y-1143860D01*
X987180Y-1140000D01*
X986840Y-1136140D01*
X985840Y-1132420D01*
X984220Y-1128900D01*
X982000Y-1125740D01*
X979260Y-1123000D01*
X976100Y-1120780D01*
X972580Y-1119160D01*
X968980Y-1118180D01*
X968000Y-1117780D01*
X967180Y-1117140D01*
X877020Y-1027020D01*
X874300Y-1024960D01*
X871380Y-1023520D01*
X868240Y-1022620D01*
X864820Y-1022300D01*
X579320Y-1022320D01*
X575960Y-1022780D01*
X572860Y-1023820D01*
X570000Y-1025420D01*
X567360Y-1027620D01*
X547820Y-1047140D01*
X547000Y-1047780D01*
X546020Y-1048180D01*
X542420Y-1049160D01*
X538900Y-1050780D01*
X535740Y-1053000D01*
X533000Y-1055740D01*
X530780Y-1058900D01*
X529160Y-1062420D01*
X528160Y-1066140D01*
X527820Y-1070000D01*
X528160Y-1073860D01*
X529160Y-1077580D01*
X530780Y-1081100D01*
X533000Y-1084260D01*
X535740Y-1087000D01*
X538900Y-1089220D01*
X542420Y-1090840D01*
X546140Y-1091840D01*
X550000Y-1092180D01*
X553860Y-1091840D01*
X557580Y-1090840D01*
X561100Y-1089220D01*
X564260Y-1087000D01*
X567000Y-1084260D01*
X569220Y-1081100D01*
X570840Y-1077580D01*
X571820Y-1073980D01*
X572220Y-1073000D01*
X572860Y-1072180D01*
X586160Y-1058880D01*
X587460Y-1058000D01*
X588980Y-1057700D01*
X856020Y-1057700D01*
X857540Y-1058000D01*
X858840Y-1058880D01*
X942140Y-1142180D01*
X942780Y-1143000D01*
X943180Y-1143980D01*
X944160Y-1147580D01*
X945780Y-1151100D01*
X948000Y-1154260D01*
X950740Y-1157000D01*
X953900Y-1159220D01*
X957420Y-1160840D01*
X961140Y-1161840D01*
G37*
G36*
X441140Y-1434400D02*
G01*
X445680Y-1433860D01*
X450100Y-1432660D01*
X454280Y-1430780D01*
X458100Y-1428300D01*
X461520Y-1425260D01*
X464440Y-1421720D01*
X466780Y-1417800D01*
X468480Y-1413560D01*
X469520Y-1409100D01*
X469880Y-1404540D01*
X469520Y-1399980D01*
X468480Y-1395520D01*
X466780Y-1391279D01*
X464440Y-1387360D01*
X461520Y-1383820D01*
X458100Y-1380780D01*
X454280Y-1378300D01*
X450700Y-1376699D01*
X449460Y-1375820D01*
X448620Y-1374540D01*
X448340Y-1373040D01*
X448620Y-1371540D01*
X449460Y-1370280D01*
X450700Y-1369400D01*
X454280Y-1367800D01*
X458100Y-1365300D01*
X461520Y-1362260D01*
X464440Y-1358740D01*
X466780Y-1354800D01*
X468480Y-1350560D01*
X469520Y-1346120D01*
X469880Y-1341560D01*
X469520Y-1336980D01*
X468440Y-1332440D01*
X468160Y-1330860D01*
X468519Y-1329280D01*
X469480Y-1327960D01*
X470900Y-1327160D01*
X472500Y-1326960D01*
X475000Y-1327180D01*
X478860Y-1326840D01*
X482580Y-1325840D01*
X486100Y-1324220D01*
X489260Y-1322000D01*
X492000Y-1319259D01*
X494219Y-1316100D01*
X495840Y-1312580D01*
X496840Y-1308860D01*
X497180Y-1305000D01*
X496840Y-1301140D01*
X495840Y-1297420D01*
X494219Y-1293899D01*
X492000Y-1290740D01*
X489260Y-1288000D01*
X486100Y-1285780D01*
X482580Y-1284160D01*
X478980Y-1283180D01*
X478000Y-1282780D01*
X477180Y-1282140D01*
X463880Y-1268840D01*
X463000Y-1267540D01*
X462700Y-1266020D01*
X462700Y-639520D01*
X462879Y-638320D01*
X463420Y-637220D01*
X464219Y-636100D01*
X465840Y-632580D01*
X466840Y-628860D01*
X467180Y-625000D01*
X466840Y-621140D01*
X465840Y-617420D01*
X464219Y-613900D01*
X462000Y-610740D01*
X459260Y-608000D01*
X456100Y-605780D01*
X452580Y-604160D01*
X448860Y-603160D01*
X445000Y-602820D01*
X441140Y-603160D01*
X437420Y-604160D01*
X433900Y-605780D01*
X430740Y-608000D01*
X428000Y-610740D01*
X425780Y-613900D01*
X424159Y-617420D01*
X423160Y-621140D01*
X422819Y-625000D01*
X423160Y-628860D01*
X424159Y-632580D01*
X425780Y-636100D01*
X426580Y-637220D01*
X427120Y-638320D01*
X427299Y-639520D01*
X427320Y-1275680D01*
X427780Y-1279040D01*
X428820Y-1282140D01*
X430420Y-1285000D01*
X432620Y-1287640D01*
X450860Y-1305900D01*
X451800Y-1307360D01*
X452020Y-1309079D01*
X451480Y-1310720D01*
X450319Y-1312000D01*
X448700Y-1312660D01*
X446980Y-1312580D01*
X445680Y-1312220D01*
X441140Y-1311699D01*
X436580Y-1311879D01*
X434520Y-1312280D01*
X432840Y-1312240D01*
X431320Y-1311519D01*
X430240Y-1310260D01*
X429760Y-1308660D01*
X429520Y-1305480D01*
X428480Y-1301040D01*
X426780Y-1296800D01*
X424440Y-1292860D01*
X421520Y-1289340D01*
X418100Y-1286300D01*
X414280Y-1283800D01*
X410100Y-1281940D01*
X405680Y-1280720D01*
X401140Y-1280200D01*
X396580Y-1280380D01*
X392080Y-1281240D01*
X389020Y-1282340D01*
X387520Y-1282580D01*
X386019Y-1282240D01*
X384780Y-1281360D01*
X383960Y-1280080D01*
X383660Y-1278580D01*
X383660Y-1271900D01*
X383380Y-1269400D01*
X382640Y-1267260D01*
X381180Y-1264920D01*
X380640Y-1263540D01*
X380640Y-1262060D01*
X381180Y-1260680D01*
X382640Y-1258360D01*
X383380Y-1256220D01*
X383660Y-1253720D01*
X383660Y-1240400D01*
X383380Y-1237900D01*
X382640Y-1235760D01*
X381180Y-1233420D01*
X380640Y-1232040D01*
X380640Y-1230560D01*
X381180Y-1229180D01*
X382640Y-1226860D01*
X383380Y-1224720D01*
X383660Y-1222220D01*
X383660Y-1208900D01*
X383380Y-1206400D01*
X382640Y-1204260D01*
X381180Y-1201940D01*
X380640Y-1200560D01*
X380640Y-1199060D01*
X381180Y-1197680D01*
X382640Y-1195380D01*
X383380Y-1193220D01*
X383660Y-1190740D01*
X383660Y-1177400D01*
X383380Y-1174920D01*
X382640Y-1172760D01*
X381420Y-1170840D01*
X379799Y-1169220D01*
X377879Y-1168020D01*
X375720Y-1167260D01*
X373240Y-1166980D01*
X306760Y-1166980D01*
X304280Y-1167260D01*
X302120Y-1168020D01*
X300200Y-1169220D01*
X298580Y-1170840D01*
X297360Y-1172760D01*
X296620Y-1174920D01*
X296340Y-1177400D01*
X296340Y-1190740D01*
X296620Y-1193220D01*
X297360Y-1195380D01*
X298820Y-1197700D01*
X299360Y-1199080D01*
X299360Y-1200560D01*
X298820Y-1201940D01*
X297360Y-1204260D01*
X296620Y-1206400D01*
X296340Y-1208900D01*
X296340Y-1222220D01*
X296620Y-1224720D01*
X297360Y-1226860D01*
X298820Y-1229200D01*
X299360Y-1230580D01*
X299360Y-1232060D01*
X298820Y-1233440D01*
X297360Y-1235760D01*
X296620Y-1237900D01*
X296340Y-1240400D01*
X296340Y-1253720D01*
X296620Y-1256220D01*
X297360Y-1258360D01*
X298820Y-1260700D01*
X299360Y-1262080D01*
X299360Y-1263560D01*
X298820Y-1264940D01*
X297360Y-1267260D01*
X296620Y-1269400D01*
X296340Y-1271900D01*
X296340Y-1285220D01*
X296620Y-1287720D01*
X297360Y-1289860D01*
X298820Y-1292180D01*
X299360Y-1293560D01*
X299360Y-1295060D01*
X298820Y-1296440D01*
X297360Y-1298740D01*
X296620Y-1300900D01*
X296340Y-1303380D01*
X296340Y-1316720D01*
X296620Y-1319199D01*
X297360Y-1321360D01*
X298820Y-1323680D01*
X299360Y-1325060D01*
X299360Y-1326560D01*
X298820Y-1327940D01*
X297360Y-1330240D01*
X296620Y-1332400D01*
X296340Y-1334880D01*
X296340Y-1348220D01*
X296620Y-1350700D01*
X297360Y-1352860D01*
X298820Y-1355180D01*
X299360Y-1356560D01*
X299360Y-1358040D01*
X298820Y-1359420D01*
X297360Y-1361740D01*
X296620Y-1363880D01*
X296340Y-1366380D01*
X296340Y-1379700D01*
X296620Y-1382200D01*
X297360Y-1384340D01*
X298820Y-1386680D01*
X299360Y-1388060D01*
X299360Y-1389540D01*
X298820Y-1390920D01*
X297360Y-1393240D01*
X296620Y-1395380D01*
X296340Y-1397880D01*
X296340Y-1411200D01*
X296620Y-1413700D01*
X297360Y-1415840D01*
X298580Y-1417780D01*
X300200Y-1419379D01*
X302120Y-1420600D01*
X304280Y-1421339D01*
X306760Y-1421639D01*
X373240Y-1421639D01*
X375720Y-1421339D01*
X377879Y-1420600D01*
X379280Y-1419900D01*
X380400Y-1419740D01*
X412200Y-1419740D01*
X413459Y-1419940D01*
X414580Y-1420520D01*
X415480Y-1421440D01*
X416960Y-1423540D01*
X420120Y-1426840D01*
X423760Y-1429620D01*
X427780Y-1431800D01*
X432080Y-1433340D01*
X436580Y-1434220D01*
G37*
G36*
X1013660Y-1525160D02*
G01*
X1019020Y-1524980D01*
X1024320Y-1524100D01*
X1029440Y-1522500D01*
X1034320Y-1520240D01*
X1038840Y-1517360D01*
X1042940Y-1513899D01*
X1046540Y-1509900D01*
X1049580Y-1505480D01*
X1052000Y-1500700D01*
X1053760Y-1495620D01*
X1054840Y-1490360D01*
X1055200Y-1485000D01*
X1054840Y-1479640D01*
X1053760Y-1474379D01*
X1052000Y-1469300D01*
X1049580Y-1464520D01*
X1046540Y-1460100D01*
X1042940Y-1456100D01*
X1038840Y-1452640D01*
X1034320Y-1449760D01*
X1029440Y-1447500D01*
X1025660Y-1446320D01*
X1024200Y-1445500D01*
X1023199Y-1444139D01*
X1022840Y-1442500D01*
X1023199Y-1440860D01*
X1024200Y-1439500D01*
X1025660Y-1438680D01*
X1029440Y-1437500D01*
X1034320Y-1435240D01*
X1038840Y-1432360D01*
X1042940Y-1428899D01*
X1046540Y-1424900D01*
X1049580Y-1420480D01*
X1052000Y-1415700D01*
X1053760Y-1410620D01*
X1054840Y-1405360D01*
X1055200Y-1400000D01*
X1054840Y-1394640D01*
X1053760Y-1389379D01*
X1052000Y-1384300D01*
X1049580Y-1379520D01*
X1046540Y-1375100D01*
X1042940Y-1371100D01*
X1038840Y-1367640D01*
X1034320Y-1364760D01*
X1029440Y-1362500D01*
X1024320Y-1360900D01*
X1019020Y-1360020D01*
X1013660Y-1359840D01*
X1008319Y-1360360D01*
X1003100Y-1361620D01*
X998080Y-1363540D01*
X993379Y-1366120D01*
X989060Y-1369300D01*
X985200Y-1373040D01*
X981860Y-1377260D01*
X979120Y-1381879D01*
X977039Y-1386819D01*
X975620Y-1392000D01*
X974900Y-1397320D01*
X974900Y-1402680D01*
X975620Y-1408000D01*
X977039Y-1413180D01*
X979120Y-1418120D01*
X981860Y-1422740D01*
X985200Y-1426960D01*
X989060Y-1430700D01*
X993379Y-1433880D01*
X998080Y-1436459D01*
X1003100Y-1438380D01*
X1004020Y-1438600D01*
X1005620Y-1439379D01*
X1006700Y-1440780D01*
X1007099Y-1442500D01*
X1006700Y-1444220D01*
X1005620Y-1445620D01*
X1004020Y-1446399D01*
X1003100Y-1446620D01*
X998080Y-1448540D01*
X993379Y-1451120D01*
X989060Y-1454300D01*
X985200Y-1458040D01*
X981860Y-1462260D01*
X979120Y-1466879D01*
X977039Y-1471819D01*
X975620Y-1477000D01*
X974900Y-1482320D01*
X974900Y-1487680D01*
X975620Y-1493000D01*
X977039Y-1498180D01*
X979120Y-1503120D01*
X981860Y-1507740D01*
X985200Y-1511960D01*
X989060Y-1515700D01*
X993379Y-1518880D01*
X998080Y-1521459D01*
X1003100Y-1523380D01*
X1008319Y-1524640D01*
G37*
G36*
X441140Y-1717860D02*
G01*
X445680Y-1717320D01*
X450100Y-1716120D01*
X454280Y-1714240D01*
X458100Y-1711759D01*
X461520Y-1708720D01*
X464440Y-1705180D01*
X466780Y-1701260D01*
X468480Y-1697020D01*
X469520Y-1692560D01*
X469880Y-1688000D01*
X469520Y-1683440D01*
X468480Y-1678980D01*
X466780Y-1674740D01*
X464440Y-1670820D01*
X461520Y-1667280D01*
X458100Y-1664240D01*
X454280Y-1661759D01*
X450700Y-1660160D01*
X449460Y-1659280D01*
X448620Y-1658000D01*
X448340Y-1656500D01*
X448620Y-1655000D01*
X449460Y-1653740D01*
X450700Y-1652860D01*
X454280Y-1651260D01*
X458100Y-1648760D01*
X461520Y-1645720D01*
X464440Y-1642200D01*
X466780Y-1638260D01*
X468480Y-1634019D01*
X469520Y-1629580D01*
X469880Y-1625020D01*
X469520Y-1620440D01*
X468480Y-1616000D01*
X466780Y-1611759D01*
X464440Y-1607820D01*
X461520Y-1604300D01*
X458100Y-1601260D01*
X454280Y-1598760D01*
X450700Y-1597160D01*
X449460Y-1596279D01*
X448620Y-1595020D01*
X448340Y-1593520D01*
X448620Y-1592020D01*
X449460Y-1590740D01*
X450700Y-1589860D01*
X454280Y-1588260D01*
X458100Y-1585780D01*
X461520Y-1582740D01*
X464440Y-1579199D01*
X466780Y-1575280D01*
X468480Y-1571040D01*
X469520Y-1566579D01*
X469880Y-1562020D01*
X469520Y-1557460D01*
X468480Y-1553000D01*
X466780Y-1548760D01*
X464440Y-1544840D01*
X461520Y-1541300D01*
X458100Y-1538260D01*
X454280Y-1535780D01*
X450700Y-1534180D01*
X449460Y-1533300D01*
X448620Y-1532020D01*
X448340Y-1530520D01*
X448620Y-1529019D01*
X449460Y-1527760D01*
X450700Y-1526879D01*
X454280Y-1525280D01*
X458100Y-1522780D01*
X461520Y-1519740D01*
X464440Y-1516220D01*
X466780Y-1512280D01*
X468480Y-1508040D01*
X469520Y-1503600D01*
X469880Y-1499040D01*
X469520Y-1494460D01*
X468480Y-1490020D01*
X466780Y-1485780D01*
X464440Y-1481840D01*
X461520Y-1478320D01*
X458100Y-1475280D01*
X454280Y-1472780D01*
X450100Y-1470920D01*
X445680Y-1469700D01*
X441140Y-1469180D01*
X436580Y-1469360D01*
X434520Y-1469760D01*
X432840Y-1469720D01*
X431320Y-1469000D01*
X430240Y-1467740D01*
X429760Y-1466140D01*
X429520Y-1462960D01*
X428480Y-1458520D01*
X426780Y-1454280D01*
X424440Y-1450340D01*
X421520Y-1446819D01*
X418100Y-1443779D01*
X414280Y-1441279D01*
X410100Y-1439420D01*
X405680Y-1438200D01*
X401140Y-1437680D01*
X396580Y-1437860D01*
X392080Y-1438720D01*
X387780Y-1440280D01*
X383760Y-1442460D01*
X380120Y-1445220D01*
X376520Y-1449019D01*
X375160Y-1450060D01*
X373459Y-1450440D01*
X306760Y-1450440D01*
X304280Y-1450720D01*
X302120Y-1451480D01*
X300200Y-1452680D01*
X298580Y-1454300D01*
X297360Y-1456220D01*
X296620Y-1458380D01*
X296340Y-1460860D01*
X296340Y-1474199D01*
X296620Y-1476680D01*
X297360Y-1478839D01*
X298820Y-1481160D01*
X299360Y-1482540D01*
X299360Y-1484040D01*
X298820Y-1485420D01*
X297360Y-1487720D01*
X296620Y-1489880D01*
X296340Y-1492360D01*
X296340Y-1505700D01*
X296620Y-1508180D01*
X297360Y-1510340D01*
X298820Y-1512660D01*
X299360Y-1514040D01*
X299360Y-1515520D01*
X298820Y-1516900D01*
X297360Y-1519220D01*
X296620Y-1521360D01*
X296340Y-1523860D01*
X296340Y-1537180D01*
X296620Y-1539680D01*
X297360Y-1541819D01*
X298820Y-1544160D01*
X299360Y-1545540D01*
X299360Y-1547020D01*
X298820Y-1548400D01*
X297360Y-1550720D01*
X296620Y-1552860D01*
X296340Y-1555360D01*
X296340Y-1568680D01*
X296620Y-1571180D01*
X297360Y-1573320D01*
X298820Y-1575660D01*
X299360Y-1577040D01*
X299360Y-1578520D01*
X298820Y-1579900D01*
X297360Y-1582220D01*
X296620Y-1584360D01*
X296340Y-1586860D01*
X296340Y-1600180D01*
X296620Y-1602680D01*
X297360Y-1604820D01*
X298820Y-1607140D01*
X299360Y-1608520D01*
X299360Y-1610020D01*
X298820Y-1611399D01*
X297360Y-1613700D01*
X296620Y-1615860D01*
X296340Y-1618340D01*
X296340Y-1631680D01*
X296620Y-1634160D01*
X297360Y-1636320D01*
X298820Y-1638640D01*
X299360Y-1640020D01*
X299360Y-1641519D01*
X298820Y-1642900D01*
X297360Y-1645200D01*
X296620Y-1647360D01*
X296340Y-1649840D01*
X296340Y-1663180D01*
X296620Y-1665660D01*
X297360Y-1667820D01*
X298820Y-1670140D01*
X299360Y-1671519D01*
X299360Y-1673000D01*
X298820Y-1674379D01*
X297360Y-1676699D01*
X296620Y-1678839D01*
X296340Y-1681339D01*
X296340Y-1694660D01*
X296620Y-1697160D01*
X297360Y-1699300D01*
X298580Y-1701240D01*
X300200Y-1702840D01*
X302120Y-1704060D01*
X304280Y-1704800D01*
X306760Y-1705100D01*
X373240Y-1705100D01*
X375720Y-1704800D01*
X377879Y-1704060D01*
X379280Y-1703360D01*
X380400Y-1703200D01*
X412200Y-1703200D01*
X413459Y-1703400D01*
X414580Y-1703980D01*
X415480Y-1704900D01*
X416960Y-1707000D01*
X420120Y-1710300D01*
X423760Y-1713080D01*
X427780Y-1715260D01*
X432080Y-1716800D01*
X436580Y-1717680D01*
G37*
G36*
X306760Y-2083100D02*
G01*
X373240Y-2083100D01*
X375720Y-2082800D01*
X377879Y-2082060D01*
X379799Y-2080840D01*
X381420Y-2079240D01*
X382640Y-2077300D01*
X383380Y-2075160D01*
X383660Y-2072660D01*
X383660Y-2059340D01*
X383380Y-2056840D01*
X382640Y-2054700D01*
X381180Y-2052360D01*
X380640Y-2050980D01*
X380640Y-2049500D01*
X381180Y-2048120D01*
X382640Y-2045800D01*
X383380Y-2043660D01*
X383660Y-2041160D01*
X383660Y-2027840D01*
X383380Y-2025340D01*
X382640Y-2023200D01*
X381180Y-2020860D01*
X380640Y-2019480D01*
X380640Y-2018000D01*
X381180Y-2016620D01*
X382640Y-2014300D01*
X383380Y-2012160D01*
X383660Y-2009660D01*
X383660Y-1996339D01*
X383380Y-1993839D01*
X382740Y-1992040D01*
X382520Y-1990540D01*
X382879Y-1989060D01*
X383760Y-1987820D01*
X385040Y-1987000D01*
X386520Y-1986720D01*
X412200Y-1986720D01*
X413459Y-1986920D01*
X414580Y-1987500D01*
X415480Y-1988400D01*
X416960Y-1990520D01*
X420120Y-1993820D01*
X423760Y-1996579D01*
X427780Y-1998760D01*
X432080Y-2000320D01*
X436580Y-2001180D01*
X441140Y-2001360D01*
X445680Y-2000840D01*
X450100Y-1999620D01*
X454280Y-1997760D01*
X458100Y-1995260D01*
X461520Y-1992220D01*
X464440Y-1988700D01*
X466780Y-1984760D01*
X468480Y-1980520D01*
X469520Y-1976080D01*
X469880Y-1971519D01*
X469520Y-1966940D01*
X468480Y-1962500D01*
X466780Y-1958260D01*
X464440Y-1954319D01*
X461520Y-1950800D01*
X458100Y-1947760D01*
X454280Y-1945260D01*
X450700Y-1943660D01*
X449460Y-1942780D01*
X448620Y-1941519D01*
X448340Y-1940020D01*
X448620Y-1938520D01*
X449460Y-1937240D01*
X450700Y-1936360D01*
X454280Y-1934760D01*
X458100Y-1932280D01*
X461520Y-1929240D01*
X464440Y-1925700D01*
X466780Y-1921780D01*
X468480Y-1917540D01*
X469520Y-1913080D01*
X469880Y-1908520D01*
X469520Y-1903959D01*
X468480Y-1899500D01*
X466780Y-1895260D01*
X464440Y-1891339D01*
X461520Y-1887800D01*
X458100Y-1884760D01*
X454280Y-1882280D01*
X450660Y-1880660D01*
X449400Y-1879780D01*
X448579Y-1878500D01*
X448300Y-1877000D01*
X448579Y-1875500D01*
X449400Y-1874240D01*
X450660Y-1873360D01*
X454280Y-1871740D01*
X458100Y-1869240D01*
X461520Y-1866200D01*
X464440Y-1862680D01*
X466780Y-1858740D01*
X468480Y-1854500D01*
X469520Y-1850060D01*
X469880Y-1845500D01*
X469520Y-1840920D01*
X468480Y-1836480D01*
X466780Y-1832240D01*
X464440Y-1828300D01*
X461520Y-1824780D01*
X458100Y-1821740D01*
X454280Y-1819240D01*
X450680Y-1817640D01*
X449440Y-1816759D01*
X448620Y-1815480D01*
X448320Y-1814000D01*
X448620Y-1812500D01*
X449440Y-1811220D01*
X450680Y-1810340D01*
X454280Y-1808740D01*
X458100Y-1806240D01*
X461520Y-1803200D01*
X464440Y-1799680D01*
X466780Y-1795740D01*
X468480Y-1791500D01*
X469520Y-1787060D01*
X469880Y-1782500D01*
X469520Y-1777920D01*
X468480Y-1773480D01*
X466780Y-1769240D01*
X464440Y-1765300D01*
X461520Y-1761780D01*
X458100Y-1758740D01*
X454280Y-1756240D01*
X450100Y-1754379D01*
X445680Y-1753160D01*
X441140Y-1752640D01*
X436580Y-1752820D01*
X434520Y-1753220D01*
X432840Y-1753180D01*
X431320Y-1752460D01*
X430240Y-1751200D01*
X429760Y-1749600D01*
X429520Y-1746440D01*
X428480Y-1741980D01*
X426780Y-1737740D01*
X424440Y-1733820D01*
X421520Y-1730280D01*
X418100Y-1727240D01*
X414280Y-1724760D01*
X410100Y-1722880D01*
X405680Y-1721680D01*
X401140Y-1721140D01*
X396580Y-1721320D01*
X392080Y-1722200D01*
X387780Y-1723740D01*
X383760Y-1725920D01*
X380120Y-1728700D01*
X376520Y-1732480D01*
X375160Y-1733540D01*
X373459Y-1733920D01*
X306760Y-1733920D01*
X304280Y-1734199D01*
X302120Y-1734940D01*
X300200Y-1736160D01*
X298580Y-1737760D01*
X297360Y-1739700D01*
X296620Y-1741840D01*
X296340Y-1744340D01*
X296340Y-1757660D01*
X296620Y-1760160D01*
X297360Y-1762300D01*
X298820Y-1764620D01*
X299360Y-1766000D01*
X299360Y-1767500D01*
X298820Y-1768880D01*
X297360Y-1771180D01*
X296620Y-1773340D01*
X296340Y-1775820D01*
X296340Y-1789160D01*
X296620Y-1791639D01*
X297360Y-1793800D01*
X298820Y-1796120D01*
X299360Y-1797500D01*
X299360Y-1799000D01*
X298820Y-1800380D01*
X297360Y-1802680D01*
X296620Y-1804840D01*
X296340Y-1807320D01*
X296340Y-1820660D01*
X296620Y-1823140D01*
X297360Y-1825300D01*
X298820Y-1827620D01*
X299360Y-1829000D01*
X299360Y-1830500D01*
X298820Y-1831879D01*
X297360Y-1834180D01*
X296620Y-1836339D01*
X296340Y-1838820D01*
X296340Y-1852160D01*
X296620Y-1854640D01*
X297360Y-1856800D01*
X298820Y-1859120D01*
X299360Y-1860500D01*
X299360Y-1861980D01*
X298820Y-1863360D01*
X297360Y-1865680D01*
X296620Y-1867820D01*
X296340Y-1870320D01*
X296340Y-1883640D01*
X296620Y-1886140D01*
X297380Y-1888300D01*
X298840Y-1890680D01*
X299360Y-1892060D01*
X299360Y-1893540D01*
X298820Y-1894900D01*
X297360Y-1897220D01*
X296620Y-1899360D01*
X296340Y-1901860D01*
X296340Y-1915180D01*
X296620Y-1917680D01*
X297360Y-1919820D01*
X298820Y-1922140D01*
X299360Y-1923520D01*
X299360Y-1925020D01*
X298820Y-1926399D01*
X297360Y-1928700D01*
X296620Y-1930860D01*
X296340Y-1933340D01*
X296340Y-1946680D01*
X296620Y-1949160D01*
X297360Y-1951320D01*
X298820Y-1953640D01*
X299360Y-1955020D01*
X299360Y-1956519D01*
X298820Y-1957900D01*
X297360Y-1960200D01*
X296620Y-1962360D01*
X296340Y-1964840D01*
X296340Y-1978180D01*
X296620Y-1980660D01*
X297360Y-1982820D01*
X298820Y-1985140D01*
X299360Y-1986519D01*
X299360Y-1988000D01*
X298820Y-1989379D01*
X297360Y-1991699D01*
X296620Y-1993839D01*
X296340Y-1996339D01*
X296340Y-2009660D01*
X296620Y-2012160D01*
X297360Y-2014300D01*
X298820Y-2016639D01*
X299360Y-2018020D01*
X299360Y-2019500D01*
X298820Y-2020880D01*
X297360Y-2023200D01*
X296620Y-2025340D01*
X296340Y-2027840D01*
X296340Y-2041160D01*
X296620Y-2043660D01*
X297360Y-2045800D01*
X298820Y-2048140D01*
X299360Y-2049520D01*
X299360Y-2051000D01*
X298820Y-2052380D01*
X297360Y-2054700D01*
X296620Y-2056840D01*
X296340Y-2059340D01*
X296340Y-2072660D01*
X296620Y-2075160D01*
X297360Y-2077300D01*
X298580Y-2079240D01*
X300200Y-2080840D01*
X302120Y-2082060D01*
X304280Y-2082800D01*
G37*
G36*
X246240Y-2327080D02*
G01*
X251220Y-2326920D01*
X256140Y-2326040D01*
X260880Y-2324500D01*
X265380Y-2322320D01*
X269500Y-2319520D01*
X273220Y-2316180D01*
X276420Y-2312360D01*
X279080Y-2308120D01*
X281100Y-2303560D01*
X282480Y-2298760D01*
X283180Y-2293820D01*
X283180Y-2288840D01*
X282480Y-2283900D01*
X281100Y-2279100D01*
X279080Y-2274540D01*
X276420Y-2270300D01*
X273220Y-2266480D01*
X269500Y-2263140D01*
X265380Y-2260340D01*
X260880Y-2258160D01*
X256140Y-2256620D01*
X251220Y-2255740D01*
X246240Y-2255580D01*
X241260Y-2256100D01*
X236420Y-2257300D01*
X231800Y-2259180D01*
X227480Y-2261660D01*
X223540Y-2264740D01*
X220080Y-2268340D01*
X217140Y-2272360D01*
X214800Y-2276780D01*
X213080Y-2281460D01*
X212040Y-2286360D01*
X211700Y-2291340D01*
X212040Y-2296300D01*
X213080Y-2301200D01*
X214800Y-2305880D01*
X217140Y-2310300D01*
X220080Y-2314320D01*
X223540Y-2317920D01*
X227480Y-2321000D01*
X231800Y-2323480D01*
X236420Y-2325360D01*
X241260Y-2326560D01*
G37*
G36*
X211500Y-2526340D02*
G01*
X219460Y-2525980D01*
X227340Y-2524860D01*
X235100Y-2523000D01*
X242640Y-2520440D01*
X249920Y-2517180D01*
X256840Y-2513240D01*
X263380Y-2508680D01*
X269460Y-2503520D01*
X275020Y-2497820D01*
X280040Y-2491640D01*
X284440Y-2485000D01*
X288200Y-2477980D01*
X291300Y-2470620D01*
X293680Y-2463020D01*
X295360Y-2455240D01*
X296280Y-2447320D01*
X296480Y-2439360D01*
X295920Y-2431400D01*
X294620Y-2423540D01*
X292580Y-2415840D01*
X289840Y-2408360D01*
X286400Y-2401180D01*
X282320Y-2394340D01*
X277600Y-2387920D01*
X272300Y-2381960D01*
X266480Y-2376520D01*
X260159Y-2371660D01*
X253420Y-2367400D01*
X246320Y-2363800D01*
X238900Y-2360880D01*
X231240Y-2358680D01*
X223420Y-2357200D01*
X215479Y-2356440D01*
X207520Y-2356440D01*
X199579Y-2357200D01*
X191759Y-2358680D01*
X184100Y-2360880D01*
X176680Y-2363800D01*
X169579Y-2367400D01*
X162840Y-2371660D01*
X156520Y-2376520D01*
X150700Y-2381960D01*
X145400Y-2387920D01*
X140680Y-2394340D01*
X136600Y-2401180D01*
X133160Y-2408360D01*
X130420Y-2415840D01*
X128379Y-2423540D01*
X127080Y-2431400D01*
X126519Y-2439360D01*
X126720Y-2447320D01*
X127640Y-2455240D01*
X129320Y-2463020D01*
X131700Y-2470620D01*
X134800Y-2477980D01*
X138560Y-2485000D01*
X142960Y-2491640D01*
X147980Y-2497820D01*
X153540Y-2503520D01*
X159620Y-2508680D01*
X166160Y-2513240D01*
X173080Y-2517180D01*
X180360Y-2520440D01*
X187900Y-2523000D01*
X195660Y-2524860D01*
X203540Y-2525980D01*
G37*

%LPD*%
G36*
X125000Y-635000D02*
G01*
X120000Y-640000D01*
X120000Y-745000D01*
X130000Y-750000D01*
X375000Y-750000D01*
X375000Y-645000D01*
X370000Y-640000D01*
X375000Y-640000D01*
G37*
D10*
X1375000Y-1715000D02*
G01*
X1375000Y-1755000D01*
X1500000Y-1880000D01*
X1500000Y-1980000D01*
X1450000Y-2030000D01*
X1450000Y-2090000D01*
X1819690Y-1499029D02*
G01*
X1875000Y-1499029D01*
X1885000Y-1530000D02*
G01*
X1925000Y-1530000D01*
X1819690Y-1562020D02*
G01*
X1902020Y-1562020D01*
X1930000Y-1590000D01*
X340000Y-1971509D02*
G01*
X440000Y-1971509D01*
X340000Y-1940000D02*
G01*
X400000Y-1940000D01*
X340000Y-1908519D02*
G01*
X440000Y-1908519D01*
X340000Y-1876979D02*
G01*
X400000Y-1876979D01*
X340000Y-1845489D02*
G01*
X440000Y-1845489D01*
X340000Y-1813989D02*
G01*
X400000Y-1813989D01*
X340000Y-1782489D02*
G01*
X440000Y-1782489D01*
X340000Y-1750999D02*
G01*
X400000Y-1750999D01*
X340000Y-1688000D02*
G01*
X440000Y-1688000D01*
X340000Y-1656509D02*
G01*
X400000Y-1656509D01*
X340000Y-1625010D02*
G01*
X440000Y-1625010D01*
X340000Y-1593519D02*
G01*
X400000Y-1593519D01*
X340000Y-1562020D02*
G01*
X440000Y-1562020D01*
X340000Y-1530520D02*
G01*
X400000Y-1530520D01*
X340000Y-1499029D02*
G01*
X440000Y-1499029D01*
X340000Y-1467530D02*
G01*
X400000Y-1467530D01*
X340000Y-1404540D02*
G01*
X440000Y-1404540D01*
X340000Y-1373040D02*
G01*
X400000Y-1373040D01*
X340000Y-1341550D02*
G01*
X440000Y-1341550D01*
X340000Y-1310050D02*
G01*
X400000Y-1310050D01*
X1634650Y-1814029D02*
G01*
X1525000Y-1814029D01*
X1634650Y-1782530D02*
G01*
X1570000Y-1782530D01*
X1634650Y-1751039D02*
G01*
X1525000Y-1751039D01*
X1634650Y-1719540D02*
G01*
X1570000Y-1719540D01*
X1634650Y-1688040D02*
G01*
X1525000Y-1688040D01*
X1634650Y-1656550D02*
G01*
X1570000Y-1656550D01*
X1634650Y-1593560D02*
G01*
X1570000Y-1593560D01*
X1634650Y-1562020D02*
G01*
X1525000Y-1562020D01*
X1634650Y-1530529D02*
G01*
X1570000Y-1530529D01*
X1634650Y-1467530D02*
G01*
X1525000Y-1467530D01*
X1634650Y-1436039D02*
G01*
X1570000Y-1436039D01*
X1634650Y-1404540D02*
G01*
X1525000Y-1404540D01*
X1634650Y-1278560D02*
G01*
X1525000Y-1278560D01*
X1634650Y-1247060D02*
G01*
X1570000Y-1247060D01*
X1634650Y-1215560D02*
G01*
X1530559Y-1215560D01*
X1525000Y-1210000D01*
X1634650Y-1184070D02*
G01*
X1570000Y-1184070D01*
X1634650Y-1152570D02*
G01*
X1525000Y-1152570D01*
X1634650Y-1121080D02*
G01*
X1570000Y-1121080D01*
X1634650Y-1089580D02*
G01*
X1525000Y-1089580D01*
X1634650Y-1058080D02*
G01*
X1570000Y-1058080D01*
X1634650Y-995090D02*
G01*
X1525000Y-995090D01*
X1634650Y-963600D02*
G01*
X1570000Y-963600D01*
X1634650Y-932100D02*
G01*
X1530000Y-932100D01*
X1634650Y-900599D02*
G01*
X1570000Y-900599D01*
X1819690Y-2097530D02*
G01*
X1885000Y-2097530D01*
X1819691Y-2034540D02*
G01*
X1820150Y-2035000D01*
X1885000Y-2035000D01*
X1819690Y-648640D02*
G01*
X1898639Y-648640D01*
X1925000Y-675000D01*
X1819690Y-680129D02*
G01*
X1875000Y-680129D01*
X1819690Y-711630D02*
G01*
X1901629Y-711630D01*
X1925000Y-735000D01*
X1819690Y-743119D02*
G01*
X1875000Y-743119D01*
X1819690Y-774619D02*
G01*
X1904620Y-774619D01*
X1925000Y-795000D01*
X1819690Y-837609D02*
G01*
X1875000Y-837609D01*
X1819690Y-869110D02*
G01*
X1889110Y-869110D01*
X1925000Y-905000D01*
X1819690Y-900599D02*
G01*
X1875000Y-900599D01*
X1819690Y-932100D02*
G01*
X1892100Y-932100D01*
X1925000Y-965000D01*
X1819690Y-963600D02*
G01*
X1875000Y-963600D01*
X1819690Y-995090D02*
G01*
X1895090Y-995090D01*
X1925000Y-1025000D01*
X1819690Y-1026590D02*
G01*
X1875000Y-1026590D01*
X1819690Y-1058080D02*
G01*
X1898080Y-1058080D01*
X1925000Y-1085000D01*
X1819690Y-1089580D02*
G01*
X1875000Y-1089580D01*
X1819690Y-1121080D02*
G01*
X1901080Y-1121080D01*
X1925000Y-1145000D01*
X1819690Y-1152570D02*
G01*
X1875000Y-1152570D01*
X1819690Y-1184070D02*
G01*
X1909070Y-1184070D01*
X1925000Y-1200000D01*
X1819690Y-1215560D02*
G01*
X1875000Y-1215560D01*
X1819690Y-1247060D02*
G01*
X1912060Y-1247060D01*
X1925000Y-1260000D01*
X1819690Y-1278560D02*
G01*
X1873559Y-1278560D01*
X1895000Y-1300000D01*
X1819690Y-1341550D02*
G01*
X1876549Y-1341550D01*
X1895000Y-1360000D01*
X1819700Y-1404499D02*
G01*
X1855500Y-1404499D01*
X1860000Y-1400000D01*
X1915000Y-1400000D01*
X1925000Y-1410000D01*
X1819691Y-1436039D02*
G01*
X1878959Y-1436039D01*
X1880000Y-1435000D01*
X1819690Y-1467530D02*
G01*
X1925000Y-1467530D01*
X1819690Y-1625050D02*
G01*
X1905050Y-1625050D01*
X1930000Y-1650000D01*
X1819690Y-1656550D02*
G01*
X1875000Y-1656550D01*
X1819691Y-1688040D02*
G01*
X1908040Y-1688040D01*
X1930000Y-1710000D01*
X1819690Y-1719540D02*
G01*
X1875000Y-1719540D01*
X1819690Y-1751039D02*
G01*
X1921040Y-1751039D01*
X1930000Y-1760000D01*
X1819690Y-1782530D02*
G01*
X1882529Y-1782530D01*
X1895000Y-1795000D01*
X154960Y-2065999D02*
G01*
X55999Y-2065999D01*
X35000Y-2045000D01*
X154960Y-2034499D02*
G01*
X100000Y-2034499D01*
X154960Y-2003000D02*
G01*
X48000Y-2003000D01*
X35000Y-1990000D01*
X155000Y-1971500D02*
G01*
X100000Y-1971500D01*
X154960Y-1940010D02*
G01*
X50010Y-1940010D01*
X35000Y-1925000D01*
X154960Y-1908519D02*
G01*
X100000Y-1908519D01*
X154960Y-1876979D02*
G01*
X51979Y-1876979D01*
X35000Y-1860000D01*
X154960Y-1813989D02*
G01*
X101010Y-1813989D01*
X85000Y-1830000D01*
X154960Y-1782489D02*
G01*
X107510Y-1782489D01*
X95000Y-1795000D01*
X60000Y-1795000D01*
X35000Y-1770000D01*
X154960Y-1751001D02*
G01*
X93998Y-1751001D01*
X85000Y-1760000D01*
X154960Y-1719499D02*
G01*
X120500Y-1719499D01*
X115000Y-1725000D01*
X65000Y-1725000D01*
X35000Y-1695000D01*
X154960Y-1089580D02*
G01*
X115419Y-1089580D01*
X90000Y-1115000D01*
X154960Y-1688000D02*
G01*
X85270Y-1688000D01*
X85019Y-1687750D01*
X154960Y-1656509D02*
G01*
X51509Y-1656509D01*
X35000Y-1640000D01*
X154960Y-1593519D02*
G01*
X38519Y-1593519D01*
X35000Y-1590000D01*
X154960Y-1625010D02*
G01*
X100000Y-1625010D01*
X154960Y-1530520D02*
G01*
X154441Y-1530000D01*
X35000Y-1530000D01*
X154960Y-1499029D02*
G01*
X59029Y-1499029D01*
X35000Y-1475000D01*
X154960Y-1467530D02*
G01*
X100000Y-1467530D01*
X154960Y-1436039D02*
G01*
X61039Y-1436039D01*
X35000Y-1410000D01*
X154960Y-1404540D02*
G01*
X100000Y-1404540D01*
X154960Y-1373040D02*
G01*
X48040Y-1373040D01*
X35000Y-1360000D01*
X154960Y-1341550D02*
G01*
X66550Y-1341550D01*
X35000Y-1310000D01*
X154960Y-1310048D02*
G01*
X154911Y-1310000D01*
X90000Y-1310000D01*
X154960Y-1247060D02*
G01*
X67939Y-1247060D01*
X55000Y-1260000D01*
X154960Y-1215558D02*
G01*
X124441Y-1215558D01*
X115000Y-1225000D01*
X65000Y-1225000D01*
X40000Y-1200000D01*
X154960Y-1184070D02*
G01*
X100929Y-1184070D01*
X95000Y-1190000D01*
X154960Y-1152570D02*
G01*
X152532Y-1155000D01*
X60000Y-1155000D01*
X154960Y-900599D02*
G01*
X85599Y-900599D01*
X60000Y-875000D01*
X155000Y-869099D02*
G01*
X114099Y-869099D01*
X60000Y-815000D01*
X60000Y-565000D01*
X125000Y-500000D01*
X465000Y-500000D01*
X580000Y-385000D01*
X1055000Y-385000D01*
X790000Y-100000D02*
G01*
X830000Y-140000D01*
X830000Y-205000D01*
X865000Y-240000D01*
X950000Y-240000D01*
X1280000Y-570000D01*
X1535000Y-570000D01*
X1565000Y-600000D01*
X1565000Y-850000D01*
X1585900Y-869099D01*
X1634600Y-869099D01*
X1819690Y-2129029D02*
G01*
X1794030Y-2129029D01*
X1710000Y-2045000D01*
X1710000Y-1110000D01*
X1735000Y-1085000D01*
X1634600Y-2129000D02*
G01*
X1673999Y-2129000D01*
X1685000Y-2120000D01*
X1685000Y-1065000D01*
X1730000Y-1020000D01*
X1634600Y-1026599D02*
G01*
X1678400Y-1026599D01*
X1710000Y-995000D01*
X1710000Y-690000D01*
X1760000Y-2015000D02*
G01*
X1771959Y-2003040D01*
X1819691Y-2003040D01*
X1819700Y-1971599D02*
G01*
X1880000Y-1971599D01*
X1880000Y-1975000D01*
X1819700Y-1845500D02*
G01*
X1875000Y-1845000D01*
X1819701Y-1876999D02*
G01*
X1760000Y-1876999D01*
X1760000Y-1875000D01*
X1735000Y-1925000D02*
G01*
X1751440Y-1908560D01*
X1819691Y-1908560D01*
X1775000Y-1940000D02*
G01*
X1819643Y-1940000D01*
X1819691Y-1940048D01*
X1100000Y-1625000D02*
G01*
X1095000Y-1630000D01*
X1076899Y-1630000D01*
X996899Y-1710000D01*
X1025000Y-1620000D02*
G01*
X970000Y-1675000D01*
X970000Y-1805000D01*
X985000Y-1625000D02*
G01*
X940000Y-1670000D01*
X940000Y-1890000D01*
X940000Y-1630000D02*
G01*
X885000Y-1685000D01*
X885000Y-1925000D01*
X885000Y-1630000D02*
G01*
X830000Y-1685000D01*
X830000Y-1980000D01*
X1080000Y-1680000D02*
G01*
X1080000Y-1955000D01*
X1035000Y-2000000D01*
X1000000Y-1985000D02*
G01*
X996850Y-1981851D01*
X996850Y-1710000D01*
X970000Y-2010000D02*
G01*
X970000Y-1805000D01*
X940000Y-1980000D02*
G01*
X940000Y-1890000D01*
X900000Y-1985000D02*
G01*
X885000Y-1970000D01*
X885000Y-1925000D01*
D12*
X475000Y-1305000D02*
G01*
X445000Y-1275000D01*
X445000Y-625000D01*
X550000Y-1070000D02*
G01*
X580000Y-1040000D01*
X865000Y-1040000D01*
X965000Y-1140000D01*
X1270000Y-1850000D02*
G01*
X1270000Y-1795000D01*
X1335000Y-1730000D01*
X1360000Y-1730000D01*
X1375000Y-1715000D01*
D10*
X1130000Y-1655000D02*
G01*
X1130000Y-1980000D01*
X1634647Y-2066039D02*
G01*
X1631040Y-2066039D01*
X1630000Y-2065000D01*
D15*
X420000Y-2035000D02*
G01*
X435000Y-2050000D01*
X1380000Y-2050000D01*
X1460000Y-1970000D01*
D14*
X897600Y-2370000D02*
G01*
X1105000Y-2370000D01*
D10*
X1819700Y-1373000D02*
G01*
X1760000Y-1373000D01*
X1760000Y-1370000D01*
X1819691Y-1499031D02*
G01*
X1813723Y-1505000D01*
X1760000Y-1505000D01*
X1819691Y-1530000D02*
G01*
X1885000Y-1530000D01*
D12*
X1375000Y-1715000D02*
G01*
X1375000Y-1620000D01*
X1310000Y-1555000D01*
X1200000Y-1555000D01*
D10*
X1200000Y-1555000D02*
G01*
X1210000Y-1545000D01*
X1210000Y-1420000D01*
X1634647Y-1908560D02*
G01*
X1571440Y-1908560D01*
X1546049Y-1933949D01*
X1546049Y-2013949D01*
X1525000Y-2035000D01*
X1525000Y-2130000D01*
X1755000Y-2135000D02*
G01*
X1755000Y-2130000D01*
X1634600Y-1876999D02*
G01*
X1578000Y-1876999D01*
X1525000Y-1930000D01*
X1525000Y-1995000D01*
X1500000Y-2020000D01*
X1500000Y-2090000D01*
X1460000Y-2130000D01*
X1425000Y-2130000D01*
X1125000Y-375000D02*
G01*
X1290000Y-540000D01*
X1510000Y-540000D01*
X1620000Y-430000D01*
X1620000Y-355000D01*
X1275000Y-385000D02*
G01*
X1330000Y-440000D01*
X1490000Y-440000D01*
X1520000Y-410000D01*
X1520000Y-355000D01*
X1819690Y-2192020D02*
G01*
X1910000Y-2282330D01*
X1910000Y-2375000D01*
X1819700Y-2160500D02*
G01*
X1770000Y-2160000D01*
X1755000Y-2175000D01*
X1755000Y-2195000D01*
X1860000Y-2300000D01*
X1860000Y-2625000D01*
X1910000Y-2675000D01*
X1634600Y-2191999D02*
G01*
X1635000Y-2460000D01*
X1730000Y-2555000D01*
X1810000Y-2555000D01*
X1634647Y-2160529D02*
G01*
X1594467Y-2160529D01*
X1570000Y-2185000D01*
X1570000Y-2460000D01*
X1700000Y-2590000D01*
X1810000Y-2590000D01*
X1634600Y-2003000D02*
G01*
X1586999Y-2003000D01*
X1550000Y-2040000D01*
X1550000Y-2145000D01*
X1315000Y-2380000D01*
X1185000Y-2380000D01*
X1150000Y-2415000D01*
X1000000Y-2415000D01*
X925000Y-2490000D01*
X1634600Y-2034499D02*
G01*
X1590500Y-2034499D01*
X1570000Y-2055000D01*
X1570000Y-2150000D01*
X1320000Y-2400000D01*
X1200000Y-2400000D01*
X1165000Y-2435000D01*
X1075000Y-2435000D01*
X1025000Y-2485000D01*
X1025000Y-2490000D01*
D12*
X1055000Y-1095000D02*
G01*
X1090000Y-1060000D01*
X1090000Y-580000D01*
X1025000Y-515000D01*
D23*
G01*
X60000Y-875000D03*
G01*
X90000Y-1115000D03*
G01*
X60000Y-1155000D03*
G01*
X95000Y-1190000D03*
G01*
X40000Y-1200000D03*
G01*
X55000Y-1260000D03*
G01*
X90000Y-1310000D03*
G01*
X35000Y-1310000D03*
G01*
X35000Y-1360000D03*
G01*
X100000Y-1404540D03*
G01*
X35000Y-1410000D03*
G01*
X100000Y-1467530D03*
G01*
X35000Y-1475000D03*
G01*
X35000Y-1530000D03*
G01*
X35000Y-1590000D03*
G01*
X100000Y-1625010D03*
G01*
X35000Y-1640000D03*
G01*
X85019Y-1687750D03*
G01*
X35000Y-1695000D03*
G01*
X85000Y-1760000D03*
G01*
X35000Y-1770000D03*
G01*
X85000Y-1830000D03*
G01*
X35000Y-1860000D03*
G01*
X100000Y-1908519D03*
G01*
X35000Y-1925000D03*
G01*
X100000Y-1971500D03*
G01*
X35000Y-1990000D03*
G01*
X100000Y-2034499D03*
G01*
X35000Y-2045000D03*
G01*
X1895000Y-1795000D03*
G01*
X1930000Y-1760000D03*
G01*
X1875000Y-1719540D03*
G01*
X1930000Y-1710000D03*
G01*
X1875000Y-1656550D03*
G01*
X1930000Y-1650000D03*
G01*
X1930000Y-1590000D03*
G01*
X1925000Y-1467530D03*
G01*
X1880000Y-1435000D03*
G01*
X1925000Y-1410000D03*
G01*
X1895000Y-1360000D03*
G01*
X1895000Y-1300000D03*
G01*
X1925000Y-1260000D03*
G01*
X1875000Y-1215560D03*
G01*
X1925000Y-1200000D03*
G01*
X1875000Y-1152570D03*
G01*
X1925000Y-1145000D03*
G01*
X1875000Y-1089580D03*
G01*
X1925000Y-1085000D03*
G01*
X1875000Y-1026590D03*
G01*
X1925000Y-1025000D03*
G01*
X1875000Y-963600D03*
G01*
X1925000Y-965000D03*
G01*
X1875000Y-900599D03*
G01*
X1925000Y-905000D03*
G01*
X1875000Y-837609D03*
G01*
X1925000Y-795000D03*
G01*
X1875000Y-743119D03*
G01*
X1925000Y-735000D03*
G01*
X1875000Y-680129D03*
G01*
X1925000Y-675000D03*
G01*
X1885000Y-2035000D03*
G01*
X1885000Y-2097530D03*
G01*
X1570000Y-900599D03*
G01*
X1530000Y-932100D03*
G01*
X1570000Y-963600D03*
G01*
X1525000Y-995090D03*
G01*
X1570000Y-1058080D03*
G01*
X1525000Y-1089580D03*
G01*
X1570000Y-1121080D03*
G01*
X1525000Y-1152570D03*
G01*
X1570000Y-1184070D03*
G01*
X1525000Y-1210000D03*
G01*
X1570000Y-1247060D03*
G01*
X1525000Y-1278560D03*
G01*
X1525000Y-1404540D03*
G01*
X1570000Y-1436039D03*
G01*
X1525000Y-1467530D03*
G01*
X1570000Y-1530529D03*
G01*
X1525000Y-1562020D03*
G01*
X1570000Y-1593560D03*
G01*
X1570000Y-1656550D03*
G01*
X1525000Y-1688040D03*
G01*
X1570000Y-1719540D03*
G01*
X1525000Y-1751039D03*
G01*
X1570000Y-1782530D03*
G01*
X1525000Y-1814029D03*
G01*
X400000Y-1310050D03*
G01*
X440000Y-1341550D03*
G01*
X440000Y-1971509D03*
G01*
X400000Y-1940000D03*
G01*
X440000Y-1908519D03*
G01*
X400000Y-1876979D03*
G01*
X440000Y-1845489D03*
G01*
X400000Y-1813989D03*
G01*
X440000Y-1782489D03*
G01*
X400000Y-1750999D03*
G01*
X440000Y-1688000D03*
G01*
X400000Y-1656509D03*
G01*
X440000Y-1625010D03*
G01*
X400000Y-1593519D03*
G01*
X440000Y-1562020D03*
G01*
X400000Y-1530520D03*
G01*
X440000Y-1499029D03*
G01*
X400000Y-1467530D03*
G01*
X440000Y-1404540D03*
G01*
X400000Y-1373040D03*
G01*
X1925000Y-1530000D03*
G36*
X1786225Y-2167420D02*
G01*
X1853154Y-2167420D01*
X1853154Y-2153640D01*
X1786225Y-2153640D01*
G37*
G36*
X1786225Y-2198910D02*
G01*
X1853154Y-2198910D01*
X1853154Y-2185129D01*
X1786225Y-2185129D01*
G37*
G36*
X1786225Y-2104420D02*
G01*
X1853154Y-2104420D01*
X1853154Y-2090639D01*
X1786225Y-2090639D01*
G37*
G36*
X1786225Y-2135920D02*
G01*
X1853154Y-2135920D01*
X1853154Y-2122139D01*
X1786225Y-2122139D01*
G37*
G36*
X1786225Y-2041430D02*
G01*
X1853154Y-2041430D01*
X1853154Y-2027649D01*
X1786225Y-2027649D01*
G37*
G36*
X1786225Y-2009929D02*
G01*
X1853154Y-2009929D01*
X1853154Y-1996149D01*
X1786225Y-1996149D01*
G37*
G36*
X1786225Y-1978440D02*
G01*
X1853154Y-1978440D01*
X1853154Y-1964659D01*
X1786225Y-1964659D01*
G37*
G36*
X1786225Y-1946939D02*
G01*
X1853154Y-1946939D01*
X1853154Y-1933159D01*
X1786225Y-1933159D01*
G37*
G36*
X1601184Y-2167420D02*
G01*
X1668113Y-2167420D01*
X1668113Y-2153640D01*
X1601184Y-2153640D01*
G37*
G36*
X1601184Y-2198910D02*
G01*
X1668113Y-2198910D01*
X1668113Y-2185129D01*
X1601184Y-2185129D01*
G37*
G36*
X1601184Y-2104420D02*
G01*
X1668113Y-2104420D01*
X1668113Y-2090639D01*
X1601184Y-2090639D01*
G37*
G36*
X1601184Y-2135920D02*
G01*
X1668113Y-2135920D01*
X1668113Y-2122139D01*
X1601184Y-2122139D01*
G37*
G36*
X1601184Y-2041430D02*
G01*
X1668113Y-2041430D01*
X1668113Y-2027649D01*
X1601184Y-2027649D01*
G37*
G36*
X1601184Y-2009929D02*
G01*
X1668113Y-2009929D01*
X1668113Y-1996149D01*
X1601184Y-1996149D01*
G37*
G36*
X1601184Y-1978440D02*
G01*
X1668113Y-1978440D01*
X1668113Y-1964659D01*
X1601184Y-1964659D01*
G37*
G36*
X1601184Y-1946939D02*
G01*
X1668113Y-1946939D01*
X1668113Y-1933159D01*
X1601184Y-1933159D01*
G37*
G36*
X1786225Y-2072930D02*
G01*
X1853154Y-2072930D01*
X1853154Y-2059149D01*
X1786225Y-2059149D01*
G37*
G36*
X1786225Y-1915450D02*
G01*
X1853154Y-1915450D01*
X1853154Y-1901669D01*
X1786225Y-1901669D01*
G37*
G36*
X1601184Y-2072930D02*
G01*
X1668113Y-2072930D01*
X1668113Y-2059149D01*
X1601184Y-2059149D01*
G37*
G36*
X1601184Y-1915450D02*
G01*
X1668113Y-1915450D01*
X1668113Y-1901669D01*
X1601184Y-1901669D01*
G37*
G36*
X1786225Y-1852420D02*
G01*
X1853154Y-1852420D01*
X1853154Y-1838640D01*
X1786225Y-1838640D01*
G37*
G36*
X1786225Y-1883910D02*
G01*
X1853154Y-1883910D01*
X1853154Y-1870129D01*
X1786225Y-1870129D01*
G37*
G36*
X1786225Y-1789420D02*
G01*
X1853154Y-1789420D01*
X1853154Y-1775639D01*
X1786225Y-1775639D01*
G37*
G36*
X1786225Y-1820920D02*
G01*
X1853154Y-1820920D01*
X1853154Y-1807139D01*
X1786225Y-1807139D01*
G37*
G36*
X1786225Y-1726430D02*
G01*
X1853154Y-1726430D01*
X1853154Y-1712649D01*
X1786225Y-1712649D01*
G37*
G36*
X1786225Y-1694929D02*
G01*
X1853154Y-1694929D01*
X1853154Y-1681149D01*
X1786225Y-1681149D01*
G37*
G36*
X1786225Y-1663440D02*
G01*
X1853154Y-1663440D01*
X1853154Y-1649659D01*
X1786225Y-1649659D01*
G37*
G36*
X1786225Y-1631939D02*
G01*
X1853154Y-1631939D01*
X1853154Y-1618159D01*
X1786225Y-1618159D01*
G37*
G36*
X1786225Y-1568910D02*
G01*
X1853154Y-1568910D01*
X1853154Y-1555129D01*
X1786225Y-1555129D01*
G37*
G36*
X1786225Y-1537420D02*
G01*
X1853154Y-1537420D01*
X1853154Y-1523640D01*
X1786225Y-1523640D01*
G37*
G36*
X1786225Y-1505920D02*
G01*
X1853154Y-1505920D01*
X1853154Y-1492139D01*
X1786225Y-1492139D01*
G37*
G36*
X1786225Y-1474420D02*
G01*
X1853154Y-1474420D01*
X1853154Y-1460639D01*
X1786225Y-1460639D01*
G37*
G36*
X1786225Y-1379929D02*
G01*
X1853154Y-1379929D01*
X1853154Y-1366149D01*
X1786225Y-1366149D01*
G37*
G36*
X1786225Y-1411430D02*
G01*
X1853154Y-1411430D01*
X1853154Y-1397649D01*
X1786225Y-1397649D01*
G37*
G36*
X1786225Y-1316939D02*
G01*
X1853154Y-1316939D01*
X1853154Y-1303159D01*
X1786225Y-1303159D01*
G37*
G36*
X1786225Y-1253949D02*
G01*
X1853154Y-1253949D01*
X1853154Y-1240169D01*
X1786225Y-1240169D01*
G37*
G36*
X1786225Y-1222449D02*
G01*
X1853154Y-1222449D01*
X1853154Y-1208670D01*
X1786225Y-1208670D01*
G37*
G36*
X1786225Y-1127970D02*
G01*
X1853154Y-1127970D01*
X1853154Y-1114189D01*
X1786225Y-1114189D01*
G37*
G36*
X1786225Y-1159459D02*
G01*
X1853154Y-1159459D01*
X1853154Y-1145680D01*
X1786225Y-1145680D01*
G37*
G36*
X1786225Y-1064969D02*
G01*
X1853154Y-1064969D01*
X1853154Y-1051190D01*
X1786225Y-1051190D01*
G37*
G36*
X1786225Y-1096469D02*
G01*
X1853154Y-1096469D01*
X1853154Y-1082689D01*
X1786225Y-1082689D01*
G37*
G36*
X1786225Y-1001979D02*
G01*
X1853154Y-1001979D01*
X1853154Y-988200D01*
X1786225Y-988200D01*
G37*
G36*
X1786225Y-970489D02*
G01*
X1853154Y-970489D01*
X1853154Y-956709D01*
X1786225Y-956709D01*
G37*
G36*
X1786225Y-938989D02*
G01*
X1853154Y-938989D01*
X1853154Y-925210D01*
X1786225Y-925210D01*
G37*
G36*
X1786225Y-907489D02*
G01*
X1853154Y-907489D01*
X1853154Y-893710D01*
X1786225Y-893710D01*
G37*
G36*
X1786225Y-813009D02*
G01*
X1853154Y-813009D01*
X1853154Y-799229D01*
X1786225Y-799229D01*
G37*
G36*
X1786225Y-844499D02*
G01*
X1853154Y-844499D01*
X1853154Y-830720D01*
X1786225Y-830720D01*
G37*
G36*
X1786225Y-750010D02*
G01*
X1853154Y-750010D01*
X1853154Y-736230D01*
X1786225Y-736230D01*
G37*
G36*
X1786225Y-781509D02*
G01*
X1853154Y-781509D01*
X1853154Y-767730D01*
X1786225Y-767730D01*
G37*
G36*
X1786225Y-687020D02*
G01*
X1853154Y-687020D01*
X1853154Y-673240D01*
X1786225Y-673240D01*
G37*
G36*
X1786225Y-655529D02*
G01*
X1853154Y-655529D01*
X1853154Y-641750D01*
X1786225Y-641750D01*
G37*
G36*
X1601184Y-1852420D02*
G01*
X1668113Y-1852420D01*
X1668113Y-1838640D01*
X1601184Y-1838640D01*
G37*
G36*
X1601184Y-1883910D02*
G01*
X1668113Y-1883910D01*
X1668113Y-1870129D01*
X1601184Y-1870129D01*
G37*
G36*
X1601184Y-1789420D02*
G01*
X1668113Y-1789420D01*
X1668113Y-1775639D01*
X1601184Y-1775639D01*
G37*
G36*
X1601184Y-1820920D02*
G01*
X1668113Y-1820920D01*
X1668113Y-1807139D01*
X1601184Y-1807139D01*
G37*
G36*
X1601184Y-1726430D02*
G01*
X1668113Y-1726430D01*
X1668113Y-1712649D01*
X1601184Y-1712649D01*
G37*
G36*
X1601184Y-1694929D02*
G01*
X1668113Y-1694929D01*
X1668113Y-1681149D01*
X1601184Y-1681149D01*
G37*
G36*
X1601184Y-1663440D02*
G01*
X1668113Y-1663440D01*
X1668113Y-1649659D01*
X1601184Y-1649659D01*
G37*
G36*
X1601184Y-1631939D02*
G01*
X1668113Y-1631939D01*
X1668113Y-1618159D01*
X1601184Y-1618159D01*
G37*
G36*
X1601184Y-1568910D02*
G01*
X1668113Y-1568910D01*
X1668113Y-1555129D01*
X1601184Y-1555129D01*
G37*
G36*
X1601184Y-1537420D02*
G01*
X1668113Y-1537420D01*
X1668113Y-1523640D01*
X1601184Y-1523640D01*
G37*
G36*
X1601184Y-1474420D02*
G01*
X1668113Y-1474420D01*
X1668113Y-1460639D01*
X1601184Y-1460639D01*
G37*
G36*
X1601184Y-1505920D02*
G01*
X1668113Y-1505920D01*
X1668113Y-1492139D01*
X1601184Y-1492139D01*
G37*
G36*
X1601184Y-1379929D02*
G01*
X1668113Y-1379929D01*
X1668113Y-1366149D01*
X1601184Y-1366149D01*
G37*
G36*
X1601184Y-1411430D02*
G01*
X1668113Y-1411430D01*
X1668113Y-1397649D01*
X1601184Y-1397649D01*
G37*
G36*
X1601184Y-1316939D02*
G01*
X1668113Y-1316939D01*
X1668113Y-1303159D01*
X1601184Y-1303159D01*
G37*
G36*
X1601184Y-1222449D02*
G01*
X1668113Y-1222449D01*
X1668113Y-1208670D01*
X1601184Y-1208670D01*
G37*
G36*
X1601184Y-1253949D02*
G01*
X1668113Y-1253949D01*
X1668113Y-1240169D01*
X1601184Y-1240169D01*
G37*
G36*
X1601184Y-1127970D02*
G01*
X1668113Y-1127970D01*
X1668113Y-1114189D01*
X1601184Y-1114189D01*
G37*
G36*
X1601184Y-1159459D02*
G01*
X1668113Y-1159459D01*
X1668113Y-1145680D01*
X1601184Y-1145680D01*
G37*
G36*
X1601184Y-1096469D02*
G01*
X1668113Y-1096469D01*
X1668113Y-1082689D01*
X1601184Y-1082689D01*
G37*
G36*
X1601184Y-1064969D02*
G01*
X1668113Y-1064969D01*
X1668113Y-1051190D01*
X1601184Y-1051190D01*
G37*
G36*
X1601184Y-1001979D02*
G01*
X1668113Y-1001979D01*
X1668113Y-988200D01*
X1601184Y-988200D01*
G37*
G36*
X1601184Y-970489D02*
G01*
X1668113Y-970489D01*
X1668113Y-956709D01*
X1601184Y-956709D01*
G37*
G36*
X1601184Y-938989D02*
G01*
X1668113Y-938989D01*
X1668113Y-925210D01*
X1601184Y-925210D01*
G37*
G36*
X1601184Y-907489D02*
G01*
X1668113Y-907489D01*
X1668113Y-893710D01*
X1601184Y-893710D01*
G37*
G36*
X1601184Y-813009D02*
G01*
X1668113Y-813009D01*
X1668113Y-799229D01*
X1601184Y-799229D01*
G37*
G36*
X1601184Y-844499D02*
G01*
X1668113Y-844499D01*
X1668113Y-830720D01*
X1601184Y-830720D01*
G37*
G36*
X1601184Y-750010D02*
G01*
X1668113Y-750010D01*
X1668113Y-736230D01*
X1601184Y-736230D01*
G37*
G36*
X1601184Y-781509D02*
G01*
X1668113Y-781509D01*
X1668113Y-767730D01*
X1601184Y-767730D01*
G37*
G36*
X1601184Y-655529D02*
G01*
X1668113Y-655529D01*
X1668113Y-641750D01*
X1601184Y-641750D01*
G37*
G36*
X1601184Y-687020D02*
G01*
X1668113Y-687020D01*
X1668113Y-673240D01*
X1601184Y-673240D01*
G37*
G36*
X1786225Y-1757930D02*
G01*
X1853154Y-1757930D01*
X1853154Y-1744149D01*
X1786225Y-1744149D01*
G37*
G36*
X1786225Y-1442930D02*
G01*
X1853154Y-1442930D01*
X1853154Y-1429149D01*
X1786225Y-1429149D01*
G37*
G36*
X1786225Y-1600450D02*
G01*
X1853154Y-1600450D01*
X1853154Y-1586669D01*
X1786225Y-1586669D01*
G37*
G36*
X1786225Y-1348440D02*
G01*
X1853154Y-1348440D01*
X1853154Y-1334659D01*
X1786225Y-1334659D01*
G37*
G36*
X1786225Y-1285450D02*
G01*
X1853154Y-1285450D01*
X1853154Y-1271669D01*
X1786225Y-1271669D01*
G37*
G36*
X1786225Y-1190960D02*
G01*
X1853154Y-1190960D01*
X1853154Y-1177179D01*
X1786225Y-1177179D01*
G37*
G36*
X1786225Y-1033479D02*
G01*
X1853154Y-1033479D01*
X1853154Y-1019699D01*
X1786225Y-1019699D01*
G37*
G36*
X1786225Y-875999D02*
G01*
X1853154Y-875999D01*
X1853154Y-862220D01*
X1786225Y-862220D01*
G37*
G36*
X1786225Y-718519D02*
G01*
X1853154Y-718519D01*
X1853154Y-704740D01*
X1786225Y-704740D01*
G37*
G36*
X1601184Y-1757930D02*
G01*
X1668113Y-1757930D01*
X1668113Y-1744149D01*
X1601184Y-1744149D01*
G37*
G36*
X1601184Y-1442930D02*
G01*
X1668113Y-1442930D01*
X1668113Y-1429149D01*
X1601184Y-1429149D01*
G37*
G36*
X1601184Y-1600450D02*
G01*
X1668113Y-1600450D01*
X1668113Y-1586669D01*
X1601184Y-1586669D01*
G37*
G36*
X1601184Y-1348440D02*
G01*
X1668113Y-1348440D01*
X1668113Y-1334659D01*
X1601184Y-1334659D01*
G37*
G36*
X1601184Y-1285450D02*
G01*
X1668113Y-1285450D01*
X1668113Y-1271669D01*
X1601184Y-1271669D01*
G37*
G36*
X1601184Y-1190960D02*
G01*
X1668113Y-1190960D01*
X1668113Y-1177179D01*
X1601184Y-1177179D01*
G37*
G36*
X1601184Y-1033479D02*
G01*
X1668113Y-1033479D01*
X1668113Y-1019699D01*
X1601184Y-1019699D01*
G37*
G36*
X1601184Y-875999D02*
G01*
X1668113Y-875999D01*
X1668113Y-862220D01*
X1601184Y-862220D01*
G37*
G36*
X1601184Y-718519D02*
G01*
X1668113Y-718519D01*
X1668113Y-704740D01*
X1601184Y-704740D01*
G37*
G36*
X121494Y-2104380D02*
G01*
X188423Y-2104380D01*
X188423Y-2090599D01*
X121494Y-2090599D01*
G37*
G36*
X121494Y-2072890D02*
G01*
X188423Y-2072890D01*
X188423Y-2059110D01*
X121494Y-2059110D01*
G37*
G36*
X306534Y-2072890D02*
G01*
X373463Y-2072890D01*
X373463Y-2059110D01*
X306534Y-2059110D01*
G37*
G36*
X121494Y-2041390D02*
G01*
X188423Y-2041390D01*
X188423Y-2027609D01*
X121494Y-2027609D01*
G37*
G36*
X306534Y-2041390D02*
G01*
X373463Y-2041390D01*
X373463Y-2027609D01*
X306534Y-2027609D01*
G37*
G36*
X121494Y-2009890D02*
G01*
X188423Y-2009890D01*
X188423Y-1996109D01*
X121494Y-1996109D01*
G37*
G36*
X306534Y-2104380D02*
G01*
X373463Y-2104380D01*
X373463Y-2090599D01*
X306534Y-2090599D01*
G37*
G36*
X306534Y-2009890D02*
G01*
X373463Y-2009890D01*
X373463Y-1996109D01*
X306534Y-1996109D01*
G37*
G36*
X306534Y-1978400D02*
G01*
X373463Y-1978400D01*
X373463Y-1964620D01*
X306534Y-1964620D01*
G37*
G36*
X121494Y-1978400D02*
G01*
X188423Y-1978400D01*
X188423Y-1964620D01*
X121494Y-1964620D01*
G37*
G36*
X306534Y-1253949D02*
G01*
X373463Y-1253949D01*
X373463Y-1240169D01*
X306534Y-1240169D01*
G37*
G36*
X306534Y-1883870D02*
G01*
X373463Y-1883870D01*
X373463Y-1870090D01*
X306534Y-1870090D01*
G37*
G36*
X306534Y-1316939D02*
G01*
X373463Y-1316939D01*
X373463Y-1303159D01*
X306534Y-1303159D01*
G37*
G36*
X306534Y-1379929D02*
G01*
X373463Y-1379929D01*
X373463Y-1366149D01*
X306534Y-1366149D01*
G37*
G36*
X306534Y-2135880D02*
G01*
X373463Y-2135880D01*
X373463Y-2122100D01*
X306534Y-2122100D01*
G37*
G36*
X121494Y-2135880D02*
G01*
X188423Y-2135880D01*
X188423Y-2122100D01*
X121494Y-2122100D01*
G37*
G36*
X306534Y-2167379D02*
G01*
X373463Y-2167379D01*
X373463Y-2153600D01*
X306534Y-2153600D01*
G37*
G36*
X121494Y-2167379D02*
G01*
X188423Y-2167379D01*
X188423Y-2153600D01*
X121494Y-2153600D01*
G37*
G36*
X306534Y-2198870D02*
G01*
X373463Y-2198870D01*
X373463Y-2185090D01*
X306534Y-2185090D01*
G37*
G36*
X121494Y-2198870D02*
G01*
X188423Y-2198870D01*
X188423Y-2185090D01*
X121494Y-2185090D01*
G37*
G36*
X306534Y-1757890D02*
G01*
X373463Y-1757890D01*
X373463Y-1744110D01*
X306534Y-1744110D01*
G37*
G36*
X306534Y-1127970D02*
G01*
X373463Y-1127970D01*
X373463Y-1114189D01*
X306534Y-1114189D01*
G37*
G36*
X121494Y-1127970D02*
G01*
X188423Y-1127970D01*
X188423Y-1114189D01*
X121494Y-1114189D01*
G37*
G36*
X306534Y-1411430D02*
G01*
X373463Y-1411430D01*
X373463Y-1397649D01*
X306534Y-1397649D01*
G37*
G36*
X306534Y-1694890D02*
G01*
X373463Y-1694890D01*
X373463Y-1681109D01*
X306534Y-1681109D01*
G37*
G36*
X121494Y-1694890D02*
G01*
X188423Y-1694890D01*
X188423Y-1681109D01*
X121494Y-1681109D01*
G37*
G36*
X121494Y-1411430D02*
G01*
X188423Y-1411430D01*
X188423Y-1397649D01*
X121494Y-1397649D01*
G37*
G36*
X306534Y-1348440D02*
G01*
X373463Y-1348440D01*
X373463Y-1334659D01*
X306534Y-1334659D01*
G37*
G36*
X121494Y-1348440D02*
G01*
X188423Y-1348440D01*
X188423Y-1334659D01*
X121494Y-1334659D01*
G37*
G36*
X121494Y-1033479D02*
G01*
X188423Y-1033479D01*
X188423Y-1019699D01*
X121494Y-1019699D01*
G37*
G36*
X306534Y-1064969D02*
G01*
X373463Y-1064969D01*
X373463Y-1051190D01*
X306534Y-1051190D01*
G37*
G36*
X121494Y-1379929D02*
G01*
X188423Y-1379929D01*
X188423Y-1366149D01*
X121494Y-1366149D01*
G37*
G36*
X121494Y-1064969D02*
G01*
X188423Y-1064969D01*
X188423Y-1051190D01*
X121494Y-1051190D01*
G37*
G36*
X121494Y-1442930D02*
G01*
X188423Y-1442930D01*
X188423Y-1429149D01*
X121494Y-1429149D01*
G37*
G36*
X306534Y-1033479D02*
G01*
X373463Y-1033479D01*
X373463Y-1019699D01*
X306534Y-1019699D01*
G37*
G36*
X306534Y-1285450D02*
G01*
X373463Y-1285450D01*
X373463Y-1271669D01*
X306534Y-1271669D01*
G37*
G36*
X121494Y-1631900D02*
G01*
X188423Y-1631900D01*
X188423Y-1618119D01*
X121494Y-1618119D01*
G37*
G36*
X121494Y-1663400D02*
G01*
X188423Y-1663400D01*
X188423Y-1649620D01*
X121494Y-1649620D01*
G37*
G36*
X121494Y-1883870D02*
G01*
X188423Y-1883870D01*
X188423Y-1870090D01*
X121494Y-1870090D01*
G37*
G36*
X121494Y-1537409D02*
G01*
X188423Y-1537409D01*
X188423Y-1523629D01*
X121494Y-1523629D01*
G37*
G36*
X121494Y-1316939D02*
G01*
X188423Y-1316939D01*
X188423Y-1303159D01*
X121494Y-1303159D01*
G37*
G36*
X121494Y-1726390D02*
G01*
X188423Y-1726390D01*
X188423Y-1712609D01*
X121494Y-1712609D01*
G37*
G36*
X121494Y-1852379D02*
G01*
X188423Y-1852379D01*
X188423Y-1838600D01*
X121494Y-1838600D01*
G37*
G36*
X121494Y-1600410D02*
G01*
X188423Y-1600410D01*
X188423Y-1586630D01*
X121494Y-1586630D01*
G37*
G36*
X121494Y-1505920D02*
G01*
X188423Y-1505920D01*
X188423Y-1492139D01*
X121494Y-1492139D01*
G37*
G36*
X121494Y-1253949D02*
G01*
X188423Y-1253949D01*
X188423Y-1240169D01*
X121494Y-1240169D01*
G37*
G36*
X121494Y-1568910D02*
G01*
X188423Y-1568910D01*
X188423Y-1555129D01*
X121494Y-1555129D01*
G37*
G36*
X121494Y-1757890D02*
G01*
X188423Y-1757890D01*
X188423Y-1744110D01*
X121494Y-1744110D01*
G37*
G36*
X121494Y-1285450D02*
G01*
X188423Y-1285450D01*
X188423Y-1271669D01*
X121494Y-1271669D01*
G37*
G36*
X121494Y-970489D02*
G01*
X188423Y-970489D01*
X188423Y-956709D01*
X121494Y-956709D01*
G37*
G36*
X121494Y-1001979D02*
G01*
X188423Y-1001979D01*
X188423Y-988200D01*
X121494Y-988200D01*
G37*
G36*
X121494Y-1096469D02*
G01*
X188423Y-1096469D01*
X188423Y-1082689D01*
X121494Y-1082689D01*
G37*
G36*
X121494Y-1915410D02*
G01*
X188423Y-1915410D01*
X188423Y-1901630D01*
X121494Y-1901630D01*
G37*
G36*
X121494Y-1946900D02*
G01*
X188423Y-1946900D01*
X188423Y-1933119D01*
X121494Y-1933119D01*
G37*
G36*
X306534Y-1915410D02*
G01*
X373463Y-1915410D01*
X373463Y-1901630D01*
X306534Y-1901630D01*
G37*
G36*
X306534Y-1946900D02*
G01*
X373463Y-1946900D01*
X373463Y-1933119D01*
X306534Y-1933119D01*
G37*
G36*
X306534Y-1001979D02*
G01*
X373463Y-1001979D01*
X373463Y-988200D01*
X306534Y-988200D01*
G37*
G36*
X121494Y-1789380D02*
G01*
X188423Y-1789380D01*
X188423Y-1775599D01*
X121494Y-1775599D01*
G37*
G36*
X121494Y-1820880D02*
G01*
X188423Y-1820880D01*
X188423Y-1807100D01*
X121494Y-1807100D01*
G37*
G36*
X306534Y-1442930D02*
G01*
X373463Y-1442930D01*
X373463Y-1429149D01*
X306534Y-1429149D01*
G37*
G36*
X306534Y-1474420D02*
G01*
X373463Y-1474420D01*
X373463Y-1460639D01*
X306534Y-1460639D01*
G37*
G36*
X121494Y-1474420D02*
G01*
X188423Y-1474420D01*
X188423Y-1460639D01*
X121494Y-1460639D01*
G37*
G36*
X306534Y-970489D02*
G01*
X373463Y-970489D01*
X373463Y-956709D01*
X306534Y-956709D01*
G37*
G36*
X121494Y-1222449D02*
G01*
X188423Y-1222449D01*
X188423Y-1208670D01*
X121494Y-1208670D01*
G37*
G36*
X306534Y-1159459D02*
G01*
X373463Y-1159459D01*
X373463Y-1145680D01*
X306534Y-1145680D01*
G37*
G36*
X306534Y-1190960D02*
G01*
X373463Y-1190960D01*
X373463Y-1177179D01*
X306534Y-1177179D01*
G37*
G36*
X306534Y-1096469D02*
G01*
X373463Y-1096469D01*
X373463Y-1082689D01*
X306534Y-1082689D01*
G37*
G36*
X121494Y-1159459D02*
G01*
X188423Y-1159459D01*
X188423Y-1145680D01*
X121494Y-1145680D01*
G37*
G36*
X121494Y-1190960D02*
G01*
X188423Y-1190960D01*
X188423Y-1177179D01*
X121494Y-1177179D01*
G37*
G36*
X306534Y-1222449D02*
G01*
X373463Y-1222449D01*
X373463Y-1208670D01*
X306534Y-1208670D01*
G37*
G36*
X306534Y-1568910D02*
G01*
X373463Y-1568910D01*
X373463Y-1555129D01*
X306534Y-1555129D01*
G37*
G36*
X306534Y-1663400D02*
G01*
X373463Y-1663400D01*
X373463Y-1649620D01*
X306534Y-1649620D01*
G37*
G36*
X306534Y-1600410D02*
G01*
X373463Y-1600410D01*
X373463Y-1586630D01*
X306534Y-1586630D01*
G37*
G36*
X306534Y-1820880D02*
G01*
X373463Y-1820880D01*
X373463Y-1807100D01*
X306534Y-1807100D01*
G37*
G36*
X306534Y-1537409D02*
G01*
X373463Y-1537409D01*
X373463Y-1523629D01*
X306534Y-1523629D01*
G37*
G36*
X306534Y-1631900D02*
G01*
X373463Y-1631900D01*
X373463Y-1618119D01*
X306534Y-1618119D01*
G37*
G36*
X306534Y-1852379D02*
G01*
X373463Y-1852379D01*
X373463Y-1838600D01*
X306534Y-1838600D01*
G37*
G36*
X306534Y-1505920D02*
G01*
X373463Y-1505920D01*
X373463Y-1492139D01*
X306534Y-1492139D01*
G37*
G36*
X306534Y-1789380D02*
G01*
X373463Y-1789380D01*
X373463Y-1775599D01*
X306534Y-1775599D01*
G37*
G36*
X306534Y-1726390D02*
G01*
X373463Y-1726390D01*
X373463Y-1712609D01*
X306534Y-1712609D01*
G37*
G36*
X306534Y-938989D02*
G01*
X373463Y-938989D01*
X373463Y-925210D01*
X306534Y-925210D01*
G37*
G36*
X306534Y-813009D02*
G01*
X373463Y-813009D01*
X373463Y-799229D01*
X306534Y-799229D01*
G37*
G36*
X121494Y-813009D02*
G01*
X188423Y-813009D01*
X188423Y-799229D01*
X121494Y-799229D01*
G37*
G36*
X121494Y-718519D02*
G01*
X188423Y-718519D01*
X188423Y-704740D01*
X121494Y-704740D01*
G37*
G36*
X306534Y-750010D02*
G01*
X373463Y-750010D01*
X373463Y-736230D01*
X306534Y-736230D01*
G37*
G36*
X121494Y-750010D02*
G01*
X188423Y-750010D01*
X188423Y-736230D01*
X121494Y-736230D01*
G37*
G36*
X306534Y-718519D02*
G01*
X373463Y-718519D01*
X373463Y-704740D01*
X306534Y-704740D01*
G37*
G36*
X121494Y-938989D02*
G01*
X188423Y-938989D01*
X188423Y-925210D01*
X121494Y-925210D01*
G37*
G36*
X121494Y-655529D02*
G01*
X188423Y-655529D01*
X188423Y-641750D01*
X121494Y-641750D01*
G37*
G36*
X121494Y-687020D02*
G01*
X188423Y-687020D01*
X188423Y-673240D01*
X121494Y-673240D01*
G37*
G36*
X121494Y-781509D02*
G01*
X188423Y-781509D01*
X188423Y-767730D01*
X121494Y-767730D01*
G37*
G36*
X306534Y-687020D02*
G01*
X373463Y-687020D01*
X373463Y-673240D01*
X306534Y-673240D01*
G37*
G36*
X306534Y-655529D02*
G01*
X373463Y-655529D01*
X373463Y-641750D01*
X306534Y-641750D01*
G37*
G36*
X121494Y-907489D02*
G01*
X188423Y-907489D01*
X188423Y-893710D01*
X121494Y-893710D01*
G37*
G36*
X306534Y-844499D02*
G01*
X373463Y-844499D01*
X373463Y-830720D01*
X306534Y-830720D01*
G37*
G36*
X306534Y-875999D02*
G01*
X373463Y-875999D01*
X373463Y-862220D01*
X306534Y-862220D01*
G37*
G36*
X306534Y-781509D02*
G01*
X373463Y-781509D01*
X373463Y-767730D01*
X306534Y-767730D01*
G37*
G36*
X121494Y-844499D02*
G01*
X188423Y-844499D01*
X188423Y-830720D01*
X121494Y-830720D01*
G37*
G36*
X121494Y-875999D02*
G01*
X188423Y-875999D01*
X188423Y-862220D01*
X121494Y-862220D01*
G37*
G36*
X306534Y-907489D02*
G01*
X373463Y-907489D01*
X373463Y-893710D01*
X306534Y-893710D01*
G37*
D56*
G01*
X211500Y-399149D03*
D57*
G01*
X1727169Y-2291329D03*
D58*
G01*
X1727169Y-549169D03*
D56*
G01*
X1763149Y-399149D03*
G01*
X1763149Y-2441350D03*
G01*
X211500Y-2441350D03*
D57*
G01*
X247480Y-2291329D03*
D58*
G01*
X247480Y-549169D03*
D13*
G01*
X55000Y-940000D03*
G01*
X1105000Y-2115000D03*
G01*
X1105000Y-2195000D03*
G01*
X55000Y-1055000D03*
D59*
G01*
X1910000Y-2775000D03*
G01*
X1910000Y-2675000D03*
G01*
X1910000Y-2575000D03*
G01*
X1910000Y-2475000D03*
D60*
G01*
X1910000Y-2375000D03*
D59*
G01*
X1420000Y-355000D03*
G01*
X1520000Y-355000D03*
D60*
G01*
X1620000Y-355000D03*
D59*
G01*
X1125000Y-2490000D03*
G01*
X1025000Y-2490000D03*
G36*
X893999Y-2459000D02*
G01*
X956000Y-2459000D01*
X956000Y-2520999D01*
X893999Y-2520999D01*
G37*
G01*
X1295000Y-630000D03*
G01*
X1395000Y-630000D03*
D60*
G01*
X1495000Y-630000D03*
D13*
G01*
X1135000Y-1340000D03*
G01*
X1250000Y-1340000D03*
G01*
X1105000Y-2275000D03*
D57*
G01*
X475030Y-99980D03*
G01*
X475030Y-178719D03*
G01*
X553769Y-99980D03*
G01*
X553769Y-178719D03*
G01*
X632510Y-178719D03*
G01*
X632510Y-99980D03*
G01*
X789989Y-99980D03*
G01*
X789989Y-178719D03*
G01*
X711250Y-178719D03*
G01*
X711250Y-99980D03*
G01*
X947470Y-99980D03*
G01*
X947470Y-178719D03*
G01*
X868729Y-178719D03*
G01*
X868729Y-99980D03*
G01*
X1104949Y-99980D03*
G01*
X1104949Y-178719D03*
G01*
X1026210Y-178719D03*
G01*
X1026210Y-99980D03*
G01*
X1262430Y-99980D03*
G01*
X1262430Y-178719D03*
G01*
X1183689Y-178719D03*
G01*
X1183689Y-99980D03*
G01*
X1419909Y-99980D03*
G01*
X1419909Y-178719D03*
G01*
X1341170Y-178719D03*
G01*
X1341170Y-99980D03*
G01*
X1498649Y-178719D03*
G01*
X1498649Y-99980D03*
D13*
G01*
X1015000Y-1400000D03*
G01*
X1015000Y-1485000D03*
G01*
X1105000Y-2370000D03*
D61*
G01*
X310000Y-150000D03*
G01*
X1660000Y-150000D03*
G01*
X310000Y-2700000D03*
G01*
X1660000Y-2700000D03*
D22*
G01*
X764679Y-1179690D03*
G01*
X764679Y-1140320D03*
G01*
X725309Y-1140320D03*
G01*
X725309Y-1179690D03*
G01*
X1294679Y-1079690D03*
G01*
X1294679Y-1040320D03*
G01*
X1255309Y-1040320D03*
G01*
X1255309Y-1079690D03*
G01*
X550000Y-1070000D03*
G01*
X965000Y-1140000D03*
G01*
X210000Y-665000D03*
G01*
X245000Y-665000D03*
G01*
X285000Y-665000D03*
G01*
X155000Y-650000D03*
G01*
X155000Y-680000D03*
G01*
X345000Y-650000D03*
G01*
X345000Y-680000D03*
G01*
X1055000Y-1095000D03*
G01*
X1025000Y-515000D03*
G01*
X475000Y-1305000D03*
G01*
X445000Y-625000D03*
G01*
X885000Y-1925000D03*
G01*
X940000Y-1890000D03*
G01*
X970000Y-1805000D03*
G01*
X996850Y-1710000D03*
G01*
X1080000Y-1680000D03*
G01*
X900000Y-1985000D03*
G01*
X940000Y-1980000D03*
G01*
X970000Y-2010000D03*
G01*
X1000000Y-1985000D03*
G01*
X1035000Y-2000000D03*
G01*
X1100000Y-1625000D03*
G01*
X1025000Y-1620000D03*
G01*
X985000Y-1625000D03*
G01*
X940000Y-1630000D03*
G01*
X885000Y-1630000D03*
G01*
X830000Y-1980000D03*
G01*
X1775000Y-1940000D03*
G01*
X1735000Y-1925000D03*
G01*
X1760000Y-1875000D03*
G01*
X1880000Y-1975000D03*
G01*
X1875000Y-1845000D03*
G01*
X1760000Y-2015000D03*
G01*
X1130000Y-1655000D03*
G01*
X1270000Y-1850000D03*
G01*
X1375000Y-1715000D03*
G01*
X1200000Y-1555000D03*
G01*
X1460000Y-1970000D03*
G01*
X1130000Y-1980000D03*
G01*
X1630000Y-2065000D03*
G01*
X420000Y-2035000D03*
G01*
X897600Y-2370000D03*
G01*
X1275000Y-385000D03*
G01*
X1125000Y-375000D03*
G01*
X1055000Y-385000D03*
G01*
X1760000Y-1370000D03*
G01*
X1760000Y-1505000D03*
G01*
X1885000Y-1530000D03*
G01*
X1310000Y-1555000D03*
G01*
X1210000Y-1420000D03*
G01*
X1425000Y-2130000D03*
G01*
X1525000Y-2130000D03*
G01*
X1634650Y-1499029D03*
G01*
X1819690Y-2066039D03*
G01*
X1819690Y-1310050D03*
G01*
X1755000Y-2130000D03*
G01*
X1450000Y-2090000D03*
G01*
X1810000Y-2555000D03*
G01*
X1810000Y-2590000D03*
G01*
X1710000Y-690000D03*
G01*
X1730000Y-1020000D03*
G01*
X1735000Y-1085000D03*
G01*
X1634650Y-1625050D03*
G01*
X1755000Y-1780000D03*
G01*
X1755000Y-1595000D03*
G01*
X1755000Y-710000D03*
G01*
X1035000Y-1130000D03*
G01*
X1105339Y-1195000D03*
G01*
X635000Y-1290000D03*
G01*
X760000Y-1000000D03*
G01*
X770000Y-1240000D03*
G01*
X1275000Y-975000D03*
G01*
X1310000Y-1145000D03*
G01*
X1450000Y-1715000D03*
G01*
X1415000Y-1844989D03*
G01*
X1215000Y-1990000D03*
G01*
X1305000Y-1955000D03*
G01*
X1525000Y-1630000D03*
G01*
X995000Y-2150000D03*
G01*
X715000Y-2010000D03*
G01*
X685000Y-2130000D03*
G01*
X550000Y-2115000D03*
G01*
X370000Y-2440000D03*
G01*
X365000Y-2535000D03*
G01*
X410000Y-1145000D03*
G01*
X405000Y-855000D03*
G01*
X395000Y-540000D03*
G01*
X255000Y-830000D03*
G01*
X245000Y-1215000D03*
G01*
X245000Y-1500000D03*
G01*
X270000Y-1640000D03*
G01*
X250000Y-1930000D03*
G01*
X1475000Y-1335000D03*
G01*
X1210000Y-1180000D03*
G01*
X1415000Y-1470000D03*
G01*
X1580000Y-1380000D03*
G01*
X1160000Y-580000D03*
G01*
X1100000Y-435000D03*
G01*
X1005000Y-240000D03*
G01*
X735000Y-250000D03*
G01*
X710000Y-460000D03*
G01*
X845000Y-465000D03*
G01*
X635000Y-730000D03*
G01*
X510000Y-760000D03*
G01*
X520000Y-885000D03*
G01*
X540000Y-995000D03*
G01*
X890000Y-950000D03*
G01*
X1060000Y-700000D03*
G01*
X1230000Y-700000D03*
G01*
X1440000Y-735000D03*
G01*
X1925000Y-575000D03*
G01*
X1800000Y-575000D03*
G01*
X1810000Y-2670000D03*
G01*
X1780000Y-2780000D03*
G01*
X1580000Y-2570000D03*
G01*
X1530000Y-2400000D03*
G01*
X1325000Y-2165000D03*
G01*
X1200000Y-2195000D03*
G01*
X1195000Y-2325000D03*
G01*
X1350000Y-2265000D03*
G01*
X685000Y-2285000D03*
G01*
X695000Y-2410000D03*
G01*
X575000Y-1955000D03*
G01*
X560000Y-1695000D03*
G01*
X42199Y-42199D03*
G01*
X42199Y-242199D03*
G01*
X42199Y-442199D03*
G01*
X442199Y-42199D03*
G01*
X442199Y-242199D03*
G01*
X442199Y-442199D03*
G01*
X642199Y-42199D03*
G01*
X642199Y-1442199D03*
G01*
X842200Y-42199D03*
G01*
X842200Y-642199D03*
G01*
X842200Y-842199D03*
G01*
X842200Y-1442199D03*
G01*
X1042200Y-42199D03*
G01*
X1242200Y-42199D03*
G01*
X1242200Y-242199D03*
G01*
X1242200Y-842199D03*
G01*
X1442200Y-42199D03*
G01*
X1442200Y-842199D03*
G01*
X1642200Y-442199D03*
G01*
X1842200Y-42199D03*
G01*
X1842200Y-242199D03*
G01*
X557199Y-1592199D03*
G01*
X557199Y-1792199D03*
G01*
X757199Y-1592199D03*
G01*
X1401841Y-1598976D03*
G01*
X42199Y-2205562D03*
G01*
X42199Y-2405562D03*
G01*
X42199Y-2605562D03*
G01*
X242199Y-1805562D03*
G01*
X442199Y-2205562D03*
G01*
X842200Y-2205562D03*
G01*
X1442200Y-2405562D03*
M02*
