G04 Layer: TopSolderMaskLayer*
G04 EasyEDA v6.4.31, 2022-04-07 10:18:28*
G04 166d8731ec0749d1b06731797b2d177b,10*
G04 Gerber Generator version 0.2*
G04 Scale: 100 percent, Rotated: No, Reflected: No *
G04 Dimensions in inches *
G04 leading zeros omitted , absolute positions ,3 integer and 6 decimal *
%FSLAX36Y36*%
%MOIN*%

%ADD74C,0.0266*%
%ADD75C,0.0316*%
%ADD76C,0.0827*%
%ADD77C,0.0180*%
%ADD78C,0.0316*%
%ADD79C,0.0474*%
%ADD80C,0.1576*%
%ADD81C,0.0592*%
%ADD82C,0.0434*%
%ADD83C,0.0680*%
%ADD84C,0.0660*%
%ADD118C,0.2049*%

%LPD*%
D74*
X664798Y-1085000D02*
G01*
X607161Y-1085000D01*
X664798Y-1135000D02*
G01*
X607161Y-1135000D01*
X664798Y-1185000D02*
G01*
X607161Y-1185000D01*
X664798Y-1235000D02*
G01*
X607161Y-1235000D01*
X882839Y-1085000D02*
G01*
X825200Y-1085000D01*
X882839Y-1135000D02*
G01*
X825200Y-1135000D01*
X882839Y-1185000D02*
G01*
X825200Y-1185000D01*
X882839Y-1235000D02*
G01*
X825200Y-1235000D01*
X1194799Y-985000D02*
G01*
X1137160Y-985000D01*
X1194799Y-1035000D02*
G01*
X1137160Y-1035000D01*
X1194799Y-1085000D02*
G01*
X1137160Y-1085000D01*
X1194799Y-1135000D02*
G01*
X1137160Y-1135000D01*
X1412839Y-985000D02*
G01*
X1355200Y-985000D01*
X1412839Y-1035000D02*
G01*
X1355200Y-1035000D01*
X1412839Y-1085000D02*
G01*
X1355200Y-1085000D01*
X1412839Y-1135000D02*
G01*
X1355200Y-1135000D01*
D75*
X175900Y-1262177D02*
G01*
X175900Y-1309421D01*
X294099Y-1262177D02*
G01*
X294099Y-1309421D01*
D76*
X235000Y-1354672D02*
G01*
X235000Y-1413728D01*
D75*
X235000Y-1317258D02*
G01*
X235000Y-1262141D01*
D77*
X872500Y-2308245D02*
G01*
X872500Y-2250796D01*
X897500Y-2308245D02*
G01*
X897500Y-2250796D01*
X922500Y-2308245D02*
G01*
X922500Y-2250796D01*
X947500Y-2308245D02*
G01*
X947500Y-2250796D01*
X972500Y-2308245D02*
G01*
X972500Y-2250796D01*
X997500Y-2308245D02*
G01*
X997500Y-2250796D01*
X1022500Y-2308245D02*
G01*
X1022500Y-2250796D01*
X1047500Y-2308245D02*
G01*
X1047500Y-2250796D01*
X872500Y-2099203D02*
G01*
X872500Y-2041756D01*
X897500Y-2099203D02*
G01*
X897500Y-2041756D01*
X922500Y-2099203D02*
G01*
X922500Y-2041756D01*
X947500Y-2099203D02*
G01*
X947500Y-2041756D01*
X972500Y-2099203D02*
G01*
X972500Y-2041756D01*
X997500Y-2099203D02*
G01*
X997500Y-2041756D01*
X1022500Y-2099203D02*
G01*
X1022500Y-2041756D01*
X1047500Y-2099203D02*
G01*
X1047500Y-2041756D01*
D78*
X1330240Y-1405000D02*
G01*
X1294018Y-1405000D01*
X1330240Y-1455000D02*
G01*
X1294018Y-1455000D01*
X1330240Y-1505000D02*
G01*
X1294018Y-1505000D01*
X1330240Y-1555000D02*
G01*
X1294018Y-1555000D01*
X1545981Y-1405000D02*
G01*
X1509759Y-1405000D01*
X1545981Y-1455000D02*
G01*
X1509759Y-1455000D01*
X1545981Y-1505000D02*
G01*
X1509759Y-1505000D01*
X1545981Y-1555000D02*
G01*
X1509759Y-1555000D01*
D79*
G01*
X1575000Y-535000D03*
D80*
G01*
X211500Y-399149D03*
D81*
G01*
X1727169Y-2291329D03*
D82*
G01*
X1727169Y-549169D03*
D80*
G01*
X1763149Y-399149D03*
G01*
X1763149Y-2441350D03*
G01*
X211500Y-2441350D03*
D81*
G01*
X247480Y-2291329D03*
D82*
G01*
X247480Y-549169D03*
D83*
G01*
X55000Y-940000D03*
G01*
X1105000Y-2115000D03*
G01*
X1105000Y-2195000D03*
G01*
X55000Y-1055000D03*
D84*
G01*
X1910000Y-2775000D03*
G01*
X1910000Y-2675000D03*
G01*
X1910000Y-2575000D03*
G01*
X1910000Y-2475000D03*
G36*
X1876999Y-2408000D02*
G01*
X1876999Y-2341999D01*
X1943000Y-2341999D01*
X1943000Y-2408000D01*
G37*
G01*
X1420000Y-355000D03*
G01*
X1520000Y-355000D03*
G36*
X1586999Y-388000D02*
G01*
X1586999Y-321999D01*
X1653000Y-321999D01*
X1653000Y-388000D01*
G37*
G01*
X1125000Y-2490000D03*
G01*
X1025000Y-2490000D03*
G36*
X891999Y-2523000D02*
G01*
X891999Y-2456999D01*
X958000Y-2456999D01*
X958000Y-2523000D01*
G37*
G01*
X1295000Y-630000D03*
G01*
X1395000Y-630000D03*
G36*
X1461999Y-663000D02*
G01*
X1461999Y-596999D01*
X1528000Y-596999D01*
X1528000Y-663000D01*
G37*
G36*
X1359099Y-1943499D02*
G01*
X1359099Y-1905999D01*
X1372899Y-1905999D01*
X1372899Y-1943499D01*
G37*
G36*
X1378800Y-1943499D02*
G01*
X1378800Y-1905999D01*
X1392600Y-1905999D01*
X1392600Y-1943499D01*
G37*
G36*
X1398500Y-1943499D02*
G01*
X1398500Y-1905999D01*
X1412299Y-1905999D01*
X1412299Y-1943499D01*
G37*
G36*
X1418199Y-1943499D02*
G01*
X1418199Y-1905999D01*
X1431999Y-1905999D01*
X1431999Y-1943499D01*
G37*
G36*
X1437799Y-1943499D02*
G01*
X1437799Y-1905999D01*
X1451599Y-1905999D01*
X1451599Y-1943499D01*
G37*
G36*
X1457500Y-1943499D02*
G01*
X1457500Y-1905999D01*
X1471300Y-1905999D01*
X1471300Y-1943499D01*
G37*
G36*
X1476000Y-1901300D02*
G01*
X1476000Y-1887399D01*
X1513500Y-1887399D01*
X1513500Y-1901300D01*
G37*
G36*
X1476000Y-1881700D02*
G01*
X1476000Y-1867899D01*
X1513500Y-1867899D01*
X1513500Y-1881700D01*
G37*
G36*
X1476000Y-1861999D02*
G01*
X1476000Y-1848200D01*
X1513500Y-1848200D01*
X1513500Y-1861999D01*
G37*
G36*
X1476000Y-1842300D02*
G01*
X1476000Y-1828499D01*
X1513500Y-1828499D01*
X1513500Y-1842300D01*
G37*
G36*
X1476000Y-1822600D02*
G01*
X1476000Y-1808800D01*
X1513500Y-1808800D01*
X1513500Y-1822600D01*
G37*
G36*
X1476000Y-1802899D02*
G01*
X1476000Y-1789099D01*
X1513500Y-1789099D01*
X1513500Y-1802899D01*
G37*
G36*
X1457500Y-1784000D02*
G01*
X1457500Y-1746500D01*
X1471300Y-1746500D01*
X1471300Y-1784000D01*
G37*
G36*
X1437799Y-1784000D02*
G01*
X1437799Y-1746500D01*
X1451599Y-1746500D01*
X1451599Y-1784000D01*
G37*
G36*
X1418199Y-1784000D02*
G01*
X1418199Y-1746500D01*
X1431999Y-1746500D01*
X1431999Y-1784000D01*
G37*
G36*
X1398500Y-1784000D02*
G01*
X1398500Y-1746500D01*
X1412299Y-1746500D01*
X1412299Y-1784000D01*
G37*
G36*
X1378800Y-1784000D02*
G01*
X1378800Y-1746500D01*
X1392600Y-1746500D01*
X1392600Y-1784000D01*
G37*
G36*
X1359099Y-1784000D02*
G01*
X1359099Y-1746500D01*
X1372899Y-1746500D01*
X1372899Y-1784000D01*
G37*
G36*
X1316499Y-1802899D02*
G01*
X1316499Y-1789099D01*
X1353999Y-1789099D01*
X1353999Y-1802899D01*
G37*
G36*
X1316499Y-1822600D02*
G01*
X1316499Y-1808800D01*
X1353999Y-1808800D01*
X1353999Y-1822600D01*
G37*
G36*
X1316499Y-1842300D02*
G01*
X1316499Y-1828499D01*
X1353999Y-1828499D01*
X1353999Y-1842300D01*
G37*
G36*
X1316499Y-1861999D02*
G01*
X1316499Y-1848200D01*
X1353999Y-1848200D01*
X1353999Y-1861999D01*
G37*
G36*
X1316499Y-1881700D02*
G01*
X1316499Y-1867899D01*
X1353999Y-1867899D01*
X1353999Y-1881700D01*
G37*
G36*
X1316499Y-1901300D02*
G01*
X1316499Y-1887399D01*
X1353999Y-1887399D01*
X1353999Y-1901300D01*
G37*
G36*
X1363800Y-1896199D02*
G01*
X1363800Y-1793800D01*
X1466199Y-1793800D01*
X1466199Y-1896199D01*
G37*
G36*
X730999Y-2182600D02*
G01*
X730999Y-2157399D01*
X766099Y-2157399D01*
X766099Y-2182600D01*
G37*
G36*
X773900Y-2182600D02*
G01*
X773900Y-2157399D01*
X808999Y-2157399D01*
X808999Y-2182600D01*
G37*
G36*
X931400Y-1165300D02*
G01*
X931400Y-1105799D01*
X988599Y-1105799D01*
X988599Y-1165300D01*
G37*
G36*
X931400Y-1084200D02*
G01*
X931400Y-1024699D01*
X988599Y-1024699D01*
X988599Y-1084200D01*
G37*
G36*
X417500Y-655199D02*
G01*
X417500Y-581999D01*
X472500Y-581999D01*
X472500Y-655199D01*
G37*
G36*
X417500Y-788000D02*
G01*
X417500Y-714800D01*
X472500Y-714800D01*
X472500Y-788000D01*
G37*
G36*
X1278900Y-1207600D02*
G01*
X1278900Y-1182399D01*
X1313999Y-1182399D01*
X1313999Y-1207600D01*
G37*
G36*
X1236000Y-1207600D02*
G01*
X1236000Y-1182399D01*
X1271099Y-1182399D01*
X1271099Y-1207600D01*
G37*
G36*
X1451400Y-1065300D02*
G01*
X1451400Y-1005799D01*
X1508599Y-1005799D01*
X1508599Y-1065300D01*
G37*
G36*
X1451400Y-984200D02*
G01*
X1451400Y-924699D01*
X1508599Y-924699D01*
X1508599Y-984200D01*
G37*
G36*
X482399Y-1151100D02*
G01*
X482399Y-1124800D01*
X507600Y-1124800D01*
X507600Y-1151100D01*
G37*
G36*
X482399Y-1185199D02*
G01*
X482399Y-1158899D01*
X507600Y-1158899D01*
X507600Y-1185199D01*
G37*
G36*
X531799Y-1259000D02*
G01*
X531799Y-1220999D01*
X567500Y-1220999D01*
X567500Y-1259000D01*
G37*
G36*
X472500Y-1259000D02*
G01*
X472500Y-1220999D01*
X508200Y-1220999D01*
X508200Y-1259000D01*
G37*
G36*
X533899Y-1317600D02*
G01*
X533899Y-1292399D01*
X560199Y-1292399D01*
X560199Y-1317600D01*
G37*
G36*
X499800Y-1317600D02*
G01*
X499800Y-1292399D01*
X526100Y-1292399D01*
X526100Y-1317600D01*
G37*
G36*
X952399Y-1226100D02*
G01*
X952399Y-1199800D01*
X977600Y-1199800D01*
X977600Y-1226100D01*
G37*
G36*
X952399Y-1260199D02*
G01*
X952399Y-1233899D01*
X977600Y-1233899D01*
X977600Y-1260199D01*
G37*
G36*
X809799Y-1312600D02*
G01*
X809799Y-1287399D01*
X836099Y-1287399D01*
X836099Y-1312600D01*
G37*
G36*
X843900Y-1312600D02*
G01*
X843900Y-1287399D01*
X870200Y-1287399D01*
X870200Y-1312600D01*
G37*
G36*
X1142399Y-1566100D02*
G01*
X1142399Y-1539800D01*
X1167600Y-1539800D01*
X1167600Y-1566100D01*
G37*
G36*
X1142399Y-1600199D02*
G01*
X1142399Y-1573899D01*
X1167600Y-1573899D01*
X1167600Y-1600199D01*
G37*
G36*
X877399Y-1566100D02*
G01*
X877399Y-1539800D01*
X902600Y-1539800D01*
X902600Y-1566100D01*
G37*
G36*
X877399Y-1600199D02*
G01*
X877399Y-1573899D01*
X902600Y-1573899D01*
X902600Y-1600199D01*
G37*
G36*
X703600Y-1201399D02*
G01*
X703600Y-1118600D01*
X786400Y-1118600D01*
X786400Y-1201399D01*
G37*
D83*
G01*
X1135000Y-1340000D03*
G01*
X1250000Y-1340000D03*
G36*
X738899Y-1312600D02*
G01*
X738899Y-1287399D01*
X773999Y-1287399D01*
X773999Y-1312600D01*
G37*
G36*
X695999Y-1312600D02*
G01*
X695999Y-1287399D01*
X731100Y-1287399D01*
X731100Y-1312600D01*
G37*
G36*
X690999Y-972600D02*
G01*
X690999Y-947399D01*
X726100Y-947399D01*
X726100Y-972600D01*
G37*
G36*
X733899Y-972600D02*
G01*
X733899Y-947399D01*
X768999Y-947399D01*
X768999Y-972600D01*
G37*
G36*
X986999Y-542500D02*
G01*
X986999Y-487500D01*
X1060200Y-487500D01*
X1060200Y-542500D01*
G37*
G36*
X1119799Y-542500D02*
G01*
X1119799Y-487500D01*
X1193000Y-487500D01*
X1193000Y-542500D01*
G37*
G36*
X1166000Y-937600D02*
G01*
X1166000Y-912399D01*
X1201099Y-912399D01*
X1201099Y-937600D01*
G37*
G36*
X1208900Y-937600D02*
G01*
X1208900Y-912399D01*
X1243999Y-912399D01*
X1243999Y-937600D01*
G37*
G36*
X490999Y-1517600D02*
G01*
X490999Y-1492399D01*
X526100Y-1492399D01*
X526100Y-1517600D01*
G37*
G36*
X533899Y-1517600D02*
G01*
X533899Y-1492399D01*
X569000Y-1492399D01*
X569000Y-1517600D01*
G37*
G36*
X335999Y-1587600D02*
G01*
X335999Y-1562399D01*
X371100Y-1562399D01*
X371100Y-1587600D01*
G37*
G36*
X378899Y-1587600D02*
G01*
X378899Y-1562399D01*
X414000Y-1562399D01*
X414000Y-1587600D01*
G37*
G36*
X426199Y-995500D02*
G01*
X426199Y-924499D01*
X501100Y-924499D01*
X501100Y-995500D01*
G37*
G36*
X598899Y-995500D02*
G01*
X598899Y-924499D01*
X673800Y-924499D01*
X673800Y-995500D01*
G37*
G36*
X1129499Y-721100D02*
G01*
X1129499Y-646199D01*
X1200500Y-646199D01*
X1200500Y-721100D01*
G37*
G36*
X1129499Y-893800D02*
G01*
X1129499Y-818899D01*
X1200500Y-818899D01*
X1200500Y-893800D01*
G37*
G36*
X1248500Y-346500D02*
G01*
X1248500Y-303499D01*
X1281499Y-303499D01*
X1281499Y-346500D01*
G37*
G36*
X1211000Y-346500D02*
G01*
X1211000Y-303499D01*
X1248999Y-303499D01*
X1248999Y-346500D01*
G37*
G36*
X1281000Y-346500D02*
G01*
X1281000Y-303499D01*
X1318999Y-303499D01*
X1318999Y-346500D01*
G37*
G36*
X1108500Y-346500D02*
G01*
X1108500Y-303499D01*
X1141499Y-303499D01*
X1141499Y-346500D01*
G37*
G36*
X1141000Y-346500D02*
G01*
X1141000Y-303499D01*
X1178999Y-303499D01*
X1178999Y-346500D01*
G37*
G36*
X1071000Y-346500D02*
G01*
X1071000Y-303499D01*
X1108999Y-303499D01*
X1108999Y-346500D01*
G37*
G36*
X558200Y-891399D02*
G01*
X558200Y-789000D01*
X711799Y-789000D01*
X711799Y-891399D01*
G37*
G36*
X558200Y-670999D02*
G01*
X558200Y-568600D01*
X711799Y-568600D01*
X711799Y-670999D01*
G37*
G36*
X878199Y-896399D02*
G01*
X878199Y-794000D01*
X1031800Y-794000D01*
X1031800Y-896399D01*
G37*
G36*
X878199Y-675999D02*
G01*
X878199Y-573600D01*
X1031800Y-573600D01*
X1031800Y-675999D01*
G37*
G36*
X1686599Y-1392199D02*
G01*
X1686599Y-1339000D01*
X1718199Y-1339000D01*
X1718199Y-1392199D01*
G37*
G36*
X1611800Y-1392199D02*
G01*
X1611800Y-1339000D01*
X1643400Y-1339000D01*
X1643400Y-1392199D01*
G37*
G36*
X1649200Y-1470999D02*
G01*
X1649200Y-1417800D01*
X1680799Y-1417800D01*
X1680799Y-1470999D01*
G37*
G36*
X537399Y-1116100D02*
G01*
X537399Y-1089800D01*
X562600Y-1089800D01*
X562600Y-1116100D01*
G37*
G36*
X537399Y-1150199D02*
G01*
X537399Y-1123899D01*
X562600Y-1123899D01*
X562600Y-1150199D01*
G37*
G36*
X724800Y-1652600D02*
G01*
X724800Y-1627399D01*
X751100Y-1627399D01*
X751100Y-1652600D01*
G37*
G36*
X758899Y-1652600D02*
G01*
X758899Y-1627399D01*
X785200Y-1627399D01*
X785200Y-1652600D01*
G37*
G36*
X1027399Y-1016100D02*
G01*
X1027399Y-989800D01*
X1052600Y-989800D01*
X1052600Y-1016100D01*
G37*
G36*
X1027399Y-1050199D02*
G01*
X1027399Y-1023899D01*
X1052600Y-1023899D01*
X1052600Y-1050199D01*
G37*
G36*
X1082399Y-1050199D02*
G01*
X1082399Y-1023899D01*
X1107600Y-1023899D01*
X1107600Y-1050199D01*
G37*
G36*
X1082399Y-1016100D02*
G01*
X1082399Y-989800D01*
X1107600Y-989800D01*
X1107600Y-1016100D01*
G37*
G36*
X1146800Y-1214000D02*
G01*
X1146800Y-1175999D01*
X1182500Y-1175999D01*
X1182500Y-1214000D01*
G37*
G36*
X1087500Y-1214000D02*
G01*
X1087500Y-1175999D01*
X1123199Y-1175999D01*
X1123199Y-1214000D01*
G37*
G36*
X1072399Y-1150199D02*
G01*
X1072399Y-1123899D01*
X1097600Y-1123899D01*
X1097600Y-1150199D01*
G37*
G36*
X1072399Y-1116100D02*
G01*
X1072399Y-1089800D01*
X1097600Y-1089800D01*
X1097600Y-1116100D01*
G37*
G36*
X1447399Y-1121100D02*
G01*
X1447399Y-1094800D01*
X1472600Y-1094800D01*
X1472600Y-1121100D01*
G37*
G36*
X1447399Y-1155199D02*
G01*
X1447399Y-1128899D01*
X1472600Y-1128899D01*
X1472600Y-1155199D01*
G37*
G36*
X1354799Y-1207600D02*
G01*
X1354799Y-1182399D01*
X1381099Y-1182399D01*
X1381099Y-1207600D01*
G37*
G36*
X1388900Y-1207600D02*
G01*
X1388900Y-1182399D01*
X1415200Y-1182399D01*
X1415200Y-1207600D01*
G37*
G36*
X1322399Y-2050199D02*
G01*
X1322399Y-2023899D01*
X1347600Y-2023899D01*
X1347600Y-2050199D01*
G37*
G36*
X1322399Y-2016100D02*
G01*
X1322399Y-1989800D01*
X1347600Y-1989800D01*
X1347600Y-2016100D01*
G37*
G36*
X1087399Y-1566100D02*
G01*
X1087399Y-1539800D01*
X1112600Y-1539800D01*
X1112600Y-1566100D01*
G37*
G36*
X1087399Y-1600199D02*
G01*
X1087399Y-1573899D01*
X1112600Y-1573899D01*
X1112600Y-1600199D01*
G37*
G36*
X927399Y-1566100D02*
G01*
X927399Y-1539800D01*
X952600Y-1539800D01*
X952600Y-1566100D01*
G37*
G36*
X927399Y-1600199D02*
G01*
X927399Y-1573899D01*
X952600Y-1573899D01*
X952600Y-1600199D01*
G37*
G36*
X982399Y-1566100D02*
G01*
X982399Y-1539800D01*
X1007600Y-1539800D01*
X1007600Y-1566100D01*
G37*
G36*
X982399Y-1600199D02*
G01*
X982399Y-1573899D01*
X1007600Y-1573899D01*
X1007600Y-1600199D01*
G37*
G36*
X1037399Y-1566100D02*
G01*
X1037399Y-1539800D01*
X1062600Y-1539800D01*
X1062600Y-1566100D01*
G37*
G36*
X1037399Y-1600199D02*
G01*
X1037399Y-1573899D01*
X1062600Y-1573899D01*
X1062600Y-1600199D01*
G37*
G36*
X1740299Y-2183499D02*
G01*
X1740299Y-2155799D01*
X1779700Y-2155799D01*
X1779700Y-2183499D01*
G37*
G36*
X1740299Y-2144200D02*
G01*
X1740299Y-2116500D01*
X1779700Y-2116500D01*
X1779700Y-2144200D01*
G37*
G36*
X827399Y-1566100D02*
G01*
X827399Y-1539800D01*
X852600Y-1539800D01*
X852600Y-1566100D01*
G37*
G36*
X827399Y-1600199D02*
G01*
X827399Y-1573899D01*
X852600Y-1573899D01*
X852600Y-1600199D01*
G37*
G36*
X1229399Y-2358699D02*
G01*
X1229399Y-2311300D01*
X1293400Y-2311300D01*
X1293400Y-2358699D01*
G37*
G36*
X1576599Y-2358699D02*
G01*
X1576599Y-2311300D01*
X1640600Y-2311300D01*
X1640600Y-2358699D01*
G37*
G36*
X1576599Y-2258699D02*
G01*
X1576599Y-2211300D01*
X1640600Y-2211300D01*
X1640600Y-2258699D01*
G37*
G36*
X1229399Y-2258699D02*
G01*
X1229399Y-2211300D01*
X1293400Y-2211300D01*
X1293400Y-2258699D01*
G37*
G36*
X1233599Y-1101399D02*
G01*
X1233599Y-1018600D01*
X1316400Y-1018600D01*
X1316400Y-1101399D01*
G37*
G36*
X319299Y-964000D02*
G01*
X319299Y-862800D01*
X361799Y-862800D01*
X361799Y-964000D01*
G37*
G36*
X228699Y-964000D02*
G01*
X228699Y-862800D01*
X271300Y-862800D01*
X271300Y-964000D01*
G37*
G36*
X138200Y-964000D02*
G01*
X138200Y-862800D01*
X180700Y-862800D01*
X180700Y-964000D01*
G37*
G36*
X177100Y-1187199D02*
G01*
X177100Y-1085999D01*
X322899Y-1085999D01*
X322899Y-1187199D01*
G37*
G36*
X954700Y-2389699D02*
G01*
X954700Y-2350300D01*
X990200Y-2350300D01*
X990200Y-2389699D01*
G37*
G36*
X1009799Y-2389699D02*
G01*
X1009799Y-2350300D01*
X1045299Y-2350300D01*
X1045299Y-2389699D01*
G37*
G36*
X879799Y-2389699D02*
G01*
X879799Y-2350300D01*
X915299Y-2350300D01*
X915299Y-2389699D01*
G37*
G36*
X824700Y-2389699D02*
G01*
X824700Y-2350300D01*
X860200Y-2350300D01*
X860200Y-2389699D01*
G37*
G36*
X799799Y-2299699D02*
G01*
X799799Y-2260300D01*
X835299Y-2260300D01*
X835299Y-2299699D01*
G37*
G36*
X744699Y-2299699D02*
G01*
X744699Y-2260300D01*
X780200Y-2260300D01*
X780200Y-2299699D01*
G37*
G36*
X601199Y-354699D02*
G01*
X601199Y-275799D01*
X698800Y-275799D01*
X698800Y-354699D01*
G37*
G36*
X601199Y-504200D02*
G01*
X601199Y-425300D01*
X698800Y-425300D01*
X698800Y-504200D01*
G37*
G36*
X731199Y-354699D02*
G01*
X731199Y-275799D01*
X828800Y-275799D01*
X828800Y-354699D01*
G37*
G36*
X731199Y-504200D02*
G01*
X731199Y-425300D01*
X828800Y-425300D01*
X828800Y-504200D01*
G37*
G36*
X861199Y-354699D02*
G01*
X861199Y-275799D01*
X958800Y-275799D01*
X958800Y-354699D01*
G37*
G36*
X861199Y-504200D02*
G01*
X861199Y-425300D01*
X958800Y-425300D01*
X958800Y-504200D01*
G37*
G36*
X1702399Y-1324000D02*
G01*
X1702399Y-1288899D01*
X1727600Y-1288899D01*
X1727600Y-1324000D01*
G37*
G36*
X1702399Y-1281100D02*
G01*
X1702399Y-1245999D01*
X1727600Y-1245999D01*
X1727600Y-1281100D01*
G37*
G36*
X334699Y-1529699D02*
G01*
X334699Y-1490300D01*
X370199Y-1490300D01*
X370199Y-1529699D01*
G37*
G36*
X389800Y-1529699D02*
G01*
X389800Y-1490300D01*
X425300Y-1490300D01*
X425300Y-1529699D01*
G37*
G36*
X144699Y-754699D02*
G01*
X144699Y-715300D01*
X180199Y-715300D01*
X180199Y-754699D01*
G37*
G36*
X199800Y-754699D02*
G01*
X199800Y-715300D01*
X235300Y-715300D01*
X235300Y-754699D01*
G37*
G36*
X1320200Y-1329200D02*
G01*
X1320200Y-1301500D01*
X1359700Y-1301500D01*
X1359700Y-1329200D01*
G37*
G36*
X1320200Y-1368499D02*
G01*
X1320200Y-1340799D01*
X1359700Y-1340799D01*
X1359700Y-1368499D01*
G37*
G36*
X489699Y-1464699D02*
G01*
X489699Y-1425300D01*
X525199Y-1425300D01*
X525199Y-1464699D01*
G37*
G36*
X544800Y-1464699D02*
G01*
X544800Y-1425300D01*
X580300Y-1425300D01*
X580300Y-1464699D01*
G37*
G36*
X144699Y-824699D02*
G01*
X144699Y-785300D01*
X180199Y-785300D01*
X180199Y-824699D01*
G37*
G36*
X199800Y-824699D02*
G01*
X199800Y-785300D01*
X235300Y-785300D01*
X235300Y-824699D01*
G37*
G36*
X667199Y-2097800D02*
G01*
X667199Y-2062199D01*
X724400Y-2062199D01*
X724400Y-2097800D01*
G37*
G36*
X765600Y-2060399D02*
G01*
X765600Y-2024800D01*
X822799Y-2024800D01*
X822799Y-2060399D01*
G37*
G36*
X765600Y-2135200D02*
G01*
X765600Y-2099600D01*
X822799Y-2099600D01*
X822799Y-2135200D01*
G37*
G36*
X1636300Y-1300700D02*
G01*
X1636300Y-1259299D01*
X1687600Y-1259299D01*
X1687600Y-1300700D01*
G37*
G36*
X1502399Y-1300700D02*
G01*
X1502399Y-1259299D01*
X1553699Y-1259299D01*
X1553699Y-1300700D01*
G37*
G36*
X1632399Y-2146100D02*
G01*
X1632399Y-2119800D01*
X1657600Y-2119800D01*
X1657600Y-2146100D01*
G37*
G36*
X1632399Y-2180200D02*
G01*
X1632399Y-2153899D01*
X1657600Y-2153899D01*
X1657600Y-2180200D01*
G37*
G36*
X1687399Y-2146100D02*
G01*
X1687399Y-2119800D01*
X1712600Y-2119800D01*
X1712600Y-2146100D01*
G37*
G36*
X1687399Y-2180200D02*
G01*
X1687399Y-2153899D01*
X1712600Y-2153899D01*
X1712600Y-2180200D01*
G37*
G36*
X1548900Y-2142600D02*
G01*
X1548900Y-2117399D01*
X1575200Y-2117399D01*
X1575200Y-2142600D01*
G37*
G36*
X1514799Y-2142600D02*
G01*
X1514799Y-2117399D01*
X1541099Y-2117399D01*
X1541099Y-2142600D01*
G37*
G36*
X1448900Y-2142600D02*
G01*
X1448900Y-2117399D01*
X1475200Y-2117399D01*
X1475200Y-2142600D01*
G37*
G36*
X1414799Y-2142600D02*
G01*
X1414799Y-2117399D01*
X1441099Y-2117399D01*
X1441099Y-2142600D01*
G37*
G36*
X1910299Y-1378499D02*
G01*
X1910299Y-1350799D01*
X1949700Y-1350799D01*
X1949700Y-1378499D01*
G37*
G36*
X1910299Y-1339200D02*
G01*
X1910299Y-1311500D01*
X1949700Y-1311500D01*
X1949700Y-1339200D01*
G37*
G36*
X1905299Y-1633499D02*
G01*
X1905299Y-1605799D01*
X1944700Y-1605799D01*
X1944700Y-1633499D01*
G37*
G36*
X1905299Y-1594200D02*
G01*
X1905299Y-1566500D01*
X1944700Y-1566500D01*
X1944700Y-1594200D01*
G37*
G36*
X1905299Y-2039200D02*
G01*
X1905299Y-2011500D01*
X1944700Y-2011500D01*
X1944700Y-2039200D01*
G37*
G36*
X1905299Y-2078499D02*
G01*
X1905299Y-2050799D01*
X1944700Y-2050799D01*
X1944700Y-2078499D01*
G37*
G36*
X1548900Y-1362600D02*
G01*
X1548900Y-1337399D01*
X1575200Y-1337399D01*
X1575200Y-1362600D01*
G37*
G36*
X1514799Y-1362600D02*
G01*
X1514799Y-1337399D01*
X1541099Y-1337399D01*
X1541099Y-1362600D01*
G37*
G36*
X1389799Y-1362600D02*
G01*
X1389799Y-1337399D01*
X1416099Y-1337399D01*
X1416099Y-1362600D01*
G37*
G36*
X1423900Y-1362600D02*
G01*
X1423900Y-1337399D01*
X1450200Y-1337399D01*
X1450200Y-1362600D01*
G37*
G36*
X1135299Y-1474200D02*
G01*
X1135299Y-1446500D01*
X1174700Y-1446500D01*
X1174700Y-1474200D01*
G37*
G36*
X1135299Y-1513499D02*
G01*
X1135299Y-1485799D01*
X1174700Y-1485799D01*
X1174700Y-1513499D01*
G37*
G01*
X1105000Y-2275000D03*
D81*
G01*
X475030Y-99980D03*
G01*
X475030Y-178719D03*
G01*
X553769Y-99980D03*
G01*
X553769Y-178719D03*
G01*
X632510Y-178719D03*
G01*
X632510Y-99980D03*
G01*
X789989Y-99980D03*
G01*
X789989Y-178719D03*
G01*
X711250Y-178719D03*
G01*
X711250Y-99980D03*
G01*
X947470Y-99980D03*
G01*
X947470Y-178719D03*
G01*
X868729Y-178719D03*
G01*
X868729Y-99980D03*
G01*
X1104949Y-99980D03*
G01*
X1104949Y-178719D03*
G01*
X1026210Y-178719D03*
G01*
X1026210Y-99980D03*
G01*
X1262430Y-99980D03*
G01*
X1262430Y-178719D03*
G01*
X1183689Y-178719D03*
G01*
X1183689Y-99980D03*
G01*
X1419909Y-99980D03*
G01*
X1419909Y-178719D03*
G01*
X1341170Y-178719D03*
G01*
X1341170Y-99980D03*
G01*
X1498649Y-178719D03*
G01*
X1498649Y-99980D03*
D83*
G01*
X1015000Y-1400000D03*
G01*
X1015000Y-1485000D03*
G01*
X1105000Y-2370000D03*
G36*
X609200Y-1996399D02*
G01*
X609200Y-1964899D01*
X691999Y-1964899D01*
X691999Y-1996399D01*
G37*
G36*
X609200Y-1953400D02*
G01*
X609200Y-1921799D01*
X691900Y-1921799D01*
X691900Y-1953400D01*
G37*
G36*
X609200Y-1910199D02*
G01*
X609200Y-1878699D01*
X691999Y-1878699D01*
X691999Y-1910199D01*
G37*
G36*
X609200Y-1866900D02*
G01*
X609200Y-1835399D01*
X691999Y-1835399D01*
X691999Y-1866900D01*
G37*
G36*
X609200Y-1823699D02*
G01*
X609200Y-1792100D01*
X691999Y-1792100D01*
X691999Y-1823699D01*
G37*
G36*
X609200Y-1780399D02*
G01*
X609200Y-1748899D01*
X691999Y-1748899D01*
X691999Y-1780399D01*
G37*
G36*
X609200Y-1737300D02*
G01*
X609200Y-1705700D01*
X691999Y-1705700D01*
X691999Y-1737300D01*
G37*
G36*
X609200Y-1694000D02*
G01*
X609200Y-1662500D01*
X691999Y-1662500D01*
X691999Y-1694000D01*
G37*
G36*
X609200Y-1650599D02*
G01*
X609200Y-1619000D01*
X691999Y-1619000D01*
X691999Y-1650599D01*
G37*
G36*
X599899Y-1609899D02*
G01*
X599899Y-1558699D01*
X658899Y-1558699D01*
X658899Y-1609899D01*
G37*
G36*
X599899Y-2202700D02*
G01*
X599899Y-2128699D01*
X658899Y-2128699D01*
X658899Y-2202700D01*
G37*
G36*
X202399Y-2222700D02*
G01*
X202399Y-2168699D01*
X296399Y-2168699D01*
X296399Y-2222700D01*
G37*
G36*
X202399Y-1612699D02*
G01*
X202399Y-1558699D01*
X296399Y-1558699D01*
X296399Y-1612699D01*
G37*
G36*
X1907299Y-1714200D02*
G01*
X1907299Y-1678800D01*
X1942700Y-1678800D01*
X1942700Y-1714200D01*
G37*
G36*
X1907299Y-1781199D02*
G01*
X1907299Y-1745799D01*
X1942700Y-1745799D01*
X1942700Y-1781199D01*
G37*
G36*
X1907299Y-1956199D02*
G01*
X1907299Y-1920799D01*
X1942700Y-1920799D01*
X1942700Y-1956199D01*
G37*
G36*
X1907299Y-1889200D02*
G01*
X1907299Y-1853800D01*
X1942700Y-1853800D01*
X1942700Y-1889200D01*
G37*
G36*
X1232399Y-1550199D02*
G01*
X1232399Y-1523899D01*
X1257600Y-1523899D01*
X1257600Y-1550199D01*
G37*
G36*
X1232399Y-1516100D02*
G01*
X1232399Y-1489800D01*
X1257600Y-1489800D01*
X1257600Y-1516100D01*
G37*
G36*
X1232399Y-1465199D02*
G01*
X1232399Y-1438899D01*
X1257600Y-1438899D01*
X1257600Y-1465199D01*
G37*
G36*
X1232399Y-1431100D02*
G01*
X1232399Y-1404800D01*
X1257600Y-1404800D01*
X1257600Y-1431100D01*
G37*
G36*
X1902299Y-2149200D02*
G01*
X1902299Y-2113800D01*
X1937700Y-2113800D01*
X1937700Y-2149200D01*
G37*
G36*
X1902299Y-2216199D02*
G01*
X1902299Y-2180799D01*
X1937700Y-2180799D01*
X1937700Y-2216199D01*
G37*
G36*
X1907299Y-1449200D02*
G01*
X1907299Y-1413800D01*
X1942700Y-1413800D01*
X1942700Y-1449200D01*
G37*
G36*
X1907299Y-1516199D02*
G01*
X1907299Y-1480799D01*
X1942700Y-1480799D01*
X1942700Y-1516199D01*
G37*
D118*
G01*
X310000Y-150000D03*
G01*
X1660000Y-150000D03*
G01*
X310000Y-2700000D03*
G01*
X1660000Y-2700000D03*
M02*
